<svg xmlns="http://www.w3.org/2000/svg" viewBox="0 0 717.6 717.6"><defs><style>.cls-1{fill:#3084c7;}</style></defs><title>add</title><g id="图层_2" data-name="图层 2"><g id="图层_1-2" data-name="图层 1"><path class="cls-1" d="M717.6,290.36V427.25a18.66,18.66,0,0,1-18.66,18.66h-253v253a18.66,18.66,0,0,1-18.66,18.66H290.36a18.66,18.66,0,0,1-18.67-18.66v-253h-253A18.66,18.66,0,0,1,0,427.25V290.36a18.66,18.66,0,0,1,18.67-18.67h253v-253A18.66,18.66,0,0,1,290.36,0H427.25a18.66,18.66,0,0,1,18.66,18.67v253h253a18.66,18.66,0,0,1,18.66,18.67Zm0,0"/></g></g></svg>