<?xml version="1.0" encoding="utf-8"?>
<!-- Generator: Adobe Illustrator 21.0.0, SVG Export Plug-In . SVG Version: 6.00 Build 0)  -->
<svg version="1.1" id="图层_1" xmlns="http://www.w3.org/2000/svg" xmlns:xlink="http://www.w3.org/1999/xlink" x="0px"
     y="0px"
     viewBox="0 0 28 28" style="enable-background:new 0 0 28 28;" xml:space="preserve">
<style type="text/css">
	.st0{fill:#44CC23;}
</style>
    <path class="st0" d="M9.1,20.2c-1.5,1.3-2.4,1.2-3.4,0.2l-1.1-1.2c-1-1-1-2.6,0-3.6l4.9-4.9c1-1,2.6-1,3.6,0l0.9,0.9
	c0.8,0.8,0.9,1.9,0.5,2.9l2.2,1.7c1.5-1.5,1.5-3.9,0-5.4l-2.7-2.7c-1.5-1.5-3.9-1.5-5.4,0l-6.7,6.7c-1.5,1.5-1.5,3.9,0,5.4l2.7,2.7
	c1.5,1.5,3.9,1.5,5.4,0l2.6-2.7l-1.8-1.8L9.1,20.2z"/>
    <path class="st0" d="M18.9,7.9c1.5-1.3,2.4-1.2,3.4-0.2l1.1,1.2c1,1,1,2.6,0,3.6l-4.9,4.9c-1,1-2.6,1-3.6,0l-0.9-0.9
	c-0.8-0.8-0.9-1.9-0.5-2.9l-2.2-1.7c-1.5,1.5-1.5,3.9,0,5.4l2.7,2.7c1.5,1.5,3.9,1.5,5.4,0l6.7-6.7c1.5-1.5,1.5-3.9,0-5.4l-2.7-2.7
	c-1.5-1.5-3.9-1.5-5.4,0l-2.6,2.7l1.8,1.8L18.9,7.9z"/>
</svg>
