<?xml version="1.0" encoding="utf-8"?>
<!-- Generator: Adobe Illustrator 21.0.0, SVG Export Plug-In . SVG Version: 6.00 Build 0)  -->
<svg version="1.1" id="图层_1" xmlns="http://www.w3.org/2000/svg" xmlns:xlink="http://www.w3.org/1999/xlink" x="0px"
     y="0px"
     viewBox="0 0 28 28" style="enable-background:new 0 0 28 28;" xml:space="preserve">
<style type="text/css">
	.st0{fill:#FF6750;}
</style>
    <path class="st0" d="M21.9,4.6H6.1c-1.4,0-2.6,1-2.6,2.3v0.8h21V6.9C24.5,5.6,23.3,4.6,21.9,4.6L21.9,4.6z M17.3,3.1l0.5,2.5h-7.5
	l0.5-2.5C10.7,3.1,17.3,3.1,17.3,3.1z M17.5,1.4h-7C9.8,1.4,9.1,2,9.1,2.7L8.4,5.8c0,0.6,0.5,1.3,1.2,1.3h8.6c0.7,0,1.2-0.6,1.2-1.3
	l-0.5-3.1C18.9,2,18.2,1.4,17.5,1.4z M22.4,9.4H5.6C4.7,9.4,4,10,4,10.9l1.4,14.3c0,0.8,0.9,1.5,1.9,1.5h13.1c0.9,0,1.9-0.6,1.9-1.5
	l1.4-14.3C24,10,23.3,9.4,22.4,9.4z M10.5,23.5H7.9L7,12.5h3.5V23.5z M15.9,23.5h-3.5V12.5h3.5V23.5z M20.1,23.5h-2.6V12.5H21
	L20.1,23.5z"/>
</svg>
