<?xml version="1.0" encoding="utf-8"?>
<!-- Generator: Adobe Illustrator 21.0.0, SVG Export Plug-In . SVG Version: 6.00 Build 0)  -->
<svg version="1.1" id="图层_1" xmlns="http://www.w3.org/2000/svg" xmlns:xlink="http://www.w3.org/1999/xlink" x="0px"
     y="0px"
     viewBox="0 0 28 28" style="enable-background:new 0 0 28 28;" xml:space="preserve">
<style type="text/css">
	.st0{fill:#DD4ADA;}
</style>
    <path class="st0" d="M26.7,9.7C26.7,9.7,26.7,9.7,26.7,9.7l-6.5-7.4c-0.3-0.4-0.8-0.6-1.2-0.6c0,0,0,0,0,0c-0.5,0-0.9,0.2-1.2,0.6
	c-0.3,0.3-0.4,0.8-0.4,1.2v3.1h-2.5C14.4,6.6,14,7,14,7.4c0,0.5,0.4,0.8,0.8,0.8h3.3c0.5,0,0.8-0.4,0.8-0.8V3.5c0-0.1,0-0.1,0-0.1
	l6.5,7.4c0.1,0.1,0.1,0.2,0,0.3L19,18.5c0,0,0-0.1,0-0.1l0-4.3c0-0.5-0.4-0.8-0.8-0.8H14h-3.3V9.8C10.7,8.8,9.9,8,9,8
	C8.5,8,8.1,8.2,7.8,8.5l-6.5,7.4c0,0,0,0,0,0c-0.6,0.7-0.6,1.8,0,2.5c0,0,0,0,0,0l6.5,7.3c0.3,0.4,0.8,0.6,1.2,0.6c0,0,0,0,0,0
	c0.5,0,0.9-0.2,1.2-0.6c0.3-0.3,0.4-0.8,0.4-1.2l0-3.1h2.5c0.5,0,0.8-0.4,0.8-0.8s-0.4-0.8-0.8-0.8H9.9c-0.5,0-0.8,0.4-0.8,0.8v3.9
	c0,0.1,0,0.1,0,0.1l-6.4-7.3c-0.1-0.1-0.1-0.2,0-0.3L9,9.6c0,0,0,0.1,0,0.1v4.3c0,0.5,0.4,0.8,0.8,0.8H14h3.3v3.5
	c0,1,0.7,1.8,1.7,1.8c0.5,0,0.9-0.2,1.2-0.6l6.5-7.4c0,0,0,0,0,0C27.3,11.5,27.3,10.4,26.7,9.7z"/>
</svg>
