<?xml version="1.0" encoding="utf-8"?>
<!-- Generator: Adobe Illustrator 21.0.0, SVG Export Plug-In . SVG Version: 6.00 Build 0)  -->
<svg version="1.1" id="图层_1" xmlns="http://www.w3.org/2000/svg" xmlns:xlink="http://www.w3.org/1999/xlink" x="0px"
     y="0px"
     viewBox="0 0 28 28" style="enable-background:new 0 0 28 28;" xml:space="preserve">
<style type="text/css">
	.st0{fill:#FFAF50;}
</style>
    <path class="st0" d="M15.5,10.3l-9.1,9.1l1.1,1.1l9.1-9.1L15.5,10.3L15.5,10.3z M17.7,12.5l-9.1,9.1l2.1,2.1l9.1-9.1
	C19.8,14.6,17.7,12.5,17.7,12.5z M14.4,9.3l-1.1-1.1l-9.1,9.1l1.1,1.1L14.4,9.3z M25.4,6.9l-4.3-4.3C20.5,2,19.5,2,19,2.6l-2.6,2.6
	l6.4,6.4L25.4,9C26,8.5,26,7.5,25.4,6.9L25.4,6.9z M2.2,25.8h4.6l-4.6-4.6C2.2,21.2,2.2,25.8,2.2,25.8z M12.8,25.8h10.6v-1.5H12.8
	V25.8z"/>
</svg>
