<?xml version="1.0" encoding="utf-8"?>
<!-- Generator: Adobe Illustrator 21.0.0, SVG Export Plug-In . SVG Version: 6.00 Build 0)  -->
<svg version="1.1" id="图层_1" xmlns="http://www.w3.org/2000/svg" xmlns:xlink="http://www.w3.org/1999/xlink" x="0px" y="0px"
     viewBox="0 0 200 200" style="enable-background:new 0 0 200 200;" xml:space="preserve">
<style type="text/css">
	.st0{fill:#fa4848;}
</style>
    <path class="st0" d="M100.1,0.1C45,0.1,0.3,44.8,0.3,99.9c0,55.2,44.7,99.9,99.9,99.9c55.2,0,99.9-44.7,99.9-99.9
	C200,44.8,155.3,0.1,100.1,0.1z M139.8,129.7c2.7,2.7,2.7,7.2,0,9.9c-2.7,2.7-7.2,2.7-9.9,0l-29.7-29.7l-29.7,29.7
	c-2.7,2.7-7.2,2.7-9.9,0c-2.7-2.7-2.7-7.2,0-9.9L90.3,100L60.6,70.3c-2.7-2.7-2.7-7.2,0-9.9c2.7-2.7,7.2-2.7,9.9,0l29.7,29.7
	l29.7-29.7c2.7-2.7,7.2-2.7,9.9,0c2.7,2.7,2.7,7.2,0,9.9L110.1,100L139.8,129.7z"/>
</svg>