<?xml version="1.0" encoding="utf-8"?>
<!-- Generator: Adobe Illustrator 21.0.0, SVG Export Plug-In . SVG Version: 6.00 Build 0)  -->
<svg version="1.1" id="图层_1" xmlns="http://www.w3.org/2000/svg" xmlns:xlink="http://www.w3.org/1999/xlink" x="0px"
     y="0px"
     viewBox="0 0 12 12" style="enable-background:new 0 0 12 12;" xml:space="preserve">
<style type="text/css">
	.st0{fill:#FF6750;}
</style>
    <path class="st0" d="M6,12c-3.3,0-6-2.7-6-6c0-2.5,1.6-4.7,3.7-5.5v1.4c-1.3,0.8-2.2,2.3-2.2,4c0,2.6,2,4.6,4.5,4.6s4.5-2.1,4.5-4.6
	c0-1.7-0.9-3.2-2.2-4V0.5C10.4,1.3,12,3.5,12,6C12,9.3,9.3,12,6,12z M6,0c0.4,0,0.7,0.3,0.7,0.7v4.5C6.7,5.7,6.4,6,6,6
	S5.3,5.7,5.3,5.2V0.8C5.2,0.3,5.6,0,6,0z"/>
</svg>
