<?xml version="1.0" encoding="utf-8"?>
<!-- Generator: Adobe Illustrator 21.0.0, SVG Export Plug-In . SVG Version: 6.00 Build 0)  -->
<svg version="1.1" id="图层_1" xmlns="http://www.w3.org/2000/svg" xmlns:xlink="http://www.w3.org/1999/xlink" x="0px"
     y="0px"
     viewBox="0 0 12 12" style="enable-background:new 0 0 12 12;" xml:space="preserve">
<style type="text/css">
	.st0{fill:#FFAF50;}
</style>
    <path class="st0" d="M6,0L6,0c3.3,0,6,2.7,6,5.9s-2.7,5.9-6,5.9S0,9.2,0,5.9S2.7,0,6,0z M6,0.8c-1.4,0-2.6,0.5-3.6,1.5
	S0.8,4.6,0.8,5.9s0.7,2.7,1.6,3.7c1,1,2.2,1.5,3.6,1.5s2.8-0.6,3.7-1.6c1-1,1.5-2.2,1.5-3.6c0-1.3-0.7-2.6-1.6-3.6
	C8.6,1.4,7.4,0.8,6,0.8z M3.7,4.6c0-0.6,0-1,0.2-1.3C4,3,4.1,2.8,4.4,2.6C4.6,2.3,4.9,2.2,5.2,2c0.3-0.1,0.7-0.2,1-0.2
	C7,1.9,7.5,2.1,8,2.5c0.4,0.4,0.6,1,0.6,1.6c0,0.3,0,0.6-0.2,0.8c-0.1,0.4-0.2,0.7-0.6,1C7.4,6.3,7.1,6.6,7,6.7
	C6.9,6.9,6.8,7.1,6.7,7.3C6.6,7.5,6.6,7.5,6.6,7.7h-1c0-0.1,0-0.2,0.1-0.5C5.8,6.9,5.9,6.7,6,6.5S6.4,6,6.8,5.6
	C7.1,5.3,7.4,5,7.5,4.8S7.7,4.4,7.7,4S7.5,3.4,7.3,3.2C7,2.9,6.7,2.8,6.2,2.8c-1,0-1.6,0.6-1.6,1.8H3.7L3.7,4.6L3.7,4.6z M6.6,9.9
	h-1V8.7h1.1L6.6,9.9L6.6,9.9z"/>
</svg>
