<?xml version="1.0" encoding="utf-8"?>
<!-- Generator: Adobe Illustrator 21.0.0, SVG Export Plug-In . SVG Version: 6.00 Build 0)  -->
<svg version="1.1" id="图层_1" xmlns="http://www.w3.org/2000/svg" xmlns:xlink="http://www.w3.org/1999/xlink" x="0px"
     y="0px"
     viewBox="0 0 28 28" style="enable-background:new 0 0 28 28;" xml:space="preserve">
<style type="text/css">
	.st0{fill:#68D9F9;}
</style>
    <path class="st0" d="M3.5,12.1c-1.1,0-2,0.9-2,2s0.9,2,2,2s2-0.9,2-2S4.7,12.1,3.5,12.1z M3.5,4c-1.1,0-2,0.9-2,2s0.9,2,2,2
	s2-0.9,2-2S4.7,4,3.5,4z M3.5,20.4c-1,0-1.8,0.8-1.8,1.8c0,1,0.8,1.8,1.8,1.8s1.8-0.8,1.8-1.8C5.3,21.2,4.5,20.4,3.5,20.4z
	 M7.6,23.6h18.9v-2.7H7.6V23.6z M7.6,15.5h18.9v-2.7H7.6V15.5z M7.6,4.7v2.7h18.9V4.7C26.5,4.7,7.6,4.7,7.6,4.7z"/>
</svg>
