<svg xmlns="http://www.w3.org/2000/svg" xmlns:xlink="http://www.w3.org/1999/xlink" width="35" height="35"
     viewBox="0 0 35 35">
    <metadata><?xpacket begin="﻿" id="W5M0MpCehiHzreSzNTczkc9d"?>
        <x:xmpmeta xmlns:x="adobe:ns:meta/" x:xmptk="Adobe XMP Core 5.6-c138 79.159824, 2016/09/14-01:09:01        ">
            <rdf:RDF xmlns:rdf="http://www.w3.org/1999/02/22-rdf-syntax-ns#">
                <rdf:Description rdf:about=""/>
            </rdf:RDF>
        </x:xmpmeta>


        <?xpacket end="w"?>
    </metadata>
    <defs>
        <style>
            .cls-1 {
            fill: #fff;
            fill-rule: evenodd;
            filter: url(#filter);
            }
        </style>
        <filter id="filter" x="2262" y="67" width="35" height="35" filterUnits="userSpaceOnUse">
            <feFlood result="flood" flood-color="#ffaf50"/>
            <feComposite result="composite" operator="in" in2="SourceGraphic"/>
            <feBlend result="blend" in2="SourceGraphic"/>
        </filter>
    </defs>
    <path id="矩形_721" data-name="矩形 721" class="cls-1"
          d="M2279.5,67A17.5,17.5,0,1,0,2297,84.5,17.5,17.5,0,0,0,2279.5,67Zm-13.32,17.5A13.3,13.3,0,0,1,2287.67,74L2269,92.674A13.249,13.249,0,0,1,2266.18,84.5Zm13.32,13.316a13.219,13.219,0,0,1-8.15-2.8l18.67-18.667A13.311,13.311,0,0,1,2279.5,97.816Z"
          transform="translate(-2262 -67)"/>
</svg>
