<?xml version="1.0" encoding="utf-8"?>
<!-- Generator: Adobe Illustrator 21.0.0, SVG Export Plug-In . SVG Version: 6.00 Build 0)  -->
<svg version="1.1" id="图层_1" xmlns="http://www.w3.org/2000/svg" xmlns:xlink="http://www.w3.org/1999/xlink" x="0px"
     y="0px"
     viewBox="0 0 28 28" style="enable-background:new 0 0 28 28;" xml:space="preserve">
<style type="text/css">
	.st0{fill:#FF6750;}
</style>
    <g>
	<path class="st0" d="M14.8,11.8c-0.1-0.4-0.3-0.9-0.4-1.3l0.5-0.5l1.5,1.5c0.5,0.5,1.1,0.8,1.8,0.8c0.7,0,1.4-0.3,1.8-0.8
		c0.5-0.5,0.8-1.1,0.8-1.8S20.5,8.4,20,7.9l-1.5-1.5L20,4.8c1-1,1-2.7,0-3.7c-0.5-0.5-1.1-0.8-1.8-0.8c-0.7,0-1.4,0.3-1.8,0.8
		l-5.7,5.7c-0.9-0.4-1.9-0.6-3-0.6C5.7,6.2,3.9,7,2.5,8.4s-2.1,3.2-2.1,5.2s0.8,3.8,2.1,5.2c1.4,1.4,3.2,2.1,5.2,2.1
		c1.3,0,2.6-0.3,3.7-1c0.4-0.2,0.5-0.8,0.3-1.2c-0.2-0.4-0.8-0.5-1.2-0.3c-0.8,0.5-1.8,0.8-2.8,0.8c-3.1,0-5.6-2.5-5.6-5.6
		s2.5-5.6,5.6-5.6c1,0,1.9,0.2,2.7,0.7L11,9l6.6-6.6c0.2-0.2,0.4-0.3,0.6-0.3s0.5,0.1,0.6,0.3c0.4,0.4,0.4,0.9,0,1.3l-2.7,2.7
		l2.7,2.7c0.2,0.2,0.3,0.4,0.3,0.6s-0.1,0.5-0.3,0.6c-0.2,0.2-0.4,0.3-0.6,0.3c-0.2,0-0.5-0.1-0.6-0.3l-2.7-2.7l-2.6,2.6l0.3,0.6
		c0.3,0.5,0.4,0.9,0.6,1.4c0.1,0.5,0.6,0.7,1,0.6C14.6,12.8,14.9,12.3,14.8,11.8z"/>
        <path class="st0" d="M7.7,9.7c-1,0-2,0.4-2.7,1.1c-0.7,0.7-1.1,1.7-1.1,2.7c0,1,0.4,2,1.1,2.7c0.7,0.7,1.7,1.1,2.7,1.1
		s2-0.4,2.7-1.1c0.7-0.7,1.1-1.7,1.1-2.7s-0.4-2-1.1-2.7C9.6,10.1,8.7,9.7,7.7,9.7z M9.1,15c-0.4,0.4-0.9,0.6-1.5,0.6
		S6.6,15.4,6.2,15c-0.4-0.4-0.6-0.9-0.6-1.5c0-0.6,0.2-1.1,0.6-1.5c0.4-0.4,0.9-0.6,1.5-0.6s1.1,0.2,1.5,0.6
		c0.4,0.4,0.6,0.9,0.6,1.5C9.7,14.1,9.5,14.6,9.1,15z"/>
        <path class="st0" d="M25.6,16c-1.3-1.3-3-2-4.8-2c-1.2,0-2.4,0.3-3.5,1c-0.6,0.4-1.2,0.8-1.6,1.4v-0.6c0-0.5-0.4-0.9-0.9-0.9
		c-0.5,0-0.9,0.4-0.9,0.9v2.6c0,0.5,0.4,0.9,0.9,0.9h2.6c0.5,0,0.9-0.4,0.9-0.9s-0.4-0.9-0.9-0.9H17c1-1.1,2.3-1.7,3.8-1.7
		c2.8,0,5.1,2.3,5.1,5.1s-2.3,5.1-5.1,5.1c-2,0-3.8-1.2-4.7-3c-0.2-0.4-0.7-0.6-1.1-0.4c-0.4,0.2-0.6,0.7-0.4,1.1
		c1.1,2.4,3.5,4,6.2,4c1.8,0,3.5-0.7,4.8-2c1.3-1.3,2-3,2-4.8C27.6,19,26.9,17.3,25.6,16z"/>
</g>
</svg>
