<?xml version="1.0" encoding="utf-8"?>
<!-- Generator: Adobe Illustrator 21.0.0, SVG Export Plug-In . SVG Version: 6.00 Build 0)  -->
<svg version="1.1" id="图层_1" xmlns="http://www.w3.org/2000/svg" xmlns:xlink="http://www.w3.org/1999/xlink" x="0px"
     y="0px"
     viewBox="0 0 200 200" style="enable-background:new 0 0 200 200;" xml:space="preserve">
<style type="text/css">
	.st0{fill:#68D9F9;}
</style>
    <path class="st0" d="M100.1,0C44.9,0,0.2,44.7,0.2,99.9s44.7,99.9,99.9,99.9S200,155.1,200,99.9S155.3,0,100.1,0z M160.3,72
	l-69.1,70.6c-0.2,0.4-0.5,0.7-0.8,1c-2.7,2.8-7.1,2.8-9.8,0l-34.3-34.9c-2.7-2.8-2.7-7.2,0-10c2.7-2.8,7.1-2.8,9.8,0l29.3,29.8
	L150.5,62c2.7-2.8,7.1-2.8,9.8,0C163,64.8,163,69.2,160.3,72z"/>
</svg>
