<?xml version="1.0" encoding="utf-8"?>
<!-- Generator: Adobe Illustrator 21.0.0, SVG Export Plug-In . SVG Version: 6.00 Build 0)  -->
<svg version="1.1" id="图层_1" xmlns="http://www.w3.org/2000/svg" xmlns:xlink="http://www.w3.org/1999/xlink" x="0px"
     y="0px"
     viewBox="0 0 28 28" style="enable-background:new 0 0 28 28;" xml:space="preserve">
<style type="text/css">
	.st0{fill:#FF6750;}
</style>
    <path class="st0" d="M8.7,19.6C7.8,21,7,21.1,6,20.5l-1.2-0.7c-1-0.6-1.4-1.9-0.8-2.9l2.8-5.1c0.6-1,1.9-1.4,2.9-0.8l0.9,0.5
	c0.8,0.4,1.2,1.3,1.1,2.2l2.1,0.8c0.9-1.5,0.3-3.5-1.2-4.4L9.7,8.6C8.2,7.8,6.2,8.3,5.4,9.9l-3.8,6.9c-0.9,1.5-0.3,3.5,1.2,4.4
	l2.8,1.6c1.5,0.9,3.5,0.3,4.4-1.2l1.5-2.7l-1.9-1L8.7,19.6z"/>
    <path class="st0" d="M19.2,10.4c0.2-1.6,0.8-2.1,2-2.1l1.4,0.1c1.2,0.1,2.1,1.1,2,2.2l-0.3,5.8c-0.1,1.2-1.1,2.1-2.2,2l-1.1-0.1
	c-0.9,0-1.7-0.7-1.9-1.5l-2.3,0.2c-0.1,1.8,1.3,3.3,3.1,3.4l3.2,0.2c1.8,0.1,3.3-1.3,3.4-3l0.4-7.9c0.1-1.8-1.3-3.3-3.1-3.4
	l-3.2-0.2c-1.8-0.1-3.3,1.3-3.4,3l-0.1,3.1l2.1,0.1L19.2,10.4z"/>
    <path class="st0" d="M15.1,19.3l-1.4-1.1l1.6,0.6L15.1,19.3z M13.6,20.7L13,19l1,1.5L13.6,20.7z M11.3,20l1.2-1.3l-0.8,1.6L11.3,20z
	"/>
    <path class="st0"
          d="M12.2,7.3l2.4,1.8L11.7,8L12.2,7.3z M14.7,5l0.9,2.9L14,5.4L14.7,5z M18.6,6.2l-2.1,2.1L18,5.7L18.6,6.2z"/>
</svg>
