<?xml version="1.0" encoding="utf-8"?>
<!-- Generator: Adobe Illustrator 17.0.0, SVG Export Plug-In . SVG Version: 6.00 Build 0)  -->
<!DOCTYPE svg PUBLIC "-//W3C//DTD SVG 1.1//EN" "http://www.w3.org/Graphics/SVG/1.1/DTD/svg11.dtd">
<svg version="1.1" id="图层_1" xmlns="http://www.w3.org/2000/svg" xmlns:xlink="http://www.w3.org/1999/xlink" x="0px"
     y="0px"
     width="612px" height="792px" viewBox="0 0 612 792" enable-background="new 0 0 612 792" xml:space="preserve">
<path fill="#403D3C" d="M206.04,230.76c-44.88,0-83.64,36.72-83.64,83.64c0,44.88,36.72,83.64,83.64,83.64s83.64-36.72,83.64-83.64
	C289.68,267.48,252.96,230.76,206.04,230.76L206.04,230.76z M342.72,463.32c-20.4-16.32-79.56-26.52-79.56-26.52
	s-38.76,46.92-55.08,46.92S153,436.8,153,436.8S91.8,447,71.4,463.32c-20.4,16.32-30.6,97.92-30.6,97.92h332.52
	C371.28,561.24,367.2,481.68,342.72,463.32L342.72,463.32z M571.2,355.2H422.28V396H571.2V355.2L571.2,355.2z M571.2,436.8H422.28
	v40.8H571.2V436.8L571.2,436.8z M571.2,520.44H422.28v40.8H571.2V520.44L571.2,520.44z"/>
</svg>
