<?xml version="1.0" encoding="utf-8"?>
<!-- Generator: Adobe Illustrator 21.0.0, SVG Export Plug-In . SVG Version: 6.00 Build 0)  -->
<svg version="1.1" id="图层_1" xmlns="http://www.w3.org/2000/svg" xmlns:xlink="http://www.w3.org/1999/xlink" x="0px"
     y="0px"
     viewBox="0 0 30 25" style="enable-background:new 0 0 30 25;" xml:space="preserve">
<style type="text/css">
	.st0{fill:#858387;}
</style>
    <path class="st0" d="M10.1,4.4C7.9,4.4,6,6.2,6,8.5c0,2.2,1.8,4.1,4.1,4.1s4.1-1.8,4.1-4.1C14.2,6.2,12.4,4.4,10.1,4.4L10.1,4.4z
	 M16.8,15.8c-1-0.8-3.9-1.3-3.9-1.3s-1.9,2.3-2.7,2.3s-2.7-2.3-2.7-2.3s-3,0.5-4,1.3S2,20.6,2,20.6h16.3
	C18.2,20.6,18,16.7,16.8,15.8L16.8,15.8z M28,10.5h-7.3v2H28V10.5L28,10.5z M28,14.5h-7.3v2H28V14.5L28,14.5z M28,18.6h-7.3v2H28
	V18.6L28,18.6z"/>
</svg>
