<svg xmlns="http://www.w3.org/2000/svg" width="240" height="240" viewBox="0 0 240 240">
  <defs>
    <style>
      .cls-1 {
        fill: #3084c7;
        fill-rule: evenodd;
      }
    </style>
  </defs>
  <path id="article-active" class="cls-1" d="M193.421,12H46.579A19.63,19.63,0,0,0,27,31.636V208.363A19.63,19.63,0,0,0,46.579,228H157.016a14.663,14.663,0,0,0,10.1-4.041l41.3-39.272A14.748,14.748,0,0,0,213,174V31.636A19.629,19.629,0,0,0,193.421,12h0ZM41.685,208.363V31.636a4.9,4.9,0,0,1,4.895-4.908H193.421a4.9,4.9,0,0,1,4.9,4.908V166.329H164.053a14.705,14.705,0,0,0-14.683,14.728v32.216H46.579a4.9,4.9,0,0,1-4.895-4.91h0Zm122.369-1.781V181.057H190.9Zm0,0M109.3,66.743a30.652,30.652,0,0,1,9.64-9.642,22.707,22.707,0,0,1,11.839-3.182q15.084,0,24.076,14.266t8.991,33.85a68.892,68.892,0,0,1-4.595,25.8,46.536,46.536,0,0,1-12.538,18.343,26.837,26.837,0,0,1-18.032,6.858,23.074,23.074,0,0,1-9.341-1.988,31.98,31.98,0,0,1-8.842-5.964v49.905H79.126V56.106H106.2Zm1.2,53.981a13.576,13.576,0,0,0,4,3.927,9.031,9.031,0,0,0,4.8,1.343q5.7,0,8.892-6.165t3.2-16.8q0-10.836-3.046-16.6t-8.042-5.766a7.958,7.958,0,0,0-7.343,4.225q-2.448,4.225-2.448,12.775v23.064Zm0,0"/>
</svg>
