<svg xmlns="http://www.w3.org/2000/svg" width="240" height="240" viewBox="0 0 240 240">
  <defs>
    <style>
      .cls-1 {
        fill: #3084c7;
        fill-rule: evenodd;
      }
    </style>
  </defs>
  <path id="column-active" class="cls-1" d="M87.72,18.991Q64.1,18.42,40.464,19c-13.367.34-21.322,8.259-21.715,21.709-0.446,15.32-.4,30.671-0.025,45.994,0.349,14.155,8.352,22.051,22.324,22.6,7.653,0.3,15.326.054,22.991,0.054v0.02q10.857,0,21.715,0c0.852,0,1.706.011,2.553-.053,12.138-.922,20.21-7.844,20.791-20.021,0.788-16.569.781-33.225,0.084-49.8-0.545-12.949-8.5-20.2-21.462-20.509h0ZM87.9,74.363C87.441,84.2,84.487,87.614,75.11,88.11a199.825,199.825,0,0,1-22.922-.037c-7.994-.5-11.485-3.956-11.99-12.049a186.607,186.607,0,0,1,.021-24.194c0.551-8.129,4-11.239,12.209-11.648,7.2-.359,14.443-0.28,21.655-0.05C84.615,40.467,87.451,43.4,87.908,53.973c0.147,3.393.023,6.8,0.023,10.2s0.128,6.8-.03,10.2h0Zm21.354,82.1c-1.219-14.915-10.389-24.558-25.342-25.5a311.967,311.967,0,0,0-39.573,0c-15.367.987-25.034,11.376-25.6,26.644-0.456,12.337-.448,24.718,0,37.056,0.553,15.269,10.452,25.964,25.472,26.833A357.557,357.557,0,0,0,83.8,221.5c14.637-.782,24.162-10.65,25.436-25.452,0.546-6.341.092-12.769,0.092-19.156h0.02c0-6.814.459-13.667-.095-20.435h0ZM87.868,187.573c-0.544,8.627-3.095,11.818-11.32,12.359a245.771,245.771,0,0,1-25.42-.006c-6.353-.245-10.474-3.912-10.775-10.334a223.886,223.886,0,0,1,.022-26.681c0.535-7.362,3.963-10.047,11.863-10.4,7.618-.344,15.272-0.328,22.892-0.029,9.209,0.361,12.127,3.276,12.729,12.2,0.255,3.8.042,7.631,0.042,11.448s0.207,7.647-.032,11.449h0Zm63.484-78.415c16.584,0.542,33.214.554,49.8-.007,11.934-.4,19.475-8.516,20.083-20.571,0.406-8.071.078-16.179,0.078-24.269h0.044q0-10.86,0-21.718c0-.852.023-1.706-0.03-2.556-0.8-12.848-8.1-20.647-20.953-21.006q-24.246-.678-48.525.006c-12.22.339-20.273,7.936-20.686,19.866-0.573,16.587-.542,33.22-0.045,49.812,0.36,11.986,8.307,20.055,20.238,20.444h0Zm25.46-69.09c23.117,0,23.431.321,23.435,23.629,0,24.029-.493,24.536-24.013,24.534-23.416,0-23.722-.756-24.269-24.49-0.6-25.76,5.1-24.1,24.847-23.674h0Zm44.5,114.118c-0.367-15.085-7.684-22.682-22.834-23.491-7.237-.386-14.511-0.067-21.768-0.067v0.021q-11.526,0-23.051.009a19.822,19.822,0,0,0-2.552.186c-12.226,1.621-19.672,8.9-20.014,21.006q-0.683,24.332,0,48.672c0.338,11.974,8.089,20.04,19.994,20.959a210.071,210.071,0,0,0,26.873.078c7.149-.368,11.887-5.488,11.556-11.2-0.309-5.35-4.607-9.316-11.453-9.947-4.663-.43-9.412.074-14.07-0.384-8.2-.808-11.354-3.967-11.785-12.266a222.618,222.618,0,0,1,0-23.049c0.436-8.429,3.606-11.757,11.67-12.165,8.089-.41,16.231-0.4,24.322-0.015,8.264,0.39,11.3,3.584,11.926,11.9,0.353,4.673-.17,9.419.263,14.079,0.64,6.9,4.512,10.554,10.458,10.562,6.018,0.01,9.946-3.546,10.339-10.552,0.454-8.09.314-16.225,0.117-24.333h0Zm0,0" transform="translate(0.031 -0.39)"/>
</svg>
