<?xml version="1.0" encoding="utf-8"?>
<!-- Generator: Adobe Illustrator 17.0.0, SVG Export Plug-In . SVG Version: 6.00 Build 0)  -->
<!DOCTYPE svg PUBLIC "-//W3C//DTD SVG 1.1//EN" "http://www.w3.org/Graphics/SVG/1.1/DTD/svg11.dtd">
<svg version="1.1" id="图层_1" xmlns="http://www.w3.org/2000/svg" xmlns:xlink="http://www.w3.org/1999/xlink" x="0px"
     y="0px"
     width="612px" height="792px" viewBox="0 0 612 792" enable-background="new 0 0 612 792" xml:space="preserve">
<g>
	<path fill="#403D3C" d="M567.12,391.92L567.12,391.92L489.6,365.4c-4.08-2.04-8.16-2.04-12.24,0v59.16L546.72,447
		c12.24,4.08,24.48-2.04,28.56-14.28l4.08-14.28C585.48,408.24,577.32,396,567.12,391.92z"/>
    <path fill="#403D3C" d="M283.56,257.28c-48.96,22.44-71.4,81.6-46.92,128.52s83.64,67.32,134.64,44.88l0,0
		c48.96-22.44,71.4-81.6,46.92-128.52C393.72,253.2,334.56,232.8,283.56,257.28z M348.84,398.04h-20.4V375.6H285.6v-10.2h42.84
		v-14.28H285.6v-12.24h36.72l-46.92-48.96h24.48c20.4,24.48,34.68,38.76,38.76,46.92l0,0c4.08-6.12,8.16-10.2,12.24-16.32
		l26.52-30.6l0,0h22.44l-44.88,48.96h36.72v10.2h-40.8v16.32h40.8v10.2h-40.8L348.84,398.04z"/>
    <path fill="#403D3C" d="M452.88,400.08L438.6,396c-12.24,24.48-32.64,42.84-57.12,55.08l0,0c-61.2,28.56-134.64,4.08-165.24-55.08
		s-4.08-130.56,57.12-157.08S408,234.84,438.6,294c12.24,24.48,16.32,51,8.16,77.52l14.28,4.08c4.08-4.08,8.16-8.16,14.28-8.16
		V253.2c0-30.6-26.52-55.08-57.12-55.08h-57.12c0-22.44-20.4-40.8-42.84-40.8h-87.72c-24.48,0-42.84,18.36-42.84,40.8h-59.16
		c-30.6,0-57.12,24.48-57.12,55.08v328.44c0,30.6,26.52,55.08,57.12,55.08H418.2c32.64,0,57.12-24.48,57.12-55.08V426.6l-6.12-4.08
		C459,418.44,452.88,410.28,452.88,400.08z M230.52,183.84h87.72c8.16,0,14.28,6.12,14.28,14.28s-6.12,14.28-14.28,14.28h-87.72
		c-8.16,0-14.28-6.12-14.28-14.28S222.36,183.84,230.52,183.84z M401.88,577.56h-255c-12.24,0-20.4-6.12-20.4-14.28
		s10.2-14.28,20.4-14.28h255c12.24,0,20.4,6.12,20.4,14.28l0,0C422.28,571.44,412.08,577.56,401.88,577.56z M401.88,502.08h-255
		c-12.24,0-20.4-6.12-20.4-14.28c0-8.16,10.2-14.28,20.4-14.28h255c12.24,0,20.4,6.12,20.4,14.28l0,0
		C422.28,495.96,412.08,502.08,401.88,502.08z"/>
</g>
</svg>
