<?xml version="1.0" encoding="utf-8"?>
<!-- Generator: Adobe Illustrator 17.0.0, SVG Export Plug-In . SVG Version: 6.00 Build 0)  -->
<!DOCTYPE svg PUBLIC "-//W3C//DTD SVG 1.1//EN" "http://www.w3.org/Graphics/SVG/1.1/DTD/svg11.dtd">
<svg version="1.1" id="图层_1" xmlns="http://www.w3.org/2000/svg" xmlns:xlink="http://www.w3.org/1999/xlink" x="0px"
     y="0px"
     width="100px" height="100px" viewBox="0 0 100 100" enable-background="new 0 0 100 100" xml:space="preserve">
<metadata><?xpacket begin="﻿" id="W5M0MpCehiHzreSzNTczkc9d"?>
    <x:xmpmeta xmlns:x="adobe:ns:meta/" x:xmptk="Adobe XMP Core 5.5-c014 79.151739, 2013/04/03-12:12:15        ">
   <rdf:RDF xmlns:rdf="http://www.w3.org/1999/02/22-rdf-syntax-ns#">
      <rdf:Description rdf:about=""
                       xmlns:xmp="http://ns.adobe.com/xap/1.0/"
                       xmlns:xmpGImg="http://ns.adobe.com/xap/1.0/g/img/"
                       xmlns:xmpTPg="http://ns.adobe.com/xap/1.0/t/pg/"
                       xmlns:stDim="http://ns.adobe.com/xap/1.0/sType/Dimensions#"
                       xmlns:xmpG="http://ns.adobe.com/xap/1.0/g/"
                       xmlns:dc="http://purl.org/dc/elements/1.1/">
         <xmp:CreatorTool>Adobe Illustrator CC (Windows)</xmp:CreatorTool>
          <xmp:CreateDate>2018-05-07T10:53:09+08:00</xmp:CreateDate>
          <xmp:Thumbnails>
            <rdf:Alt>
               <rdf:li rdf:parseType="Resource">
                  <xmpGImg:width>256</xmpGImg:width>
                   <xmpGImg:height>252</xmpGImg:height>
                   <xmpGImg:format>JPEG</xmpGImg:format>
                   <xmpGImg:image>/9j/4AAQSkZJRgABAgEASABIAAD/7QAsUGhvdG9zaG9wIDMuMAA4QklNA+0AAAAAABAASAAAAAEA&#xA;AQBIAAAAAQAB/+4ADkFkb2JlAGTAAAAAAf/bAIQABgQEBAUEBgUFBgkGBQYJCwgGBggLDAoKCwoK&#xA;DBAMDAwMDAwQDA4PEA8ODBMTFBQTExwbGxscHx8fHx8fHx8fHwEHBwcNDA0YEBAYGhURFRofHx8f&#xA;Hx8fHx8fHx8fHx8fHx8fHx8fHx8fHx8fHx8fHx8fHx8fHx8fHx8fHx8fHx8f/8AAEQgA/AEAAwER&#xA;AAIRAQMRAf/EAaIAAAAHAQEBAQEAAAAAAAAAAAQFAwIGAQAHCAkKCwEAAgIDAQEBAQEAAAAAAAAA&#xA;AQACAwQFBgcICQoLEAACAQMDAgQCBgcDBAIGAnMBAgMRBAAFIRIxQVEGE2EicYEUMpGhBxWxQiPB&#xA;UtHhMxZi8CRygvElQzRTkqKyY3PCNUQnk6OzNhdUZHTD0uIIJoMJChgZhJRFRqS0VtNVKBry4/PE&#xA;1OT0ZXWFlaW1xdXl9WZ2hpamtsbW5vY3R1dnd4eXp7fH1+f3OEhYaHiImKi4yNjo+Ck5SVlpeYmZ&#xA;qbnJ2en5KjpKWmp6ipqqusra6voRAAICAQIDBQUEBQYECAMDbQEAAhEDBCESMUEFURNhIgZxgZEy&#xA;obHwFMHR4SNCFVJicvEzJDRDghaSUyWiY7LCB3PSNeJEgxdUkwgJChgZJjZFGidkdFU38qOzwygp&#xA;0+PzhJSktMTU5PRldYWVpbXF1eX1RlZmdoaWprbG1ub2R1dnd4eXp7fH1+f3OEhYaHiImKi4yNjo&#xA;+DlJWWl5iZmpucnZ6fkqOkpaanqKmqq6ytrq+v/aAAwDAQACEQMRAD8A9JeavNWjeV9Gm1fV5vRt&#xA;odlUbvI5+zHGv7TN/adsVfMHnj8+vOvmG4ki064fRdKqRHb2rFZmXxknFHr7LQYE083nnnnkMs8j&#xA;SytuzuSzH5k4pWYq7FXYq7FXYq7FXYq7FXYq7FXYq7FXYq7FXYq7FXYq7FXYq7FXYq7FXYq7FVa0&#xA;vbyzmE9nPJbTr9mWF2Rx8mUg4q9V8gf85DeZ9FuIrXzDI+s6USFeSQg3cQ/mWQ/3lPB9z/MMUU+m&#xA;dG1nTda0u21TTZxcWN2gkhlXuD2IO4IOxB6HChG4q7FXyT+fXne48w+dbjT4pD+i9FdrW3jBPFpl&#xA;NJpCPHmOI9gMCQ80xS7FXYq7FXYq7FXYq7FXYq7FXYq7FXYq7FXYq7FXYq7FXYq7FXYq7FXYq7FX&#xA;Yq7FXYq7FXtH/ONfneew8wyeVrqQmw1QNJZqTtHdRryNPASRqa+4GKC+mcKHYq+AZ5pZ5pJpWLSy&#xA;sXkY9SzGpP34GSzFX2R+TnlTR9D8h6PPaQILzUbSG8vLviPVke4QS8S3Xigbio/twsWc4q7FXYq7&#xA;FXYq7FXYq7FXYq7FXYq7FXYq7FXYq7FXYq7FXYq7FXYq7FXYq7FXlH/ORXlbRrzyJd689ui6ppjw&#xA;NDdKoDsksyQtG7DqtJKivQjFIfKuBKfeQrqW188eX54zR01G1+kGZQR9INMVfceFi7FX5/YGTsVf&#xA;cP5ef8oB5Z/7ZVj/ANQyYWLIMVdirsVdirsVdirsVdirsVdirsVdirsVdirsVdirsVdirsVdirsV&#xA;dirsVdirz/8APz/yU2u/9Gn/AFGQ4qHx9gZJx5N/5S/Q/wDtoWv/ACfXFX3ThYuxV+f2Bk7FX3D+&#xA;Xn/KAeWf+2VY/wDUMmFiyDFUn82ebdE8q6NJq+sTelbIQiKo5SSSNXjHGtRyY0/idsVeN3H/ADlb&#xA;brMwt/LLyQg/A8l4I2I91EEgH/BYLTSn/wBDX/8Afrf9P/8A2bY2tO/6Gv8A+/W/6f8A/s2xtad/&#xA;0Nf/AN+t/wBP/wD2bY2tO/6Gv/79b/p//wCzbG1p3/Q1/wD363/T/wD9m2NrTv8Aoa//AL9b/p//&#xA;AOzbG1p3/Q1//frf9P8A/wBm2NrTv+hr/wDv1v8Ap/8A+zbG1p3/AENf/wB+t/0//wDZtja07/oa&#xA;/wD79b/p/wD+zbG1p3/Q1/8A363/AE//APZtja07/oa//v1v+n//ALNsbWnf9DX/APfrf9P/AP2b&#xA;Y2tO/wChr/8Av1v+n/8A7NsbWnf9DX/9+t/0/wD/AGbY2tO/6Gv/AO/W/wCn/wD7NsbWnf8AQ1//&#xA;AH63/T//ANm2NrTv+hr/APv1v+n/AP7NsbWmQeT/APnJPy3rWpRafqthJo0lwwSG4aUTwciaASPx&#xA;iKV8eNPGmFaewYodirz/APPz/wAlNrv/AEaf9RkOKh8fYGSceTf+Uv0P/toWv/J9cVfdOFi7FX5/&#xA;YGTsVfcP5ef8oB5Z/wC2VY/9QyYWLIMVfPX/ADlW179Y8uqa/UeFyVpWnq1jrXt9mlPpwFIeB4pd&#xA;irsVdirsVdirsVdirsVdirsVdirsVdirsVdirsVdirsVdir7p8mNeN5P0Jr7kb1tPtDdGT7fqmBO&#xA;fL35VrhYpxirz/8APz/yU2u/9Gn/AFGQ4qHx9gZJx5N/5S/Q/wDtoWv/ACfXFX3ThYuxV+f2Bk7F&#xA;X3D+Xn/KAeWf+2VY/wDUMmFiyDFUj84+TdD83aLJpOrxF4WIeKVCBJFIAQHjYg0O/wBIxV4vcf8A&#xA;OKc/qt9W8xqYT9n1LUhh7HjLQ/PBSbUv+hU9Q/6mOL/pFb/qpjS27/oVPUP+pji/6RW/6qY0tu/6&#xA;FT1D/qY4v+kVv+qmNLbv+hU9Q/6mOL/pFb/qpjS27/oVPUP+pji/6RW/6qY0tu/6FT1D/qY4v+kV&#xA;v+qmNLbv+hU9Q/6mOL/pFb/qpjS27/oVPUP+pji/6RW/6qY0tu/6FT1D/qY4v+kVv+qmNLbv+hU9&#xA;Q/6mOL/pFb/qpjS27/oVPUP+pji/6RW/6qY0tu/6FT1D/qY4v+kVv+qmNLbv+hU9Q/6mOL/pFb/q&#xA;pjS27/oVPUP+pji/6RW/6qY0tu/6FT1D/qY4v+kVv+qmNLbv+hU9Q/6mOL/pFb/qpjS27/oVPUP+&#xA;pji/6RW/6qY0tu/6FT1D/qY4v+kVv+qmNLbIvJ//ADjRoelajDf65qLauYGDx2axCGEspqPUq0jO&#xA;O9Nveowrb2fFDsVef/n5/wCSm13/AKNP+oyHFQ+PsDJOPJv/ACl+h/8AbQtf+T64q+6cLF2Kvz+w&#xA;MnYq+4fy8/5QDyz/ANsqx/6hkwsWQYq7FXYq7FXYq7FXYq7FXYq7FXYq7FXYq7FXYq7FXYq7FXYq&#xA;7FXYq7FXYq7FXn/5+f8Akptd/wCjT/qMhxUPj7AyTjyb/wApfof/AG0LX/k+uKvunCxdir8/sDJ2&#xA;KvuH8vP+UA8s/wDbKsf+oZMLFkGKuxV2KuxV2KuxV2KuxV2KuxV2KuxV2KuxV2KuxV2KuxV2KuxV&#xA;2KuxV2KuxV5/+fn/AJKbXf8Ao0/6jIcVD4+wMk48m/8AKX6H/wBtC1/5Prir7pwsXYq/P7Aydir7&#xA;h/Lz/lAPLP8A2yrH/qGTCxZBirD/AMzvzI0/yLoaXs0X1q+umMdhZhuPNlFWZmoaIlRX5gd8VeBT&#xA;/wDOSf5kyTM8bWUKMarEkFQo8AXZm/HAmlP/AKGP/Mz/AH/af9I6/wBcVp3/AEMf+Zn+/wC0/wCk&#xA;df64rTv+hj/zM/3/AGn/AEjr/XFad/0Mf+Zn+/7T/pHX+uK07/oY/wDMz/f9p/0jr/XFad/0Mf8A&#xA;mZ/v+0/6R1/ritO/6GP/ADM/3/af9I6/1xWnf9DH/mZ/v+0/6R1/ritO/wChj/zM/wB/2n/SOv8A&#xA;XFad/wBDH/mZ/v8AtP8ApHX+uK07/oY/8zP9/wBp/wBI6/1xWnf9DH/mZ/v+0/6R1/ritO/6GP8A&#xA;zM/3/af9I6/1xWnf9DH/AJmf7/tP+kdf64rTv+hj/wAzP9/2n/SOv9cVp3/Qx/5mf7/tP+kdf64r&#xA;Tv8AoY/8zP8Af9p/0jr/AFxWnf8AQx/5mf7/ALT/AKR1/ritMg8n/wDOTWvR6nFD5ot4LjTZWCy3&#xA;NuhjmiB/a41Kuo7igP6sVp9HwzRTRJNE4kikUPG6moZWFQQfAjChdirz/wDPz/yU2u/9Gn/UZDio&#xA;fH2BknHk3/lL9D/7aFr/AMn1xV904WLsVfn9gZOxV9w/l5/ygHln/tlWP/UMmFiyDFXz/wD85U6V&#xA;fMNC1VQzWMXrW0hH2Ukfi61/1wp/4HAUh8/YpdirsVdirsVdirsVdirsVdirsVdirsVdirsVdirs&#xA;VdirsVXRxySyLHGpeRyFRFBLMxNAAB1JxV90+UdPutO8qaLp92KXVnYWtvOK1/eRQqjb/MYWKbYq&#xA;8/8Az8/8lNrv/Rp/1GQ4qHx9gZJx5N/5S/Q/+2ha/wDJ9cVfdOFi7FX5/YGTsVfcP5ef8oB5Z/7Z&#xA;Vj/1DJhYsgxVDanpmn6pYzWGo28d3ZXC8ZoJVDIw69D4HcHtirzqX/nHP8sXkZ1tbmMMaiNLh+K+&#xA;w5cj95xTa3/oXD8s/wDfF3/0kN/TFbd/0Lh+Wf8Avi7/AOkhv6Yrbv8AoXD8s/8AfF3/ANJDf0xW&#xA;3f8AQuH5Z/74u/8ApIb+mK27/oXD8s/98Xf/AEkN/TFbd/0Lh+Wf++Lv/pIb+mK27/oXD8s/98Xf&#xA;/SQ39MVt3/QuH5Z/74u/+khv6Yrbv+hcPyz/AN8Xf/SQ39MVt3/QuH5Z/wC+Lv8A6SG/pitu/wCh&#xA;cPyz/wB8Xf8A0kN/TFbd/wBC4fln/vi7/wCkhv6Yrbv+hcPyz/3xd/8ASQ39MVt3/QuH5Z/74u/+&#xA;khv6Yrbv+hcPyz/3xd/9JDf0xW3f9C4fln/vi7/6SG/pitu/6Fw/LP8A3xd/9JDf0xW3f9C4fln/&#xA;AL4u/wDpIb+mK2nXlf8AJr8v/LV+uoWGnmW+jNYZ7l2mMZ8UDfCD/lUr74oZtirsVef/AJ+f+Sm1&#xA;3/o0/wCoyHFQ+PsDJOPJv/KX6H/20LX/AJPrir7pwsXYq/P7Aydir7h/Lz/lAPLP/bKsf+oZMLFk&#xA;GKuxV2KuxV2KuxV2KuxV2KuxV2KuxV2KuxV2KuxV2KuxV2KuxV2KuxV2KuxV5/8An5/5KbXf+jT/&#xA;AKjIcVD4+wMk48m/8pfof/bQtf8Ak+uKvunCxdir8/sDJ2KvuH8vP+UA8s/9sqx/6hkwsWQYq7FX&#xA;Yq7FXYq7FXYq7FXYq7FXYq7FXYq7FXYq7FXYq7FXYq7FXYq7FXYq7FXn/wCfn/kptd/6NP8AqMhx&#xA;UPj7AyTjyb/yl+h/9tC1/wCT64q+6cLF2Kvz+wMnYq+4fy8/5QDyz/2yrH/qGTCxZBirD/zS/MGD&#xA;yR5ZbUvTE99O/oafbsSFaUgnk9N+CAVPj074q+YNQ/OH8yr68e6fX7qFmNRFbt6MSjsAiUG3v9OB&#xA;L178kfzr1TXdTTyz5kdZr2VGOn34UI0hjUs0coWi14glWAHTffCpD3HFCRedvOOl+UPL0+tajVo4&#xA;yEhgSnOWV/sRrXxoSfAAnFXzlqX/ADkr+YVxemazFpY2wY8LZYvV+HsHdyWJ9xx+WBNPVPyh/O2L&#xA;zjcHRtWgjs9cVC8JiJ9G4VBV+AYkq6jfjU7b4VerYoSPzp5w0ryj5fn1rUiTFFRIYVpzllb7EaV7&#xA;mn0CpxV85ap/zkr+YNzeGWyW0sLYNVLdYvVPHwd5Kkn3AGBNPUvyh/O5PON0dF1eCO01wI0kDw1E&#xA;NwqbsFVizK6rvSpqKnbphWnq+KHYq7FXYq7FXYq7FXYq7FXYq7FXYq8//Pz/AMlNrv8A0af9RkOK&#xA;h8fYGSceTf8AlL9D/wC2ha/8n1xV904WLsVfn9gZOxV9w/l5/wAoB5Z/7ZVj/wBQyYWLIMVeGf8A&#xA;OVOm3kuj6DqMYJtLSeeG4p0DzqhjJ/5EsMCQ+ccUs3/JXS73UPzM0RbUH/RZvrU7josUILMT7HZf&#xA;pxQX2VhQ8R/5yms76Ty7o11GpNnb3Ui3NK0DyIPTJ/4FhX3xSHzZgSzX8l7S/ufzN0IWXIPFP60z&#xA;L2hRSZa+zLVfpxQ+zMKHin/OUtnfyeWNIuogTZW924uQOgeSOkTH/gWH04pD5pwJZn+TllfXX5l6&#xA;CtmrF4rkTSstfhhjBaQk9hxqPpxQ+zsKHYq7FXYq7FXYq7FXYq7FXYq7FXYqwD8+lJ/KbXQBU/6K&#xA;dvAXkJOKh8e4GSceTAT5w0IAVJ1C0AA/4zpir7pwsXYq/P7Aydir7h/Lz/lAPLP/AGyrH/qGTCxZ&#xA;BiqE1fSNN1jTZ9N1KBbmxuV4TQv0I69twQdwRuDirxu+/wCcWfL8t20llrVzbWrGogkiSVlFeges&#xA;f0VGKbei+Qvy18s+SbN4dJjZ7qcAXV9OQ00lNwKgAKo/lUfOpxQyrFUJq2k6bq+nT6bqVul1Y3K8&#xA;J4JBUMPo3BHUEbg9MVeOaj/ziz5dmu2ksNZubS2Y1EEkaTFfYPWPb5g4pt6B5A/LDyx5It5BpaPN&#xA;e3AC3N/OQ0rqN+AoAqpXegHzrihl2KoXVNL0/VtPn07UYEurK6QpPA4qrKfxBB3BG4OKvG9R/wCc&#xA;WfLs120lhrNzaWzGogkjSYr7B6x7fMHFNs/8gfld5X8kwSfoyN5r6cBbjULghpmUb8BQBUWvYD51&#xA;pihl+KuxV2KuxV2KuxV2KuxV2KuxV2KuxVAa9otjrmjXmkX6lrS+iaGXjswDD7Sk1oynce+KvlTz&#xA;L+QX5h6RfPFZ2J1azJPo3dqV+IduUZbmh8e3ucCbZz+Tv5E65p+u23mLzRGtqLJvVstO5LJI0w+x&#xA;JIULKoT7QFa1607q2+gcKHYq/P7Aydir7h/Lz/lAPLP/AGyrH/qGTCxZBirsVdirsVdirsVdirsV&#xA;dirsVdirsVdirsVdirsVdirFvzF/MHS/I+hfpK8ja4nmf0rK0Q8TLJQndqHioAqWp+OKvmfzP+en&#xA;5ia7K/DUW0q0NeFtYVhoK95R+9J/2VPbAmki0D8wvN+iaxDqltqlzJJG4eWGWaR45lrVklUt8St3&#xA;/ril9leWPMemeZNDtNZ02QSWt0gYD9pG/bjfwZG2OFimmKpd5h1/TPL+jXWr6nKIrO0QvI3cnoqK&#xA;O7MdgPHFXxr5n/Mbzb5g1qfVLjUbiH1HJgtoZXSKFK/CkaqQBQAb9T1O+BknnlT89PzA0CdPWv31&#xA;ayBHqWt8TKSv+TMayKfDentiin095E88aR5z0GPV9N5J8RiubaSnOGVQCUanXrUHuPuwoZDirsVd&#xA;ir8/sDJ2KvuH8vP+UA8s/wDbKsf+oZMLFkGKuxV2KuxV8nefvzx87al5gu00nUZNM0q3maO0htiE&#xA;ZlRiA8j05EvStK0HTAmnp35C/mxqnmdrrQdfmWfU7aP17S6oqNNEDxdXC0BZCRuBuOvSpKl7Hih2&#xA;Kvl380/zy80XvmO70/y7qD6fo9lI0MUlsQrzsho0pkHxcSa8QpApgTTMPyB/NfzH5h1S58u69N9d&#xA;eO3NzaXjKBIBGyq0blQOVedQTv8APFS9ywodirsVdirsVdirsVeNf85RaekvkvTb6lZLW/WOvgk0&#xA;UnL/AIaNcUh8x4EuxVkvkr8xPNXk26abRbrjDKQbiymHO3kp3ZKih/ylIPvir0tv+cqPMH1biuh2&#xA;gue8plkMfT/fex6/5eNop5r50/MXzX5xuFk1q65QRGsFlCPTgjJ7qlTU/wCUxJ98UsZxV2Kvqn/n&#xA;GvQ/qP5fnUmaravcySqK7BIT6AFPHlG2FBesYodirsVfn9gZOxV9w/l5/wAoB5Z/7ZVj/wBQyYWL&#xA;IMVdirsVdir5A/PLyW3lnzzcvCnHTtWLXtmQPhBdv3sf+wft/KRgSGK+UPMl15a8y6frdtUyWUwd&#xA;0BpzjPwyR/7NCVxS+4dO1C11HT7bULR/UtbuJJ4JB+0kihlP3HCxYX+dXnT/AAt5Gu5YH46jqFbK&#xA;xoaMrSKecg/1EqQf5qYq+OsDJ9G/84x+SzbadeebbpaS3tbTT69oUasr/wCykUL/ALE+OKC90wod&#xA;irsVdirsVdirsVeCf85SeZbU2Wk+W4pA9z6xv7lB1RVRooq/63qP92BIfPOKXYq7FXYq7FXYq7FX&#xA;1R/zjf5ntNR8irovMC+0aWRHiJ+IwzSNKj/Lk7L9GFBes4odirsVfn9gZOxV9w/l5/ygHln/ALZV&#xA;j/1DJhYsgxV2KvM/z689av5U8q240h/QvtSnMAugAWijVCzlK/tnYA9t+9MUh8xv5185O5d9e1Fm&#xA;Y1Zjdzkkn/Z4EoLUNa1jUvT/AEjfXF76VfS+sSvLx5Urx5k0rQVxVB4qmdt5o8zWsCW9rq97Bbxi&#xA;kcMVxKiKPBVVgBiqhqGtaxqXp/pG+uL30q+l9YleXjypXjzJpWgriqDxVM7bzR5mtYEt7XV72C3j&#xA;FI4YriVEUeCqrADFXp35G/mh5qj85WWhajfz6jpmps0Xp3LtM0UnEsjxs/JgKihWtN69cUF9QYUO&#xA;xV2KvK/zn/ONvJoh0nSEjn124QSu0o5RwRE0BZQRV3oeI7dT2qpebaN/zk/5xtV4apYWmogf7sXl&#xA;byH5lS6fcmBaX63/AM5QebLu1aHStOttMkcUNwxa4dfdAwRAf9ZTitPINQ1G+1K9mvr+d7m8uGLz&#xA;Tyks7Me5JxSh8VdiqZ6P5Y8x603HSdMur+mzG3heRR82UED6cVZD/wAqY/ND0vV/w/ccfDlFy60+&#xA;zz5fhihj+s+V/MmiMBq+l3VhXZWuIXjVv9VmHFvoOKUrxV2Kpn5d8ya15c1WLVdHuWtbyKoDruGU&#xA;9UdTsynwOKvaNK/5yquUt1TVdASa4AHKa2nMaMf+MbpIR/wZxtFJZ5g/5yg803a+nomnW+lqessr&#xA;G6l+iqxoPpQ4rTP/AMlfzln83vLouuCOPW4VMsE0Y4JcRD7Q49nT26j5HCr5YwJdir7h/Lz/AJQD&#xA;yz/2yrH/AKhkwsWQYq7FWNfmB5E0rzroDaTfs0LK4mtbpAC8UqggMAeoIJBHf574q8b/AOhU9Qqf&#xA;+dihpX4T9Vbce/7zBSbd/wBCp6h/1McX/SK3/VTGltCax/zjHfabpN7qLa/FKtlby3BjFswLCJC/&#xA;GvqGlaYrbxLFL0T8sPyeufPlhe3cOppYCylWIo8Rl5cl5VqHSmKGaf8AQqeof9THF/0it/1Uxpbd&#xA;/wBCp6h/1McX/SK3/VTGltmf5ZfkLp/k/Wf01fX/AOk9QiVlswsfpRRcwVZ6FnLNxNB0Aqdq0IK2&#xA;9WxQ7FXYq+HfP2uza95z1jVJWLevdSCKvaJDwiXfwjUDAySDFXYq7FVW1tbm7uYrW1iae5ndY4YY&#xA;wWd3Y0VVA6knFX0l+Wn/ADjvpWnQxal5uRb/AFI0ddNrytofaT/freP7Pz64UW9mt7e3toUgt4kh&#xA;gjHGOKNQiKPAKKAYoVMVWTwQzwvDPGssMgKyRuAysD1BB2IxV45+ZP8Azjxo2qwS6j5UjTTdUA5G&#xA;wHw2s1P2VHSJvCnw+w64pt81X1jeWF5NZXkL293buY54ZBxZHU0IIOBKjirsVdiqdeStfl8v+bNK&#xA;1mNios7lHlp3iJ4yr/so2YYqkuKuxV9w/l5/ygHln/tlWP8A1DJhYsgxV2KuxV2KuxVJ/OX/ACh+&#xA;u/8AbPuv+TD4q+FsDJ9I/wDOK/8AxwNc/wCYuL/k3iEF7hhQ7FXYq7FXYq7FXzh+aX/OPuuJqN/r&#xA;vlil9aXEj3MumDa4jZyWcRCnGRQT8I+12o2BNvDnR0dkdSrqSrKwoQRsQQcUtYq7FX0L/wA41fl/&#xA;B9Wl8538YeV2e30lWFQqqeMsw9y1UHhRvHFBe+YUOxV2KuxV2KvC/wDnJP8AL6CfTV85WMYW6tSk&#xA;OqBQB6kLHhHKfFkYhfkf8nAkPnLFLsVcqliFUVY7ADqTir2P8vf+cddd1c22o+ZW/RmlsQ5st/rc&#xA;idaEdIg3v8Xtii3jmKXYq+4fy8/5QDyz/wBsqx/6hkwsWQYq7FXnv51/mFf+S/LEU2mKv6T1CX6v&#xA;bSuAyxAKWeTidmYbBQdt9+lCq+cW/OH8zWYsfMN1UmpoVA38AFpgS1/yt/8AMz/qYbv/AIJf6Yqp&#xA;XP5rfmLdW0ttca9dSQTo0c0bFaMjjiynbuDirFMUp35f87ea/L0MsOianNYRTsHmSIgBmAoCag9s&#xA;VTX/AJW/+Zn/AFMN3/wS/wBMUO/5W/8AmZ/1MN3/AMEv9MVeifkv+c/mu8812vl/X7o6jZ6iWjgn&#xA;kVfVil4ll+JQOStTjQ4q+jcKHYq7FXYq+dP+cmvJGn2Utl5qsYlhe+lNtqKqKK8xUvHJQbcmVGDe&#xA;NB74Eh4Til2KvuXyLpkWl+TNEsIwAsFlAGp3cxhnb/ZMScLFPMVdirsVdirsVSvzVpkWq+WdV02U&#xA;Apd2k0Jr2LxkA/Qd8VfCWBk7FXsP/ONnk2y1jzJea3fRiWLRFia1jYVX6zKWKPv19MRkj3IPbFBf&#xA;UGFD8/sDJ2KvuH8vP+UA8s/9sqx/6hkwsWQYq7FWIfmf+Xlr558u/o15vqt5byCeyuuPILIAVKsN&#xA;iUYGhp7HtTFXhx/5xd8/VNNQ0ojsTLc/9k+BNtf9Cu+f/wDq4aV/yOuf+yfFbQ2p/wDONnnnTtNu&#xA;9QnvtMaGzhkuJVSW4LFYlLsFBgArQbb4rbyjFLNvIH5SeY/PFnd3ek3NnBHZyLFKLt5UYsy8hx9O&#xA;KXbFDKv+hXfP/wD1cNK/5HXP/ZPitu/6Fd8//wDVw0r/AJHXP/ZPits5/Kn8grryvr0eva9eQXN3&#xA;acvqVtac2iVnUqZHeRYySFY0HHrvXCtvaMUOxV2KuxV88/8AOT3nGyuH0/yrayCSa0k+uX/E7I5Q&#xA;pEh/yuLsT4VHjgSHgmKXYq+5/JWoQ6j5P0W+iNUuLG3frWh9NeSn3Vqg4WKdYq7FXYq7FXYql3mP&#xA;UY9N8v6nqMjcY7O1mnY1oaRxltvfbFXwfgZOxV7b/wA4v+ZrSy13U9BuXCPqkcctnyoOUlvz5IPd&#xA;kev+xxQX0phQ/P7Aydir7h/Lz/lAPLP/AGyrH/qGTCxZBirsVdirsVdiqT+cv+UP13/tn3X/ACYf&#xA;FXwtgZPpH/nFf/jga5/zFxf8m8QgvcMKHYq7FXYq7FXYq+efzJ/5yM1Bbq90XytALZYXeB9Wl+KQ&#xA;lSVYwx04ruNmavyGBNPB555p5nnnkaWaVi8srkszMxqWZjuSTilZirsVfR3/ADjT59huNMl8n3kg&#xA;W6tC9xpnI/bhc8pIxX9pHJb5H/JxQXueFDsVdirsVdirxX/nJLz7DYaEnlOzkBv9S4yXwU7x2yNy&#xA;CnwMjqP9iD44pD5owJdiq+3uJ7eeO4t5GhnhYPFKhKsrKaqysNwQcVe9flv/AM5HXsl3aaR5tiSS&#xA;OVlhXV4vgdWY0Vp4x8JFerLSngcUU8CxS7FX3D+Xn/KAeWf+2VY/9QyYWLIMVdirsVdirsVS7zHZ&#xA;T33l7VLKAAz3VpPDEDsC8kTKv4nFXwjNDLDK8MyNHLGxSSNgQyspoQQehBwMn0v/AM4u2F3D5U1S&#xA;8liKW93dgWznbn6ScXK+wY0r418MKC9oxQ7FXYq7FXYq7FXw5590OXQvOesaXIKfV7qT0veJzzib&#xA;6Y2BwMkhxV2KuxVEadqF7pt9Bf2MzW95bOJYJkNGV1NQRir6h/LP8/NB8wwRafr8kel62AF5ueFt&#xA;OfFHOyMf5WPyJwop6wCCAQag7gjFDsVcTTc9MVeWfmR+fPl3y3BLZaLJHq2uEFQsbcreFunKV12Y&#xA;g/sKa+JGKafLeq6rqGrajcalqM7XN7dOZJ5n6sx/AAdABsBgShcVdirsVTXypos2t+ZdM0mEVe9u&#xA;Yoj7KzDmx9lWpOKpVirsVfcP5ef8oB5Z/wC2VY/9QyYWLIMVdirsVdirsVdirGtZ/LTyHrWofpDU&#xA;9Ftri9Jq8/Eozkd5OBUP/sq4qyC0tLWzto7W0hS3toVCQwRKERFHQKq0AGKquKuxV2KuxV2KuxV5&#xA;F+eH5P3nm0wa3oKodat09G4t3YRi4iBqlGYhQ6En7XUd9hikPJNK/wCcevzOvqmWxh09a0DXU6Cv&#xA;0Req34YFtX1b/nHH8yNPgeaGO01HgORjtJiXIHgsyQ1+QxW3mVxbz288lvcRtDPCxSWJwVZWU0ZW&#xA;U7gg4pWYq7FWR+X/AMxfPHl+NYtI1m5t4E+xblhLCPlFKHjH3YqyT/oYP81OHH9KR1pTn9Vt6/P7&#xA;FPwxRTHNf/Mjz1r8bRatrVzPA9edurCKJq+MUQRD92KWN4q7FUVpelalqt/FYabbSXd5OeMUESlm&#xA;J/oO5xV6bYf840fmNcwiSZ9PsnIH7med2cV/4wxzL/w2KLQOp/8AOPX5oWcnGGwhv0rT1ba4i47+&#xA;0xhb/hcVt6x+Sn5LXXlW5fXtf9NtZZDHaW0bB1t0cUdiw2MjD4fh2Arua7FXy+ysrFWBVlNGU7EE&#xA;djgS1ir7W/KnVbHUvy78vy2kokW3sYLSYAiqzW8axSKw7Gq/dvhYsrxV2KuxV2KuxV2KuxV2KuxV&#xA;2KuxV2KuxV2KuxV2KuxV86/85QeVbK2u9M8x20YjnvS9rfFRQO8ahonNP2uPIE+AHhgSHhGKXYq7&#xA;FXYq7FXYq7FX09/zjV5Rs7Hym/mR4w1/q0kkcUx3K20LmPgPDlIjFvHbwwoL2PFDsVdir41/OTyh&#xA;N5Z8+ahCIytjfO17YPT4THMxZlH/ABjeq/7eBLCMUo/SvMGv6QZDpOpXWnGWglNpPJByp05emy1x&#xA;VMf+Vh+f/wDqZtV/6Trn/mvFXf8AKw/P/wD1M2q/9J1z/wA14q7/AJWH5/8A+pm1X/pOuf8AmvFX&#xA;f8rD8/8A/Uzar/0nXP8AzXirv+Vh+f8A/qZtV/6Trn/mvFXf8rD8/wD/AFM2q/8ASdc/814q7/lY&#xA;fn//AKmbVf8ApOuf+a8Vd/ysPz//ANTNqv8A0nXP/NeKu/5WH5//AOpm1X/pOuf+a8Vd/wArD8//&#xA;APUzar/0nXP/ADXirv8AlYfn/wD6mbVf+k65/wCa8Vd/ysPz/wD9TNqv/Sdc/wDNeKu/5WH5/wD+&#xA;pm1X/pOuf+a8Vd/ysPz/AP8AUzar/wBJ1z/zXirv+Vh+f/8AqZtV/wCk65/5rxV6z+Sn51+YLrzB&#xA;beW/Mlyb6C+Pp2V7JT1o5qVVHYfbV+m+9ab0xQQ+iMKHzj/zlH5kWfV9K8vRD/eKJru4bxef4UX/&#xA;AGKoT/ssCQ8MxS7FU58r+T/Mfmm/+o6HZPdzChlcUWONT+1JI1FUfM79sVelL/zi955NtzOoaas5&#xA;FfR5zEA+BYRdcUW8582+R/M3lO9Fprlm1uXr6EwIeGUDuki/CfcdR3GKUixV2Kvqr/nG3X4b/wDL&#xA;8aWNp9HuJI3X/Indp0b6Wdh9GFBer4odirsVYr+Yv5e6R530Q2F7+5u4avYXqirwyEeH7SN+0vf5&#xA;0OKvkzzl+XnmvyjdtDq9kywVpDfRgvbyCtAVkAoD/ktRvbAyY3irsVdirsVdirsVdirsVdirsVdi&#xA;rsVdirsVdirsVZ/+SHlTUtc8/wCm3EEbfUtKmS9vLmhCIIjyRa/zO4AA8KnoDigvsLCh5j+cH5Nx&#xA;edhHqenTLaa9bR+kpkr6U8YJZUcjdWBY0ah8D2opfNfmTyH5v8tysms6VPbRqaC4484G/wBWZOUZ&#xA;+/AlAaBoOp69q9tpOmQme8unCRqOgr1Zj2VRuT2GKvtTyV5O0nyloFvo+nIAsYDXE9AHmmI+OV/c&#xA;/gNsLFPcVSbzd5U0nzVoNzo+pxh4Z1PpS0BeKUA8JUPZl/Hp0OKvinzH5e1Py9rV1pGpxGK7tXKM&#xA;CDRh+y6E9VYbg4GSZ+Vfy485+aJUXSNMlkt3NDeyAx26juTK1FNPBan2xV9T/lX+W1t5F0OS0E/1&#xA;rULxllvrgCiclWipGOvFamhO5r9ALFmuKuxV2KuxVTufq31eT61w+r8T6vq04ce/LltT54q8z1f/&#xA;AKF29Vvrn6B9Xl8foelXlv19D8ffFKX/APWM/wD2qv8Akpirv+sZ/wDtVf8AJTFXf9Yz/wDaq/5K&#xA;Yq7/AKxn/wC1V/yUxV3/AFjP/wBqr/kpirv+sZ/+1V/yUxV3/WM//aq/5KYq7/rGf/tVf8lMVd/1&#xA;jP8A9qr/AJKYq7/rGf8A7VX/ACUxV3/WM/8A2qv+SmKu/wCsZ/8AtVf8lMVd/wBYz/8Aaq/5KYq7&#xA;/rGf/tVf8lMVbT/oWjmtP0TWopy50+mu334q9J8sf4W/RMf+GPqf6Lr8H1D0/S5d/wC725eNd/HF&#xA;CbYq7FWm48Typxp8VelPfFUHp36F5Tfo36ty5f6R9X9OvL/L4d/niqNxV2KuxVBX36F9aH6/9W9b&#xA;f6v6/p8vfhz3+7FUbirsVdirsVdir//Z</xmpGImg:image>
               </rdf:li>
            </rdf:Alt>
         </xmp:Thumbnails>
          <xmpTPg:MaxPageSize rdf:parseType="Resource">
            <stDim:w>100.000000</stDim:w>
              <stDim:h>100.000000</stDim:h>
              <stDim:unit>Points</stDim:unit>
         </xmpTPg:MaxPageSize>
          <xmpTPg:NPages>1</xmpTPg:NPages>
          <xmpTPg:HasVisibleTransparency>False</xmpTPg:HasVisibleTransparency>
          <xmpTPg:HasVisibleOverprint>False</xmpTPg:HasVisibleOverprint>
          <xmpTPg:PlateNames>
            <rdf:Seq>
               <rdf:li>Cyan</rdf:li>
                <rdf:li>Magenta</rdf:li>
                <rdf:li>Yellow</rdf:li>
                <rdf:li>Black</rdf:li>
            </rdf:Seq>
         </xmpTPg:PlateNames>
          <xmpTPg:SwatchGroups>
            <rdf:Seq>
               <rdf:li rdf:parseType="Resource">
                  <xmpG:groupName>默认色板组</xmpG:groupName>
                   <xmpG:groupType>0</xmpG:groupType>
               </rdf:li>
            </rdf:Seq>
         </xmpTPg:SwatchGroups>
          <dc:format>image/svg+xml</dc:format>
      </rdf:Description>
   </rdf:RDF>
</x:xmpmeta>


    <?xpacket end="w"?>
	</metadata>
    <path id="形状_6_拷贝" fill="#403D3C" d="M87.778,66.065c-0.155,0.199-0.36,0.352-0.594,0.446
	c-0.785,0.262-1.483,0.737-2.014,1.372c-0.543,0.615-0.841,1.408-0.837,2.228c-0.014,0.767,0.233,1.515,0.7,2.123
	c0.473,0.606,1.114,1.059,1.844,1.3c0.16,0.083,0.313,0.179,0.458,0.285c0.274,0.205,0.474,0.492,0.572,0.82
	c0.051,0.344,0.037,0.695-0.04,1.034c-0.08,0.423-0.207,0.836-0.38,1.23c-0.168,0.399-0.385,0.776-0.645,1.123
	c-0.217,0.302-0.504,0.547-0.837,0.713c-0.248,0.129-0.521,0.202-0.8,0.215c-0.259-0.005-0.516-0.053-0.759-0.142
	c-0.313-0.084-0.631-0.151-0.951-0.2c-0.385-0.058-0.775-0.07-1.163-0.036c-0.399,0.037-0.793,0.114-1.177,0.23
	c-0.383,0.112-0.73,0.321-1.007,0.607c-0.58,0.535-0.957,1.253-1.069,2.034c-0.104,0.743,0.016,1.501,0.344,2.176
	c0.254,0.455,0.209,1.018-0.114,1.427c-0.207,0.235-0.451,0.433-0.723,0.588c-0.348,0.214-0.711,0.401-1.086,0.562
	c-0.4,0.169-0.815,0.301-1.239,0.393c-0.375,0.086-0.758,0.133-1.143,0.14c-0.238-0.005-0.466-0.093-0.645-0.249
	c-0.181-0.143-0.325-0.326-0.42-0.536h-0.041c-0.292-0.755-0.786-1.415-1.427-1.908c-0.664-0.532-1.492-0.815-2.342-0.8
	c-0.848-0.006-1.673,0.276-2.34,0.8c-0.653,0.476-1.161,1.124-1.467,1.872c-0.112,0.269-0.314,0.49-0.572,0.625
	c-0.258,0.132-0.545,0.199-0.835,0.195c-0.406-0.007-0.81-0.067-1.2-0.18c-0.453-0.122-0.898-0.271-1.333-0.446
	c-0.421-0.166-0.823-0.376-1.2-0.626c-0.304-0.191-0.574-0.431-0.8-0.711c-0.128-0.17-0.201-0.375-0.21-0.588
	c0.017-0.334,0.115-0.659,0.286-0.946c0.285-0.581,0.397-1.231,0.324-1.874c-0.082-0.743-0.427-1.432-0.971-1.944
	c-0.352-0.356-0.802-0.598-1.293-0.695c-0.475-0.105-0.961-0.147-1.447-0.125c-0.555,0.027-1.105,0.124-1.637,0.287
	c-0.709,0.185-1.457-0.111-1.849-0.73c-0.249-0.361-0.466-0.743-0.648-1.142c-0.188-0.412-0.335-0.842-0.438-1.284
	c-0.096-0.354-0.122-0.724-0.076-1.088c0.024-0.458,0.326-0.855,0.761-1c0.786-0.303,1.489-0.786,2.054-1.41
	c0.58-0.584,0.908-1.372,0.913-2.195c0.006-0.82-0.324-1.606-0.913-2.176c-0.576-0.598-1.277-1.062-2.052-1.359
	c-0.249-0.089-0.452-0.274-0.565-0.513c-0.147-0.255-0.226-0.543-0.23-0.837c0.006-0.35,0.057-0.699,0.152-1.036
	c0.101-0.38,0.235-0.75,0.4-1.107c0.16-0.344,0.351-0.673,0.572-0.981c0.184-0.267,0.423-0.491,0.7-0.659
	c0.176-0.112,0.384-0.162,0.592-0.142c0.213,0.028,0.423,0.076,0.627,0.142c0.759,0.286,1.577,0.378,2.38,0.268
	c0.817-0.104,1.581-0.458,2.188-1.015c0.305-0.29,0.534-0.652,0.665-1.052c0.136-0.399,0.225-0.812,0.266-1.232
	c0.04-0.366,0.04-0.734,0-1.1c-0.036-0.335-0.069-0.571-0.094-0.713c-0.057-0.163-0.102-0.33-0.134-0.5
	c-0.04-0.168-0.02-0.345,0.056-0.5c0.181-0.365,0.466-0.668,0.819-0.872c0.401-0.254,0.829-0.464,1.275-0.626
	c0.434-0.158,0.88-0.283,1.333-0.374c0.338-0.073,0.682-0.115,1.027-0.126c0.291-0.016,0.575,0.093,0.781,0.3
	c0.175,0.179,0.311,0.392,0.4,0.626c0.305,0.673,0.777,1.256,1.371,1.695c0.644,0.491,1.436,0.749,2.246,0.732
	c0.84,0.014,1.663-0.231,2.36-0.7c0.653-0.425,1.159-1.042,1.447-1.766c0.126-0.221,0.286-0.419,0.476-0.588
	c0.175-0.184,0.415-0.292,0.668-0.3c0.391,0.004,0.781,0.051,1.161,0.142c0.422,0.095,0.836,0.226,1.235,0.393
	c0.403,0.161,0.781,0.377,1.125,0.642c0.319,0.237,0.596,0.527,0.819,0.856c0.126,0.182,0.167,0.409,0.114,0.623
	c-0.031,0.166-0.082,0.327-0.152,0.481c-0.328,0.675-0.435,1.437-0.306,2.176c0.301,1.638,1.686,2.855,3.349,2.944
	c0.846,0.066,1.696-0.075,2.476-0.41c0.484-0.251,1.072-0.18,1.483,0.178c0.443,0.426,0.786,0.944,1.007,1.517
	c0.286,0.654,0.484,1.344,0.59,2.05C88.05,65.447,87.977,65.791,87.778,66.065z M77.86,67.065c-0.423-0.93-1.024-1.768-1.771-2.465
	c-0.77-0.715-1.669-1.278-2.648-1.659c-1.029-0.407-2.126-0.613-3.233-0.607c-1.102-0.007-2.195,0.199-3.218,0.607
	c-0.97,0.385-1.86,0.947-2.623,1.659c-0.744,0.698-1.345,1.534-1.767,2.463c-0.863,1.916-0.863,4.109,0,6.025
	c0.428,0.931,1.029,1.773,1.771,2.479c0.761,0.72,1.652,1.289,2.626,1.676c1.022,0.408,2.114,0.614,3.215,0.607
	c1.107,0.006,2.204-0.2,3.233-0.607c0.982-0.383,1.882-0.952,2.648-1.676c0.744-0.705,1.345-1.547,1.771-2.479
	c0.859-1.917,0.857-4.11-0.005-6.025L77.86,67.065z M44.519,52.083c-1.455,0.044-2.671-1.098-2.719-2.553l0,0
	c0.1-1.503,1.4-2.641,2.903-2.541c1.364,0.091,2.451,1.177,2.541,2.541l0,0C47.196,50.987,45.976,52.13,44.519,52.083z
	 M22.745,49.53L22.745,49.53c-0.096-1.504,1.045-2.8,2.548-2.896c1.504-0.096,2.8,1.045,2.896,2.548
	c0.096,1.504-1.045,2.8-2.548,2.896c-0.058,0.004-0.116,0.006-0.174,0.006C24.01,52.129,22.792,50.987,22.745,49.53z M34.993,52.083
	c-1.456,0.045-2.673-1.097-2.721-2.553l0,0c0.1-1.503,1.4-2.641,2.903-2.541c1.364,0.091,2.451,1.177,2.541,2.541l0,0
	C37.668,50.987,36.449,52.13,34.993,52.083L34.993,52.083z M27.018,64.137c-0.926,0.06-1.726-0.643-1.786-1.569
	s0.643-1.726,1.569-1.786c0.072-0.005,0.145-0.005,0.217,0h2.965L28.91,58.53c-0.376-0.807-0.027-1.766,0.779-2.142
	c0.046-0.021,0.093-0.041,0.141-0.058c0.889-0.391,1.927-0.01,2.352,0.863l1.687,3.594h3.067l1.687-3.594
	c0.425-0.873,1.463-1.254,2.352-0.863c0.839,0.299,1.276,1.221,0.978,2.059c-0.017,0.048-0.036,0.095-0.058,0.141l-1.074,2.252
	h2.147c0.926-0.06,1.726,0.643,1.786,1.569s-0.643,1.726-1.569,1.786c-0.072,0.005-0.145,0.005-0.217,0h-6.185v3.978h6.186
	c0.926-0.06,1.726,0.643,1.786,1.569s-0.643,1.726-1.569,1.786c-0.072,0.005-0.145,0.005-0.217,0h-6.186v4.457
	c-0.062,0.988-0.913,1.739-1.901,1.678c-0.902-0.056-1.621-0.775-1.678-1.678V71.47h-6.186c-0.926,0.06-1.726-0.643-1.786-1.569
	c-0.06-0.926,0.643-1.726,1.569-1.786c0.072-0.005,0.145-0.005,0.217,0H33.2v-3.978H27.018z M69.161,28.445H25.109
	c-1.298,0.085-2.419-0.899-2.503-2.197s0.899-2.419,2.197-2.503c0.102-0.007,0.205-0.007,0.307,0h44.052
	c1.298-0.085,2.419,0.899,2.503,2.197c0.085,1.298-0.899,2.419-2.197,2.503C69.366,28.452,69.263,28.452,69.161,28.445z
	 M69.161,39.86H25.109c-1.298,0.085-2.419-0.899-2.503-2.197c-0.085-1.298,0.899-2.419,2.197-2.503c0.102-0.007,0.205-0.007,0.307,0
	h44.052c1.298-0.085,2.419,0.899,2.503,2.197c0.085,1.298-0.899,2.419-2.197,2.503C69.366,39.867,69.263,39.867,69.161,39.86z
	 M80.478,52.887c-1.335,0.026-2.447-1.017-2.507-2.35V19.246c-0.038-0.877-0.769-1.564-1.647-1.546H18.662
	c-0.877-0.017-1.608,0.668-1.647,1.544v61.443c0.039,0.876,0.77,1.562,1.647,1.544h35.672c1.318-0.022,2.404,1.028,2.426,2.345
	c0.022,1.318-1.028,2.404-2.345,2.426c-0.051,0.001-0.102,0-0.153-0.002h-35.6c-3.556,0.091-6.524-2.692-6.662-6.246V19.246
	c0.138-3.554,3.106-6.337,6.662-6.246h57.662c3.555-0.091,6.524,2.691,6.662,6.245v31.292
	C82.926,51.871,81.813,52.913,80.478,52.887z"/>
</svg>
