<?xml version="1.0" encoding="utf-8"?>
<!-- Generator: Adobe Illustrator 17.0.0, SVG Export Plug-In . SVG Version: 6.00 Build 0)  -->
<!DOCTYPE svg PUBLIC "-//W3C//DTD SVG 1.1//EN" "http://www.w3.org/Graphics/SVG/1.1/DTD/svg11.dtd">
<svg version="1.1" id="图层_1" xmlns="http://www.w3.org/2000/svg" xmlns:xlink="http://www.w3.org/1999/xlink" x="0px"
     y="0px"
     width="100px" height="100px" viewBox="0 0 100 100" enable-background="new 0 0 100 100" xml:space="preserve">
<metadata><?xpacket begin="﻿" id="W5M0MpCehiHzreSzNTczkc9d"?>
    <x:xmpmeta xmlns:x="adobe:ns:meta/" x:xmptk="Adobe XMP Core 5.5-c014 79.151739, 2013/04/03-12:12:15        ">
   <rdf:RDF xmlns:rdf="http://www.w3.org/1999/02/22-rdf-syntax-ns#">
      <rdf:Description rdf:about=""
                       xmlns:xmp="http://ns.adobe.com/xap/1.0/"
                       xmlns:xmpGImg="http://ns.adobe.com/xap/1.0/g/img/"
                       xmlns:xmpTPg="http://ns.adobe.com/xap/1.0/t/pg/"
                       xmlns:stDim="http://ns.adobe.com/xap/1.0/sType/Dimensions#"
                       xmlns:xmpG="http://ns.adobe.com/xap/1.0/g/"
                       xmlns:dc="http://purl.org/dc/elements/1.1/">
         <xmp:CreatorTool>Adobe Illustrator CC (Windows)</xmp:CreatorTool>
          <xmp:CreateDate>2018-05-07T10:56:38+08:00</xmp:CreateDate>
          <xmp:Thumbnails>
            <rdf:Alt>
               <rdf:li rdf:parseType="Resource">
                  <xmpGImg:width>256</xmpGImg:width>
                   <xmpGImg:height>252</xmpGImg:height>
                   <xmpGImg:format>JPEG</xmpGImg:format>
                   <xmpGImg:image>/9j/4AAQSkZJRgABAgEASABIAAD/7QAsUGhvdG9zaG9wIDMuMAA4QklNA+0AAAAAABAASAAAAAEA&#xA;AQBIAAAAAQAB/+4ADkFkb2JlAGTAAAAAAf/bAIQABgQEBAUEBgUFBgkGBQYJCwgGBggLDAoKCwoK&#xA;DBAMDAwMDAwQDA4PEA8ODBMTFBQTExwbGxscHx8fHx8fHx8fHwEHBwcNDA0YEBAYGhURFRofHx8f&#xA;Hx8fHx8fHx8fHx8fHx8fHx8fHx8fHx8fHx8fHx8fHx8fHx8fHx8fHx8fHx8f/8AAEQgA/AEAAwER&#xA;AAIRAQMRAf/EAaIAAAAHAQEBAQEAAAAAAAAAAAQFAwIGAQAHCAkKCwEAAgIDAQEBAQEAAAAAAAAA&#xA;AQACAwQFBgcICQoLEAACAQMDAgQCBgcDBAIGAnMBAgMRBAAFIRIxQVEGE2EicYEUMpGhBxWxQiPB&#xA;UtHhMxZi8CRygvElQzRTkqKyY3PCNUQnk6OzNhdUZHTD0uIIJoMJChgZhJRFRqS0VtNVKBry4/PE&#xA;1OT0ZXWFlaW1xdXl9WZ2hpamtsbW5vY3R1dnd4eXp7fH1+f3OEhYaHiImKi4yNjo+Ck5SVlpeYmZ&#xA;qbnJ2en5KjpKWmp6ipqqusra6voRAAICAQIDBQUEBQYECAMDbQEAAhEDBCESMUEFURNhIgZxgZEy&#xA;obHwFMHR4SNCFVJicvEzJDRDghaSUyWiY7LCB3PSNeJEgxdUkwgJChgZJjZFGidkdFU38qOzwygp&#xA;0+PzhJSktMTU5PRldYWVpbXF1eX1RlZmdoaWprbG1ub2R1dnd4eXp7fH1+f3OEhYaHiImKi4yNjo&#xA;+DlJWWl5iZmpucnZ6fkqOkpaanqKmqq6ytrq+v/aAAwDAQACEQMRAD8A9N63ren6Np8l/fyenDHs&#xA;AN2dj0RB3JxV4z5j/M7zDqsrpaStp1l0SKE0kI8XkHxV+VBhpLEpJZJXLyOXc9WYkk/ScKrMVdir&#xA;sVdirsVdirsVdirsVdirsVdirsVdirsVdirsVdirsVdirsVdirsVdiqpBcXFvIJIJXhkHR42KsPp&#xA;GKs28r/mrrOnSpBqrNqFiSAzt/foPEP+38m+/BSHsWn6haahZRXtnIJbadeUbjuP4EdxgVEYq7FX&#xA;hf5neY5dV8xS2qP/AKFp7GGJAdjINpHPvy2+QwhLD8KuxV2KuxV2KuxV2KuxV2KuxV2KuxV2KuxV&#xA;2KuxV2KuxV2KuxV2KuxV2KuxV2KuxV2KuxV6H+UPmOS21V9Fmcm2vQXgB6LMgqaf66j7wMBQ9hwK&#xA;7FXy7JI8kjSOeTuSzE9yTU5JK3FX0B5A0Sw03yzYSQRKJ7uCO4nnoObNKoehPgvKgGRQyTFXYq7F&#xA;XYq7FXYq7FXYq7FXYq7FXYq7FXYq7FXYq7FXYq7FXYq7FXYq7FXYqwj82NF0+48sz6m0Si9s2jMc&#xA;wFGKvIsZVj3HxVwhXiWFKZ+WJnh8yaXKn2lu4fpHqAEfSMVfSORQ7FXy3kkuxV9IeVP+UX0f/mBt&#xA;v+TK5FCaYq7FXYq7FXYq7FXYq7FXYq7FXYq7FXYq7FXYq7FXYq7FXYq7FXYq7FXYq7FWLfmf/wAo&#xA;NqX/ADw/6iI8QrwTJJTDy/8A8d7Tf+YqD/k4uKvpTIodir5bySXYq+kPKn/KL6P/AMwNt/yZXIoT&#xA;TFUBrmu6domnvfX8nCFTxVRu7seioO5OKvP5fzuiEhEWjs8f7LPcBSfmBG368NKs/wCV3/8Aal/6&#xA;ev8ArzjSu/5Xf/2pf+nr/rzjSu/5Xf8A9qX/AKev+vONK7/ld/8A2pf+nr/rzjSu/wCV3/8Aal/6&#xA;ev8ArzjSu/5Xf/2pf+nr/rzjSu/5Xf8A9qX/AKev+vONK7/ld/8A2pf+nr/rzjSu/wCV3/8Aal/6&#xA;ev8ArzjSu/5Xf/2pf+nr/rzjSu/5Xf8A9qX/AKev+vONK7/ld/8A2pf+nr/rzjSu/wCV3/8Aal/6&#xA;ev8ArzjSu/5Xf/2pf+nr/rzjSu/5Xf8A9qX/AKev+vONK7/ld/8A2pf+nr/rzjSu/wCV3/8Aal/6&#xA;ev8ArzjSu/5Xf/2pf+nr/rzjSproH5u6RqN4lrfWzae0pCxylxJHU9AzUQr92NKz3ArsVYt+Z/8A&#xA;yg2pf88P+oiPEK8EySUw8v8A/He03/mKg/5OLir6UyKHYq+W8kl2KvpDyp/yi+j/APMDbf8AJlci&#xA;hNMVeV/nabj1dJG/1bjNTrTnVK1+jphCvL8KXYq7FXYq7FXYq7FXYq7FXYq7FXYq7FXYq7FXYq7F&#xA;XYq7FXYq+lfLxuDoGmm55fWDawGbl9rn6a8q+9cihH4qxb8z/wDlBtS/54f9REeIV4Jkkph5f/47&#xA;2m/8xUH/ACcXFX0pkUOxV8t5JLsVfSHlT/lF9H/5gbb/AJMrkUJpiqW6/wCX9N13Tmsb9C0ZPJHX&#xA;Z0cdGU+OKvPZfyRk5n0dXX0+3OA1/B8Nqs/5Uldf9XZP+RJ/5rxtXf8AKkrr/q7J/wAiT/zXjau/&#xA;5Uldf9XZP+RJ/wCa8bV3/Kkrr/q7J/yJP/NeNq7/AJUldf8AV2T/AJEn/mvG1d/ypK6/6uyf8iT/&#xA;AM142rv+VJXX/V2T/kSf+a8bV3/Kkrr/AKuyf8iT/wA142rv+VJXX/V2T/kSf+a8bV3/ACpK6/6u&#xA;yf8AIk/8142rv+VJXX/V2T/kSf8AmvG1d/ypK6/6uyf8iT/zXjau/wCVJXX/AFdk/wCRJ/5rxtXf&#xA;8qSuv+rsn/Ik/wDNeNq7/lSV1/1dk/5En/mvG1d/ypK6/wCrsn/Ik/8ANeNq7/lSV1/1dk/5En/m&#xA;vG1d/wAqSuv+rsn/ACJP/NeNqmugfk/ptjdx3Wo3ZvjGQyW4T046g7c6liw9tsbV6FgV2KsW/M//&#xA;AJQbUv8Anh/1ER4hXgmSSmHl/wD472m/8xUH/JxcVfSmRQ7FXy3kkuxV9IeVP+UX0f8A5gbb/kyu&#xA;RQmmKuxV2KuxV2KuxV2KuxV2KuxV2KuxV2KuxV2KuxV2KuxV2KuxV2KuxV2KuxVi35n/APKDal/z&#xA;w/6iI8QrwTJJTDy//wAd7Tf+YqD/AJOLir6UyKHYq+W8kl2KvpDyp/yi+j/8wNt/yZXIoTTFXYq7&#xA;FXYq7FXYq7FXYq7FXYq7FXYq7FXYq7FXYq7FXYq7FXYq7FXYq7FXYqxb8z/+UG1L/nh/1ER4hXgm&#xA;SSmHl/8A472m/wDMVB/ycXFX0pkUOxV8t5JLsVfSHlT/AJRfR/8AmBtv+TK5FCaYqkHnLzda+WtN&#xA;W4kT1rmYlLa3rTkQKkk9lXvirzCX83fNzyFlNvGpOyLFUD/giThpK3/lbfnD/fkH/Iof1xpXf8rb&#xA;84f78g/5FD+uNK7/AJW35w/35B/yKH9caV3/ACtvzh/vyD/kUP640rv+Vt+cP9+Qf8ih/XGld/yt&#xA;vzh/vyD/AJFD+uNK7/lbfnD/AH5B/wAih/XGld/ytvzh/vyD/kUP640rv+Vt+cP9+Qf8ih/XGld/&#xA;ytvzh/vyD/kUP640rv8AlbfnD/fkH/Iof1xpXf8AK2/OH+/IP+RQ/rjSu/5W35w/35B/yKH9caV3&#xA;/K2/OH+/IP8AkUP640rv+Vt+cP8AfkH/ACKH9caV3/K2/OH+/IP+RQ/rjSu/5W35w/35B/yKH9ca&#xA;V3/K2/OH+/IP+RQ/rjSppoP5xamt4kesxRy2jmjzRKVkSv7VKkMB4UxpD1uORJEWRGDI4DKw3BB3&#xA;BGBW8VYt+Z//ACg2pf8APD/qIjxCvBMklMPL/wDx3tN/5ioP+Ti4q+lMih2KvlvJJdir6Q8qf8ov&#xA;o/8AzA23/JlcihNMVeXfnXY3JGmXwBa2T1IXPZXajL/wQB+7CFeWYUuxV2KuxV2KuxV2KuxV2Kux&#xA;V2KuxV2KuxV2KuxV2KuxV2KrkR3dURSzsQFUCpJPQAYq+lNCtZrTQ9OtZ9pre2hilHX4kjCt+IyK&#xA;EdirFvzP/wCUG1L/AJ4f9REeIV4Jkkph5f8A+O9pv/MVB/ycXFX0pkUOxV8t5JLsVfSHlT/lF9H/&#xA;AOYG2/5MrkUJpiqjeWdre20lrdxLPbyikkTiqkfTirFH/KbyazlhDMgJqFWVqD5VqcNqt/5VJ5P/&#xA;AN9z/wDI0/0xtXf8qk8n/wC+5/8Akaf6Y2rv+VSeT/8Afc//ACNP9MbV3/KpPJ/++5/+Rp/pjau/&#xA;5VJ5P/33P/yNP9MbV3/KpPJ/++5/+Rp/pjau/wCVSeT/APfc/wDyNP8ATG1d/wAqk8n/AO+5/wDk&#xA;af6Y2rv+VSeT/wDfc/8AyNP9MbV3/KpPJ/8Avuf/AJGn+mNq7/lUnk//AH3P/wAjT/TG1d/yqTyf&#xA;/vuf/kaf6Y2rv+VSeT/99z/8jT/TG1d/yqTyf/vuf/kaf6Y2rv8AlUnk/wD33P8A8jT/AExtXf8A&#xA;KpPJ/wDvuf8A5Gn+mNq7/lUnk/8A33P/AMjT/TG1d/yqTyf/AL7n/wCRp/pjapjov5f+V9IuhdWt&#xA;qXuVNY5ZmMhQ+Kg7A+9K4LVkWKuxVi35n/8AKDal/wA8P+oiPEK8EySUw8v/APHe03/mKg/5OLir&#xA;6UyKHYq+W8kl2KvpDyp/yi+j/wDMDbf8mVyKE0xV2KuxV2KuxV2KuxV2KuxV2KuxV2KuxV2KuxV2&#xA;KuxV2KuxV2KuxV2KuxV2KsW/M/8A5QbUv+eH/URHiFeCZJKYeX/+O9pv/MVB/wAnFxV9KZFDsVfL&#xA;eSS7FX0h5U/5RfR/+YG2/wCTK5FCaYq7FXYq7FXYq7FXYq7FXYq7FXYq7FXYq7FXYq7FXYq7FXYq&#xA;7FXYq7FXYq7FWLfmf/yg2pf88P8AqIjxCvBMklMPL/8Ax3tN/wCYqD/k4uKvpTIodir5bySXYq+k&#xA;PKn/ACi+j/8AMDbf8mVyKE0xVIfOnmmPy5o5u+AluZW9K1iPQuQTVqfsqBU/dirxm68/eb7mdpm1&#xA;SaMk1CRH00HsFWgySWeflz+Yl7qd4uj6uwkuHUm1ugApYqCSjgbV4jY4CEPSMCpZ5i1+y0HSpdRu&#xA;6lEosca/ad2+yor/AJ0xV5Nd/m/5qluDJbiC2hr8MITnt25M25PyphpWbeQ/zGTX5Tp99GtvqQUt&#xA;GUr6coXduINSGHWlcaVm2BUt8w6/ZaFpcuoXhJRKLHGv2nc/ZRfn+rFXk15+b/mqacvbCC2hr8MQ&#xA;Tnt4MzdfophpWaeQ/wAxl1+Y6ffxLBqQUtG0dfTlC7mgJJDAb0rjSs3wK7FXYq7FXYq7FXYq7FXY&#xA;q7FXYq7FWLfmf/yg2pf88P8AqIjxCvBMklMPL/8Ax3tN/wCYqD/k4uKvpTIodir5bySXYq+kPKn/&#xA;ACi+j/8AMDbf8mVyKE0xV5t+ddpcPYaZdoCYIJJY5adA0oUoT/yLOEK8kwpZJ+XlncXXnDThCD+5&#xA;k9aVh2SMVNfn0+nEq+gMih5z+dVvcvpOnzICbeKZhLTszr8BP/AnCFeQ4Usj/L2C5m846YLeoZJf&#xA;UkYdo1Ul6/NdsSr6ByKHnf50wXL6NYTJU28U7CYDszL8BP3EfThCvH8KWQ+QLe5n84aYIASyTCRy&#xA;O0aAl6/Rtir6DyKHYq7FXYq7FXYq7FXYq7FXYq7FXYqxf8zgT5H1Ogr/AHP4XEeIV4Hkkph5eBOv&#xA;6aBuTdQf8nFxV9KZFDsVfLeSS7FX0h5U/wCUX0f/AJgbb/kyuRQmmKqF9Y2l/aS2d5EJraYcZI26&#xA;EYqwC5/JXSnnLW+ozQwk1ETIrkewaq/qw2rK/LHlDR/Ltu0dijNNJT1rmQ1kenbagA9hgVO8VUL6&#xA;xtL+0ltLyJZraYcZI26Ef59DirALv8ltKknL22oTQQk1ETIshHsGquG1ZT5X8m6P5cicWatJcSik&#xA;t1KQXYdeIoAAvsMCp7iqje2VrfWstpdxLNbTLxkjboRirz+7/JbSpJy9tqE0EJNREyLIR7BqrhtW&#xA;UeV/JmjeXI2+pq0lzIKS3UtC5HXiKABV9h9OBU+xV2KuxV2KuxV2KuxV2KuxV2KuxV2KobU9OttS&#xA;0+4sLkEwXKGN6dQD3HuOoxV4lq/5Yea7G5ZLe2N9b1/dzwkbj/KQnkp/D3w2lknkH8tNStdTh1bW&#xA;kEItjzt7SoZzIPss/GoAXqBWtcbQ9SwK7FXy3kkuxV9IeVP+UX0f/mBtv+TK5FCaYq7FXYq7FXYq&#xA;7FXYq7FXYq7FXYq7FXYq7FXYq7FXYqkvmzzTZeXNM+uXCGWSRuFvApoXeldzvQDucVePaz+ZXmvU&#xA;nbjdmygP2YbX93Qe7j4z9+GkpbpfmrXtOv47yG9md0YM6PI7JIK1KuCdwcKvoDRtWs9X02DULN+U&#xA;M61p3Vv2lb3U7HIoRuKoXVdUs9L0+e/vH4W8C8mPc+CjxJOwxV8/az5s13VdRkvJbuWPkxMUUbsq&#xA;Rr2VQD2/HJJTHQ/zK806XIvqXLX1sD8cFyS5I9pD8Y+/6MFK9l8teZLDzBpi31pVd+E0LU5RuOqm&#xA;nz2OBCa4q7FXYq+W8kl2KvpDyp/yi+j/APMDbf8AJlcihNMVdirsVdirw7zR+ZHmK81WdbG7ezso&#xA;pGSCOH4SQppyZqciW606YaSzL8sfPF7rJm0zVJBJeQr6kE9ArSJWjBgKCq1HzHyxKGf4Fdirxjzr&#xA;+ZGs3GrT2uk3TWun27mNHhoGkKmhcv1oT0p2w0qf/lf531fVb2XStTk+sMsRmguCAHHEgFWpSv2q&#xA;g4lXpGBXYq7FXYq7FXYq7FXn/wCc9qr+XrS5p8cN0Fr/AJMiNX8VGEK8bwpdiqceXfNet+X5mk0+&#xA;akbmstvIOUT08V239xQ4qzA/nXqno0GmwCb+cu/H/gev/DYKQxDzD5s1vX5Q+oT1jQ1jt4xxiX5L&#xA;4+5qcKUmxV2KvbPyh036t5WN2TVr6Z3A7BYz6Y/FTgKGcYFdirsVfLeSS7FX0h5U/wCUX0f/AJgb&#xA;b/kyuRQmmKuxV2KuxV4L+ZHl46P5kmaNaWl8TcW57AsfjT/Yt+FMISkug6vPpGsWuow1LW8gZlG3&#xA;JDs6/wCyUkYVfR9pdQXdrDdQNzhnRZIm8VcVB+45FDHvzD8w/oXy3O8bUu7r/R7bxBcHk/8AsVqf&#xA;nTEK8BySXrX5OeXvRtJ9cmX47isFr/xjU/G3+yYU+jAUPSsCuxV2KuxV2KuxV2KvMfzp1eD6vY6Q&#xA;jBpvUN1Mo6qApRK/63JsIV5ThS7FXYq7FXYq7FXYq9s/KPWYLvy0NO5D6zp7srITuY5GLq3yqxX6&#xA;MBQzjArsVdir5bySXYq+kPKn/KL6P/zA23/JlcihNMVdirD/AMzvMt/omiRCwb07m8k9IT90ULVi&#xA;v+UdhhCvHG8xeYGYs2p3ZY7kmeT/AJqwpQ11qF/ecfrdzLccK8PVdnpXrTkTStMVQ+Ko2HWtYgiW&#xA;KG+uIokFEjSV1UD2ANMVUrrUL+84/W7mW44V4eq7PSvWnImlaYqh8VRsOtaxBEsUN9cRRIKJGkrq&#xA;oHsAaYqzH8t/Oetr5gt9Nu7mS7s7wlOMzGQo1CVZWapG43HTAUPZsCuxV2KsK/MLz+3l/wBOxsFW&#xA;TU5VDsX3SJK0BIBFWamw+nCFYhp/5y6/CvG8tYLsD9oVif6SOS/8LjSrtR/ObXJ4THZWkNm7ChlJ&#xA;MrD3WoVfvBxpWB3V3c3dxJc3UrTXEp5SSuasT7nClRxV2Koyw0fVtQNLGzmuadTFGzgfMgUGKpt/&#xA;yr7znw5/oqWnhVK/8DyrjapVqGi6vpxAv7Ka2r0MsbKD8iRQ4qgsVdiqM0nV9R0m9S9sJjDcJtyG&#xA;4IPVWB2IPgcVeh2X52TLEFvdLWSUDeSGUopP+qytT/gsFIQeqfnNrU446daRWQ/ncmZ/oqEX/hTj&#xA;Sso/Lz8wJNeZ9P1IKuooC8UiDisqDrt2ZfbtiVeKYUuxV9IeVP8AlF9H/wCYG2/5MrkUJpirsVSj&#xA;zT5ZsvMWlmxuiYyGEkM6irI42rQ9RQ0IxV5//wAqSuqn/ctHSu37k9P+Dw2rv+VJXX/V2T/kSf8A&#xA;mvG1UL/8nLm0sbi7OqI4t4nlKeiRXgpaleftjavOcKWWeTfIU3ma2uJ47xbUW7hCrIXrUVrsy4FZ&#xA;D/ypK6/6uyf8iT/zXjaHf8qSuv8Aq7J/yJP/ADXjash8nflla6DqH6Rubr65dICLcBOCJyFC1KsS&#xA;1NsbVm2BXYq7FXzf5n1OTU/MF/eua+rM/CvZFPFB9CgZJKV4q7FXYqqQQzTzJDChkmkYJHGoqzMT&#xA;QAAYq9c8n/lRZWkaXmuqLq7PxLadYY/Z/wCc/h88FoehRRRQxrFEixxoKKiAKoHsBgVdiq2SOOWN&#xA;o5FDxsKMjAEEHsQcVYB5u/KnT72N7vQ1W0vRubYbQyewH7B+W368Nq8hubae2uJLe4jaKeJikkbC&#xA;jKw2IIwpUsVdirsVTHy7qj6VrllqCmn1eVWf3Qmjj6VJGKpdirsVfSHlT/lF9H/5gbb/AJMrkUJp&#xA;irsVdirsVdiqA8wf8cHUv+YWf/k22KvmrJJeu/kp/wAcvUv+M6f8QwFD0fArsVdirsVdirsVeSed&#xA;Pys1Jbu61PRqXMErNM9n0lUseTBB0YeA69t8Nq83ZWVirAqymhB2IIwpaxV2KvVfyg8rR+k/mC5Q&#xA;M7ForEEdANnkHuT8I+nAUPT8CuxV2KuxV2KvNfze8rRy2g8wWyhZ4Csd6B+1GTxRz7qSB8vlhCvJ&#xA;cKXYq2ASQAKk9BirP/Kv5T6nfGG71c/U7JqMbf8A3e69aEdEr77+2C0PP8KXYq+kPKn/ACi+j/8A&#xA;MDbf8mVyKE0xV2KsV/MTzVc+XtGSSzA+uXT+lC7CoQAEs9DsSOwxCvJT5+84kknVZqnfYqP1DJJa&#xA;/wAe+cP+rrP94/piqybzv5smheGXU5nikUpIhIoVYUI6eGKpHiqZaX5i1vSo3j068ktkkIaRUIoS&#xA;BSu4xVG/4984f9XWf7x/TFXf4984f9XWf7x/TFWV/l7+YWtz63BpeqTm7guyVjkcDmj0JHxACoNK&#xA;b4CEPWsCuxV2KuxV5P8AnF5ctbZ7bW7ZBG1y5huwuwaShZH+ZCtXCFeZ4UuxV9JeWrNLLy/p1qgo&#xA;I7eIH3YqCx+liTkUJlirsVdirsVdiqC1uzS90e9tHFVngkj/AOCUgH6MVfNGSS7FWf8A5Q+X7e/1&#xA;efUblA6acEMKMKj1nJ4t/sQp+mmAoey4FfLeSS7FX0h5U/5RfR/+YG2/5MrkUJpirsVSHzl5Vg8y&#xA;aT9UaT0Z4m9W2mpUBgCKMP5WB3xV5ufyY80V2urKn+vL/wBUsNq7/lTHmj/lqsf+Rk3/AFSxtVG8&#xA;/KLzJaWk91Jc2Zjt42lcK8pYqiljSsQ32xtWD4Usj8r+RdX8yW889jNbxpbuEcTs6kkiu3FHxVO/&#xA;+VMeaP8Alqsf+Rk3/VLBaHf8qY80f8tVj/yMm/6pY2rJPJH5XzaNqa6nqdxHNPBX6tDByKBmBXkz&#xA;OFJoDsKY2r0LArsVdirsVeVfnLr9vK1rokLB5IH+sXVOitxKovzoxOEK8wwpdir6U8u3Ud3oOnXK&#xA;H4ZbaJvkeAqPoO2RQmGKuxV2KuxV2KoXVrtLPSry7c0WCCSQnp9lScVfMuSS7FXo35M6xBb6leaZ&#xA;KwVr1Ue3r3eLlyUe5Vq/RgKHr2BXy3kkuxV9IeVP+UX0f/mBtv8AkyuRQmmKuxV2KuxV2KoDzB/x&#xA;wdS/5hZ/+TbYq+askl67+Sn/ABy9S/4zp/xDAUPR8CuxV2KuxV2KuxV5V5u/Nm6E1zp+ixiERs0T&#xA;Xz7uSpoTGvRfYmv0YaV5lJJJLI0kjF5HJZ3YksSdyST1OFK3FXYq9b/KDzPHLZvoFw1J4C0tnU/a&#xA;jY1dR7qxr8j7YCh6TgV2KuxV2KuxV55+bvmeO201dDt3Bubyj3NOqQqagH3dh9wPjhCvHsKXYqvi&#xA;lkikSWJzHLGQyOpIZWBqCCO+KvTfKP5t3DTwWGuorq5EYv0+FgTsDIvQ+5FPlgpDy/Cl2KvpDyp/&#xA;yi+j/wDMDbf8mVyKE0xV2KuxV2KuxVC6tbyXOlXtvEKyTQSxoD/M6ED9eKvmeSN43aORSjoSrqwo&#xA;QRsQRkkvYPyYtZ49DvZ3QrFPOPSY/tcFoxHtU0wFD0LArsVdirsVdirsVfN/mfTX03zBqFk4p6Uz&#xA;8PdGPJD9KkZJKV4q7FXYqrWl1cWlzFdW0hiuIWDxSL1DDocVezeT/wAz9M1WNLXVHSy1EUHJjxhl&#xA;PirH7J/yT9GCkM4BBFRuDgV2KuxVhXm78zdJ0iJ7fTnS+1LcAIaxRnxdh1I/lH00w0rxe+vbq+u5&#xA;bu7kM1zM3KSRupJwpUMVdirsVR2iafJqOr2djGKtcTIh9gT8R+gb4qgcVdir6Q8qf8ovo/8AzA23&#xA;/JlcihNMVdirsVdirsVdiqT6h5P8s6jdfWrzToZbg7tJQqWP+VxI5fTiqawQQwQpDBGsUMY4xxoA&#xA;qqB2AGwxVfirsVdirsVdirsVYJ+Y/kK41wx6jpgU6jEvpyxMQolQbrRjsGX37fLCFYLZflV5yuft&#xA;20dqPGeRf1JzONpVb78pfN1rE0kawXfEVKwSHl9AkWOuNqw6WKSKR4pUMcsZKujAhlYGhBB74VWY&#xA;q7FU30vzZ5k0tQljqE0US/ZiJ5xj5I/JfwxVN/8AlannXjT66laU5ejFX5/ZpgpUo1Tzd5l1RSl9&#xA;qM0sbfaiB4IfmicVP3YVSjFXYqr2Vld31ylraQtPcSGiRoKk4qzG2/J/zbNGHka1tm/33LIxb/km&#xA;kg/HBaoa8/KrznbvSO1julrTnDKlPukMbfhjas4/Lv8ALybRJm1PVOJ1AqUghUhhErfaJYbcj027&#xA;fPElDxkggkEUI2IOFLWKvojyRfW155T0t4HDiK2igkA6rJEgRgfpGRQnmKuxV2KuxV2KuxV2KuxV&#xA;2KuxV2KuxV2KuxV2KuxV2KvJ/wA5tEt4Z7PVoUCSXBaG5oKcmUAox96VH3YQrzPCl2KuxV2KuxV2&#xA;KuxV7L+UGhQW2htq7KDdXzMqSd1ijbjxHzdST9GAoZ/gV2KuxV8//mBoMmj+ZrqPjS2uWNxbN24S&#xA;GpUf6rVGEJY3hVFWWq6nYFjY3k9oX+2YJHjrTx4kVxVF/wCK/NH/AFeL7/pJm/5qxV3+K/NH/V4v&#xA;v+kmb/mrFXf4r80f9Xi+/wCkmb/mrFXf4r80f9Xi+/6SZv8AmrFXf4r80f8AV4vv+kmb/mrFXf4r&#xA;80f9Xi+/6SZv+asVd/ivzR/1eL7/AKSZv+asVd/ivzR/1eL7/pJm/wCasVd/ivzR/wBXi+/6SZv+&#xA;asVd/ivzR/1eL7/pJm/5qxV3+K/NH/V4vv8ApJm/5qxV3+K/NH/V4vv+kmb/AJqxV3+K/NH/AFeL&#xA;7/pJm/5qxV3+K/NH/V4vv+kmb/mrFXf4r80f9Xi+/wCkmX/mrFWc/l3+YmqTapDpGrzfWYrn4Le4&#xA;enqLJSqqzD7QbpvvXAQh6tgV5L+dGrrJf2WlIP8AedDPKf8AKk2UfQFr9OEK81wpdiqYaLoGra1d&#xA;fVtNt2nkG7sNkQeLMdhirLx+THmQxcjdWgkpX0+Un3V4YLQxPXfLesaHcCDUrcxFq+nIPijcD+Vh&#xA;sf14UpZirsVe2/lFqkdz5W+pDaWwldGH+TKxkU/ezD6MBQzfArsVdiqS+bPKth5j042tx+7njq1r&#xA;cgVaNz+tT3GKvDfMHlTW9BnMd/bsIq0juUq0Tj2f+B3ySUnxV2KuxV2KuxV2KuxV2KuxV2KuxV2K&#xA;uxV2KuxV2Ksp/LjRLvUvNFnLEh+r2Ui3FxNvxXgaqtfFm2pgKve8CGHeffy/TzEEvLSRYNThTgC/&#xA;2JEFSFanQgnZv8wVeQav5Z17SHK6hZSwqDT1acoz8pFqv44UobS9MvNTv4bGzjMlxOwVVHQeJPgB&#xA;1JxV9D+XtAsdC0uKwtFFEFZZaUaSSnxO3z/DIoTLFUv17Q7HWtMmsLxA0cg+B6fEj0+F19xir531&#xA;bSrzStQmsLxCk8DFT4EdmXxDDcZJKM0Tyl5g1p1FhZu0TGhuHHCIe5c7fdvir2vyT5Qh8taa8Hq+&#xA;vdXBD3MvRagUCqP5R75FDIcVdirsVdiqyb0fSb1uPpU+PnTjT3rtirD77/lVHNvrH6M51+L0uFa+&#xA;/pYVQv8AyB7/AJcf+GxV3/IHv+XH/hsVd/yB7/lx/wCGxV3/ACB7/lx/4bFXf8ge/wCXH/hsVd/y&#xA;B7/lx/4bFXf8ge/5cf8AhsVd/wAge/5cf+GxV3/IHv8Alx/4bFXf8ge/5cf+GxV3/IHv+XH/AIbF&#xA;Xf8AIHv+XH/hsVd/yB7/AJcf+GxV3/IHv+XH/hsVbX/lT/IU+o1rtXlT8dsVZdo36F+or+hvq/1L&#xA;9n6rw4V7/Y2r44FR2KuxVxpQ16d69KYqh7T9H1k+qejWv730uNa/5XHviqIxV2KuxVD3P6P9SP61&#xA;6Pqb+l6vHl78eWKojFXYq7FXYq7FX//Z</xmpGImg:image>
               </rdf:li>
            </rdf:Alt>
         </xmp:Thumbnails>
          <xmpTPg:MaxPageSize rdf:parseType="Resource">
            <stDim:w>100.000000</stDim:w>
              <stDim:h>100.000000</stDim:h>
              <stDim:unit>Points</stDim:unit>
         </xmpTPg:MaxPageSize>
          <xmpTPg:NPages>1</xmpTPg:NPages>
          <xmpTPg:HasVisibleTransparency>False</xmpTPg:HasVisibleTransparency>
          <xmpTPg:HasVisibleOverprint>False</xmpTPg:HasVisibleOverprint>
          <xmpTPg:PlateNames>
            <rdf:Seq>
               <rdf:li>Cyan</rdf:li>
                <rdf:li>Magenta</rdf:li>
                <rdf:li>Yellow</rdf:li>
            </rdf:Seq>
         </xmpTPg:PlateNames>
          <xmpTPg:SwatchGroups>
            <rdf:Seq>
               <rdf:li rdf:parseType="Resource">
                  <xmpG:groupName>默认色板组</xmpG:groupName>
                   <xmpG:groupType>0</xmpG:groupType>
               </rdf:li>
            </rdf:Seq>
         </xmpTPg:SwatchGroups>
          <dc:format>image/svg+xml</dc:format>
      </rdf:Description>
   </rdf:RDF>
</x:xmpmeta>


    <?xpacket end="w"?>
	</metadata>
    <path id="形状_6" fill="#858387" d="M87.778,66.065c-0.155,0.199-0.36,0.352-0.594,0.446c-0.785,0.262-1.483,0.737-2.014,1.372
	c-0.543,0.615-0.841,1.408-0.837,2.228c-0.014,0.767,0.233,1.515,0.7,2.123c0.473,0.606,1.114,1.059,1.844,1.3
	c0.16,0.083,0.313,0.179,0.458,0.285c0.274,0.205,0.474,0.492,0.572,0.82c0.051,0.344,0.037,0.695-0.04,1.034
	c-0.08,0.423-0.207,0.836-0.38,1.23c-0.168,0.399-0.385,0.776-0.645,1.123c-0.217,0.302-0.504,0.547-0.837,0.713
	c-0.248,0.129-0.521,0.202-0.8,0.215c-0.259-0.005-0.516-0.053-0.759-0.142c-0.313-0.084-0.631-0.151-0.951-0.2
	c-0.385-0.058-0.775-0.07-1.163-0.036c-0.399,0.037-0.793,0.114-1.177,0.23c-0.383,0.112-0.73,0.321-1.007,0.607
	c-0.58,0.535-0.957,1.253-1.069,2.034c-0.104,0.743,0.016,1.501,0.344,2.176c0.254,0.455,0.209,1.018-0.114,1.427
	c-0.207,0.235-0.451,0.433-0.723,0.588c-0.348,0.214-0.711,0.401-1.086,0.562c-0.4,0.169-0.815,0.301-1.239,0.393
	c-0.375,0.086-0.758,0.133-1.143,0.14c-0.238-0.005-0.466-0.093-0.645-0.249c-0.181-0.143-0.325-0.326-0.42-0.536h-0.041
	c-0.292-0.755-0.786-1.415-1.427-1.908c-0.664-0.532-1.492-0.815-2.342-0.8c-0.848-0.006-1.673,0.276-2.34,0.8
	c-0.653,0.476-1.161,1.124-1.467,1.872c-0.112,0.269-0.314,0.49-0.572,0.625c-0.258,0.132-0.545,0.199-0.835,0.195
	c-0.406-0.007-0.81-0.067-1.2-0.18c-0.453-0.122-0.898-0.271-1.333-0.446c-0.421-0.166-0.823-0.376-1.2-0.626
	c-0.304-0.191-0.574-0.431-0.8-0.711c-0.128-0.17-0.201-0.375-0.21-0.588c0.017-0.334,0.115-0.659,0.286-0.946
	c0.285-0.581,0.397-1.231,0.324-1.874c-0.082-0.743-0.427-1.432-0.971-1.944c-0.352-0.356-0.802-0.598-1.293-0.695
	c-0.475-0.105-0.961-0.147-1.447-0.125c-0.555,0.027-1.105,0.124-1.637,0.287c-0.709,0.185-1.457-0.111-1.849-0.73
	c-0.249-0.361-0.466-0.743-0.648-1.142c-0.188-0.412-0.335-0.842-0.438-1.284c-0.096-0.354-0.122-0.724-0.076-1.088
	c0.024-0.458,0.326-0.855,0.761-1c0.786-0.303,1.489-0.786,2.054-1.41c0.58-0.584,0.908-1.372,0.913-2.195
	c0.006-0.82-0.324-1.606-0.913-2.176c-0.576-0.598-1.277-1.062-2.052-1.359c-0.249-0.089-0.452-0.274-0.565-0.513
	c-0.147-0.255-0.226-0.543-0.23-0.837c0.006-0.35,0.057-0.699,0.152-1.036c0.101-0.38,0.235-0.75,0.4-1.107
	c0.16-0.344,0.351-0.673,0.572-0.981c0.184-0.267,0.423-0.491,0.7-0.659c0.176-0.112,0.384-0.162,0.592-0.142
	c0.213,0.028,0.423,0.076,0.627,0.142c0.759,0.286,1.577,0.378,2.38,0.268c0.817-0.104,1.581-0.458,2.188-1.015
	c0.305-0.29,0.534-0.652,0.665-1.052c0.136-0.399,0.225-0.812,0.266-1.232c0.04-0.366,0.04-0.734,0-1.1
	c-0.036-0.335-0.069-0.571-0.094-0.713c-0.057-0.163-0.102-0.33-0.134-0.5c-0.04-0.168-0.02-0.345,0.056-0.5
	c0.181-0.365,0.466-0.668,0.819-0.872c0.401-0.254,0.829-0.464,1.275-0.626c0.434-0.158,0.88-0.283,1.333-0.374
	c0.338-0.073,0.682-0.115,1.027-0.126c0.291-0.016,0.575,0.093,0.781,0.3c0.175,0.179,0.311,0.392,0.4,0.626
	c0.305,0.673,0.777,1.256,1.371,1.695c0.644,0.491,1.436,0.749,2.246,0.732c0.84,0.014,1.663-0.231,2.36-0.7
	c0.653-0.425,1.159-1.042,1.447-1.766c0.126-0.221,0.286-0.419,0.476-0.588c0.175-0.184,0.415-0.292,0.668-0.3
	c0.391,0.004,0.781,0.051,1.161,0.142c0.422,0.095,0.836,0.226,1.235,0.393c0.403,0.161,0.781,0.377,1.125,0.642
	c0.319,0.237,0.596,0.527,0.819,0.856c0.126,0.182,0.167,0.409,0.114,0.623c-0.031,0.166-0.082,0.327-0.152,0.481
	c-0.328,0.675-0.435,1.437-0.306,2.176c0.301,1.638,1.686,2.855,3.349,2.944c0.846,0.066,1.696-0.075,2.476-0.41
	c0.484-0.251,1.072-0.18,1.483,0.178c0.443,0.426,0.786,0.944,1.007,1.517c0.286,0.654,0.484,1.344,0.59,2.05
	C88.05,65.447,87.977,65.791,87.778,66.065z M77.86,67.065c-0.423-0.93-1.024-1.768-1.771-2.465
	c-0.77-0.715-1.669-1.278-2.648-1.659c-1.029-0.407-2.126-0.613-3.233-0.607c-1.102-0.007-2.195,0.199-3.218,0.607
	c-0.97,0.385-1.86,0.947-2.623,1.659c-0.744,0.698-1.345,1.534-1.767,2.463c-0.863,1.916-0.863,4.109,0,6.025
	c0.428,0.931,1.029,1.773,1.771,2.479c0.761,0.72,1.652,1.289,2.626,1.676c1.022,0.408,2.114,0.614,3.215,0.607
	c1.107,0.006,2.204-0.2,3.233-0.607c0.982-0.383,1.882-0.952,2.648-1.676c0.744-0.705,1.345-1.547,1.771-2.479
	c0.859-1.917,0.857-4.11-0.005-6.025L77.86,67.065z M44.519,52.083c-1.455,0.044-2.671-1.098-2.719-2.553l0,0
	c0.1-1.503,1.4-2.641,2.903-2.541c1.364,0.091,2.451,1.177,2.541,2.541l0,0C47.196,50.987,45.976,52.13,44.519,52.083z
	 M22.745,49.53L22.745,49.53c-0.096-1.504,1.045-2.8,2.548-2.896c1.504-0.096,2.8,1.045,2.896,2.548
	c0.096,1.504-1.045,2.8-2.548,2.896c-0.058,0.004-0.116,0.006-0.174,0.006C24.01,52.129,22.792,50.987,22.745,49.53z M34.993,52.083
	c-1.456,0.045-2.673-1.097-2.721-2.553l0,0c0.1-1.503,1.4-2.641,2.903-2.541c1.364,0.091,2.451,1.177,2.541,2.541l0,0
	C37.668,50.987,36.449,52.13,34.993,52.083L34.993,52.083z M27.018,64.137c-0.926,0.06-1.726-0.643-1.786-1.569
	s0.643-1.726,1.569-1.786c0.072-0.005,0.145-0.005,0.217,0h2.965L28.91,58.53c-0.376-0.807-0.027-1.766,0.779-2.142
	c0.046-0.021,0.093-0.041,0.141-0.058c0.889-0.391,1.927-0.01,2.352,0.863l1.687,3.594h3.067l1.687-3.594
	c0.425-0.873,1.463-1.254,2.352-0.863c0.839,0.299,1.276,1.221,0.978,2.059c-0.017,0.048-0.036,0.095-0.058,0.141l-1.074,2.252
	h2.147c0.926-0.06,1.726,0.643,1.786,1.569s-0.643,1.726-1.569,1.786c-0.072,0.005-0.145,0.005-0.217,0h-6.185v3.978h6.186
	c0.926-0.06,1.726,0.643,1.786,1.569s-0.643,1.726-1.569,1.786c-0.072,0.005-0.145,0.005-0.217,0h-6.186v4.457
	c-0.062,0.988-0.913,1.739-1.901,1.678c-0.902-0.056-1.621-0.775-1.678-1.678V71.47h-6.186c-0.926,0.06-1.726-0.643-1.786-1.569
	c-0.06-0.926,0.643-1.726,1.569-1.786c0.072-0.005,0.145-0.005,0.217,0H33.2v-3.978H27.018z M69.161,28.445H25.109
	c-1.298,0.085-2.419-0.899-2.503-2.197s0.899-2.419,2.197-2.503c0.102-0.007,0.205-0.007,0.307,0h44.052
	c1.298-0.085,2.419,0.899,2.503,2.197c0.085,1.298-0.899,2.419-2.197,2.503C69.366,28.452,69.263,28.452,69.161,28.445z
	 M69.161,39.86H25.109c-1.298,0.085-2.419-0.899-2.503-2.197c-0.085-1.298,0.899-2.419,2.197-2.503c0.102-0.007,0.205-0.007,0.307,0
	h44.052c1.298-0.085,2.419,0.899,2.503,2.197c0.085,1.298-0.899,2.419-2.197,2.503C69.366,39.867,69.263,39.867,69.161,39.86z
	 M80.478,52.887c-1.335,0.026-2.447-1.017-2.507-2.35V19.246c-0.038-0.877-0.769-1.564-1.647-1.546H18.662
	c-0.877-0.017-1.608,0.668-1.647,1.544v61.443c0.039,0.876,0.77,1.562,1.647,1.544h35.672c1.318-0.022,2.404,1.028,2.426,2.345
	c0.022,1.318-1.028,2.404-2.345,2.426c-0.051,0.001-0.102,0-0.153-0.002h-35.6c-3.556,0.091-6.524-2.692-6.662-6.246V19.246
	c0.138-3.554,3.106-6.337,6.662-6.246h57.662c3.555-0.091,6.524,2.691,6.662,6.245v31.292
	C82.926,51.871,81.813,52.913,80.478,52.887z"/>
</svg>
