<?xml version="1.0" encoding="utf-8"?>
<!-- Generator: Adobe Illustrator 21.0.0, SVG Export Plug-In . SVG Version: 6.00 Build 0)  -->
<svg version="1.1" id="图层_1" xmlns="http://www.w3.org/2000/svg" xmlns:xlink="http://www.w3.org/1999/xlink" x="0px"
     y="0px"
     viewBox="0 0 200 200" style="enable-background:new 0 0 200 200;" xml:space="preserve">
<style type="text/css">
	.st0{fill:#858387;}
</style>
    <path class="st0" d="M20,143.3c0-20.3,16.4-36.7,36.7-36.7h26.7c5.5,0,10,4.5,10,10c0,0,0,0,0,0v26.7c0,20.3-16.4,36.7-36.7,36.7
	C36.4,180,20,163.6,20,143.3z M33.3,143.3c0,12.9,10.5,23.3,23.3,23.3c12.9,0,23.3-10.5,23.3-23.3V120H56.7
	C43.8,120,33.3,130.5,33.3,143.3z M180,56.7c0,20.3-16.4,36.7-36.7,36.7h-26.7c-5.5,0-10-4.5-10-10c0,0,0,0,0,0V56.7
	c0-20.3,16.4-36.7,36.7-36.7C163.6,20,180,36.4,180,56.7z M166.7,56.7c0-12.9-10.5-23.3-23.3-23.3c-12.9,0-23.3,10.5-23.3,23.3V80
	h23.3C156.2,80,166.7,69.5,166.7,56.7z M20,56.7C20,36.4,36.4,20,56.7,20c20.2,0,36.7,16.4,36.7,36.7v26.7c0,5.5-4.5,10-10,10
	c0,0,0,0,0,0H56.7C36.4,93.3,20,76.9,20,56.7z M33.3,56.7C33.3,69.5,43.8,80,56.7,80H80V56.7c0-12.9-10.4-23.3-23.3-23.3
	C43.8,33.3,33.3,43.8,33.3,56.7z M177.2,137.7c1.5,0,2.8,1.3,2.8,2.8v5.6c0,1.6-1.3,2.8-2.8,2.8h-3.4c-1.5,0-3.2,1.2-3.7,2.7
	l-1.9,4.7c-0.7,1.4-0.4,3.4,0.7,4.5l2.4,2.4c1.1,1.1,1.1,2.9,0,4l-4,4c-1.1,1.1-2.9,1.1-4,0l-2.4-2.4c-1.1-1.1-3.1-1.4-4.5-0.7
	l-4.7,1.9c-1.5,0.5-2.7,2.1-2.7,3.7v3.4c0,1.6-1.3,2.8-2.8,2.8h-5.6c-1.6,0-2.8-1.3-2.8-2.8v-3.4c0-1.6-1.2-3.2-2.7-3.7l-4.7-1.9
	c-1.4-0.7-3.4-0.4-4.5,0.7l-2.4,2.4c-1.1,1.1-2.9,1.1-4,0l-4-4c-1.1-1.1-1.1-2.9,0-4l2.4-2.4c1.1-1.1,1.4-3.1,0.7-4.5l-2-4.7
	c-0.5-1.5-2.1-2.7-3.7-2.7h-3.4c-1.6,0-2.8-1.3-2.8-2.8v-5.6c0-1.6,1.3-2.8,2.8-2.8h3.4c1.5,0,3.2-1.2,3.7-2.7l1.9-4.7
	c0.7-1.4,0.4-3.4-0.7-4.5l-2.4-2.4c-1.1-1.1-1.1-2.9,0-4c0,0,0,0,0,0l4-4c1.1-1.1,2.9-1.1,4,0l2.4,2.4c1.1,1.1,3.1,1.4,4.5,0.7
	l4.7-1.9c1.5-0.5,2.7-2.1,2.7-3.7v-3.4c0-1.6,1.3-2.8,2.8-2.8h5.6c1.6,0,2.8,1.3,2.8,2.8v3.4c0,1.6,1.2,3.2,2.7,3.7l4.7,1.9
	c1.4,0.7,3.4,0.4,4.5-0.7l2.4-2.4c1.1-1.1,2.9-1.1,4,0c0,0,0,0,0,0l4,4c1.1,1.1,1.1,2.9,0,4l-2.4,2.4c-1.1,1.1-1.4,3.1-0.7,4.5
	l1.9,4.7c0.5,1.5,2.1,2.7,3.7,2.7L177.2,137.7L177.2,137.7z M155.9,143.1c0-7.1-5.7-12.8-12.8-12.8s-12.8,5.7-12.8,12.8
	c0,7.1,5.7,12.8,12.8,12.8l0,0C150.2,155.9,155.9,150.2,155.9,143.1C155.9,143.1,155.9,143.1,155.9,143.1z"/>
</svg>
