<?xml version="1.0" encoding="utf-8"?>
<!-- Generator: Adobe Illustrator 17.0.0, SVG Export Plug-In . SVG Version: 6.00 Build 0)  -->
<!DOCTYPE svg PUBLIC "-//W3C//DTD SVG 1.1//EN" "http://www.w3.org/Graphics/SVG/1.1/DTD/svg11.dtd">
<svg version="1.1" id="图层_1" xmlns="http://www.w3.org/2000/svg" xmlns:xlink="http://www.w3.org/1999/xlink" x="0px"
     y="0px"
     width="612px" height="792px" viewBox="0 0 612 792" enable-background="new 0 0 612 792" xml:space="preserve">
<path fill="#403D3C" d="M61.2,528.498c0-62.118,50.184-112.302,112.302-112.302h81.702c16.83,0,30.6,13.77,30.6,30.6l0,0v81.702
	c0,62.118-50.184,112.302-112.302,112.302S61.2,590.616,61.2,528.498z M101.898,528.498c0,39.474,32.13,71.298,71.298,71.298
	c39.474,0,71.298-32.13,71.298-71.298V457.2h-70.992C134.028,457.2,101.898,489.33,101.898,528.498z M550.8,263.502
	c0,62.118-50.184,112.302-112.302,112.302h-81.702c-16.83,0-30.6-13.77-30.6-30.6l0,0v-81.702
	c0-62.118,50.184-112.302,112.302-112.302S550.8,201.384,550.8,263.502z M510.102,263.502c0-39.474-32.13-71.298-71.298-71.298
	c-39.474,0-71.298,32.13-71.298,71.298V334.8h71.298C477.972,334.8,510.102,302.67,510.102,263.502z M61.2,263.502
	c0-62.118,50.184-112.302,112.302-112.302c61.812,0,112.302,50.184,112.302,112.302v81.702c0,16.83-13.77,30.6-30.6,30.6l0,0
	h-81.702C111.384,375.498,61.2,325.314,61.2,263.502z M101.898,263.502c0,39.168,32.13,71.298,71.604,71.298H244.8v-71.298
	c0-39.474-31.824-71.298-71.298-71.298C134.028,191.898,101.898,224.028,101.898,263.502z M542.232,511.362
	c4.59,0,8.568,3.978,8.568,8.568v17.136c0,4.896-3.978,8.568-8.568,8.568h-10.404c-4.59,0-9.792,3.672-11.322,8.262l-5.814,14.382
	c-2.142,4.284-1.224,10.404,2.142,13.77l7.344,7.344c3.366,3.366,3.366,8.874,0,12.24l-12.24,12.24
	c-3.366,3.366-8.874,3.366-12.24,0l-7.344-7.344c-3.366-3.366-9.486-4.284-13.77-2.142l-14.382,5.814
	c-4.59,1.53-8.262,6.426-8.262,11.322v10.404c0,4.896-3.978,8.568-8.568,8.568h-17.136c-4.896,0-8.568-3.978-8.568-8.568v-10.404
	c0-4.896-3.672-9.792-8.262-11.322l-14.382-5.814c-4.284-2.142-10.404-1.224-13.77,2.142l-7.344,7.344
	c-3.366,3.366-8.874,3.366-12.24,0l-12.24-12.24c-3.366-3.366-3.366-8.874,0-12.24l7.344-7.344c3.366-3.366,4.284-9.486,2.142-13.77
	l-6.12-14.382c-1.53-4.59-6.426-8.262-11.322-8.262H335.07c-4.896,0-8.568-3.978-8.568-8.568V519.93
	c0-4.896,3.978-8.568,8.568-8.568h10.404c4.59,0,9.792-3.672,11.322-8.262l5.814-14.382c2.142-4.284,1.224-10.404-2.142-13.77
	l-7.344-7.344c-3.366-3.366-3.366-8.874,0-12.24l0,0l12.24-12.24c3.366-3.366,8.874-3.366,12.24,0l7.344,7.344
	c3.366,3.366,9.486,4.284,13.77,2.142l14.382-5.814c4.59-1.53,8.262-6.426,8.262-11.322V425.07c0-4.896,3.978-8.568,8.568-8.568
	h17.136c4.896,0,8.568,3.978,8.568,8.568v10.404c0,4.896,3.672,9.792,8.262,11.322l14.382,5.814
	c4.284,2.142,10.404,1.224,13.77-2.142l7.344-7.344c3.366-3.366,8.874-3.366,12.24,0l0,0l12.24,12.24
	c3.366,3.366,3.366,8.874,0,12.24l-7.344,7.344c-3.366,3.366-4.284,9.486-2.142,13.77L520.2,503.1
	c1.53,4.59,6.426,8.262,11.322,8.262H542.232L542.232,511.362z M477.054,527.886c0-21.726-17.442-39.168-39.168-39.168
	s-39.168,17.442-39.168,39.168c0,21.726,17.442,39.168,39.168,39.168l0,0C459.612,567.054,477.054,549.612,477.054,527.886
	L477.054,527.886z"/>
</svg>
