<?xml version="1.0" encoding="utf-8"?>
<!-- Generator: Adobe Illustrator 17.0.0, SVG Export Plug-In . SVG Version: 6.00 Build 0)  -->
<!DOCTYPE svg PUBLIC "-//W3C//DTD SVG 1.1//EN" "http://www.w3.org/Graphics/SVG/1.1/DTD/svg11.dtd">
<svg version="1.1" id="图层_1" xmlns="http://www.w3.org/2000/svg" xmlns:xlink="http://www.w3.org/1999/xlink" x="0px"
     y="0px"
     width="100px" height="100px" viewBox="0 0 100 100" enable-background="new 0 0 100 100" xml:space="preserve">
<metadata><?xpacket begin="﻿" id="W5M0MpCehiHzreSzNTczkc9d"?>
    <x:xmpmeta xmlns:x="adobe:ns:meta/" x:xmptk="Adobe XMP Core 5.5-c014 79.151739, 2013/04/03-12:12:15        ">
   <rdf:RDF xmlns:rdf="http://www.w3.org/1999/02/22-rdf-syntax-ns#">
      <rdf:Description rdf:about=""
                       xmlns:xmp="http://ns.adobe.com/xap/1.0/"
                       xmlns:xmpGImg="http://ns.adobe.com/xap/1.0/g/img/"
                       xmlns:xmpTPg="http://ns.adobe.com/xap/1.0/t/pg/"
                       xmlns:stDim="http://ns.adobe.com/xap/1.0/sType/Dimensions#"
                       xmlns:xmpG="http://ns.adobe.com/xap/1.0/g/"
                       xmlns:dc="http://purl.org/dc/elements/1.1/">
         <xmp:CreatorTool>Adobe Illustrator CC (Windows)</xmp:CreatorTool>
          <xmp:CreateDate>2018-05-07T10:56:49+08:00</xmp:CreateDate>
          <xmp:Thumbnails>
            <rdf:Alt>
               <rdf:li rdf:parseType="Resource">
                  <xmpGImg:width>256</xmpGImg:width>
                   <xmpGImg:height>256</xmpGImg:height>
                   <xmpGImg:format>JPEG</xmpGImg:format>
                   <xmpGImg:image>/9j/4AAQSkZJRgABAgEASABIAAD/7QAsUGhvdG9zaG9wIDMuMAA4QklNA+0AAAAAABAASAAAAAEA&#xA;AQBIAAAAAQAB/+4ADkFkb2JlAGTAAAAAAf/bAIQABgQEBAUEBgUFBgkGBQYJCwgGBggLDAoKCwoK&#xA;DBAMDAwMDAwQDA4PEA8ODBMTFBQTExwbGxscHx8fHx8fHx8fHwEHBwcNDA0YEBAYGhURFRofHx8f&#xA;Hx8fHx8fHx8fHx8fHx8fHx8fHx8fHx8fHx8fHx8fHx8fHx8fHx8fHx8fHx8f/8AAEQgBAAEAAwER&#xA;AAIRAQMRAf/EAaIAAAAHAQEBAQEAAAAAAAAAAAQFAwIGAQAHCAkKCwEAAgIDAQEBAQEAAAAAAAAA&#xA;AQACAwQFBgcICQoLEAACAQMDAgQCBgcDBAIGAnMBAgMRBAAFIRIxQVEGE2EicYEUMpGhBxWxQiPB&#xA;UtHhMxZi8CRygvElQzRTkqKyY3PCNUQnk6OzNhdUZHTD0uIIJoMJChgZhJRFRqS0VtNVKBry4/PE&#xA;1OT0ZXWFlaW1xdXl9WZ2hpamtsbW5vY3R1dnd4eXp7fH1+f3OEhYaHiImKi4yNjo+Ck5SVlpeYmZ&#xA;qbnJ2en5KjpKWmp6ipqqusra6voRAAICAQIDBQUEBQYECAMDbQEAAhEDBCESMUEFURNhIgZxgZEy&#xA;obHwFMHR4SNCFVJicvEzJDRDghaSUyWiY7LCB3PSNeJEgxdUkwgJChgZJjZFGidkdFU38qOzwygp&#xA;0+PzhJSktMTU5PRldYWVpbXF1eX1RlZmdoaWprbG1ub2R1dnd4eXp7fH1+f3OEhYaHiImKi4yNjo&#xA;+DlJWWl5iZmpucnZ6fkqOkpaanqKmqq6ytrq+v/aAAwDAQACEQMRAD8A9U4q7FXYq7FXYq7FXYq7&#xA;FXYq7FVk9xBbxNNPIsMKCrySMFUD3J2xVhusfmz5YsS0dqZNQmG37kcY6+7tT/hQcNKw/Ufzk8wz&#xA;kiyt4LND0JBlcfS1F/4XGlY9d+evN90f3uq3C1/303o/8mgmFKVTalqM5rNdTSnxeRm/WcVQ2Kt4&#xA;qioNV1SA1gvJ4j1qkjrv9BxVNrPz/wCcbQj09UmcDtNSav8AyMDYqyHTvzm1yEgX1pBdIOpTlC/3&#xA;/Gv/AAuCkMt0n82vK16VS5MlhKdv3y8kr7OnL8QMaVmFreWl3Cs9rMk8LfZkjYOp+kVwKq4q7FXY&#xA;q7FXYq7FXYq7FXYq7FXYq7FXYq7FVskkcal5GCIOrMQB95xVCNruiK3BtQtg/wDKZowd/auKomG4&#xA;t515QypKo6lGDD8MVVMVdirsVeC/mJ/iKHzBNbavdSXEan1LNj8MZib7JVBRQex98ISxXCrsVdir&#xA;sVdirsVdirsVdirsVRenatqemzevYXUltL3aNitfZh0I+eKvQ/Lv5xzoVg16D1V6fW4AAw93j6H/&#xA;AGNPlgpD0rStY0zVbYXOn3KXEJ6lDup8GU/Ep9iMCozFXYq7FXYq7FXYq7FXYq7FXYqkXmbzpofl&#xA;6P8A0yXndMKx2kVGkPuR0Ue5+jFXluufmv5l1BmSzZdNtz0WH4pCPeQiv/AgYaSxC6vLy7k9S6nk&#xA;uJP55XZ2+9icKqOKr4pZYnEkTtG46OpII+kYqyfRvzK816YVU3RvIB1huv3m3s/2x9+CleneVvzI&#xA;0PXWS3c/UtQbYW8pBVz/AMVvsG+RocaQyzArGvPnlNPMOjskYA1C2rJZudqmnxRk+D0++mKvApI5&#xA;I5GjkUpIhKujChBBoQQcklbirsVdirsVdirsVdirsVdirsVdiqM0vV9S0q6W60+4e3nX9pDsR4MD&#xA;sw9jirNJ/wA5fML2qRxW1vHOBSWchmqfFVqAv44KQkN3+YPnG6JMmqSoD2i4xU/5FhcKUB/ifzLz&#xA;5/pa95kULfWJa0+fLFUxsfzE842bApqUkqjqk4WUH6XBb7jgpWY6H+c6Myxa1Z8Adjc21SB842JP&#xA;3N9GNIei6bqunanardWFwlxA3R0PQ+DDqp9jgVFYq7FXYqwn8wfzATQkOn6eVk1aRasxoVhU9Cw7&#xA;sew+k+5V4tc3NxczvcXEjSzyktJI5LMxPck4UqWKo3StF1TVrn6tp1s9zL+0FGyjxZjRVHzOKs0t&#xA;PyZ8wSRhrm7trdiP7sF5GHzoAPuJwWhq8/JnzDEha2ura4IH2CXjY/KoI+842rDdW0PVtIn9DUbV&#xA;7aQ/Z5D4W/1WFVb6DhSggSCCDQjocVep/l3+ZEkksWja1JyZvgtL1zuT2SQnrXorffgIQ9QwK8o/&#xA;Nnyf6Uh8wWMf7tyF1BF7Mdll/wBl0b3+eEK8ywpdirsVdirsVdirsVdirsVdirsVZl5S8gw+Y9Du&#xA;ruC+9PUIHKLalQV+yCnM1qOZqK+2BWJXFvPbXElvOhjnhYpJG2xVlNCDhVSxV2KuxV2KpjofmDVd&#xA;EvBd6dMYn/bQ7o4/lde4/wAxir3Pyf5ysPMlkZIh6N7CB9ZtSalSf2lPdTkUMgxVJfN/mOLy/oc1&#xA;81GnP7u1jP7UrA8foH2j7DFXz3dXVxd3MtzcSGWeZi8kjbksTUnJJUcVTLy9ol1rer2+m2/wvM3x&#xA;yEVCIN2Y/IYq9Q8xeZNJ8iadFouiQI+oMnJi2/Gu3qSkbs7dh/CgwIeZ6h5r8x6hKZLrUZ3JNQiu&#xA;UQfJF4qPuwpU7PzJ5gs5PUttRuI270lYg/NSSD9OKs98vfmNZa3GNF82wRSRT/Ct2QFTkenqAfYP&#xA;g60p7dcFIYx568lzeW75WiLTaZcV+rTN1B6mNyO47eOKWMYVe4fll5tbWtJNpdvy1GxAV2PWSLoj&#xA;/Ps39uAoZfc20FzbyW9wgkgmUpLG3RlYUIOBXgHmzyhfaLrzafDHJPFN8diyqWZ0J6UA3ZehySUR&#xA;p35aecb0BhYm2jP7dwwjp81Px/8AC4LVP7X8lNUYD63qUEJ7iJHl/wCJenjaEwj/ACStBT1dWkb+&#xA;bjCFr8qu2Nq1J+SNua+nq7rvtygDbfQ642qW3f5La0gJtb+3mp2kDxE/cJMbVj+o/l15wsAWfT3m&#xA;jH7duRL/AMKhL/hjaWOyRSROY5UKSLsyMCCD7g4VWYq7FXYqzr8q9M8yNrSX9gPT05fgvJZKiN07&#xA;ov8AM3hTp3wFDIvzP8nRajbN5g0sCS5gBF6kdD6iJsXFP2o6UPt8sQryPCl2KuxV2KuxVH6JrN9o&#xA;2pw6hZvxmiO6n7LqftIw8GGKvofRNYtNY0u31G1P7qda8T1Vhsyn3U7ZFDyX83tba88wJpqN+409&#xA;AGA6GWQBmP0LxH34QlgeFXYq9P8AyTso2n1S+YAyRrFCh7gOWZv+ILgKHnus6lNqeq3eoSkl7mVn&#xA;37KT8K/7FaDClBYq7FXYq9Z8pS/4v8iXuh3Z53liAlvI25GxaBiT4FSvywIeTspVirChBoQfHClP&#xA;fI+tto/mazui3GB3EFz2HpyHiSf9U0b6MVfQ2RQ6grWm474q7FXYq7FXYq7FXYqgdU0PSNVj9PUL&#xA;OK5WlAXUch/qt9pfoOKsB8wfk1buHm0O5MT9Ra3B5J8lkHxD6QfnhtXl17Z3FldzWlwoS4t3aOVQ&#xA;Q1GU0IqpI64Usk8h6D5d1Cee61y/it7W0owtXkWNpepJ3IPEU/ZwKmnm38ymnhOk+XV+paZGPT9Z&#xA;Bwd1G1EApwX8fljSEV+T2pa0LyewWF59IcF5ZT9mGSmxBP8AP0K9e/jiVS38yvJX6Fvv0hZJTS7t&#xA;j8KjaGQ7lP8AVPVfuxCWEYVXpFI9eCFqdeIJp92KrMVdirsVek/k3rzRX9xosrfurlTPbg9pUHxg&#xA;f6yb/wCxwFDBNbvWvtYvrwmv1ieSQfJmJH4YUoHFXYq9L/JXUY0vNS09iA86JNF7+mSrD/hxgKGA&#xA;axp0mm6rd2EgPK2laOp7gHY/SN8KUHirsVdir0v8k1k+v6owr6YijDHtyLHj+o4ChgWucP03qHCn&#xA;D6zNxp0p6hphSgcVfSnl69a90HTrtjV57aJ3P+UUHL8cihMMVdirsVdirsVdirsVdiqjfXSWllcX&#xA;cn93bxvK/wAkUsf1Yq+ZZ5pJ55JpDyklYu58WY1OSSp4qr2P1P67B9d5/U/UX6x6dOfp1HLjXvTF&#xA;Wfa7+ZlnbaamleUrc2VsFo1wV4uteoQVPxeLnf8AXgpCcfl3rZ8z6Jd+XtZje5WGOn1hqnlGxooZ&#xA;+zqfsnr92JVRksfy28mfBej9K6ou5jZVlZe4+A0jT/Zb4qon86oYiI7XRQsCnYGcLt/qrGQMaVF2&#xA;/nvyL5lYWuu6ettLJ8KyzhWUV22nXi6fPYe+KsY89/l7LoP+5CwZrjSXIqTu8JboGI6qezfQfdtL&#xA;CsKpp5X1BtP8xadeA0EVxHzP+Qx4v/wpOKpXirsVdiqP0LWLnR9WttRtv7y3apXsynZlPsymmKvR&#xA;/OXly3826ZD5n8v/AL25KUubcfbcKOlP9+J0p3HTtUIeVujo7I6lXUkMpFCCOoIwpW4qvihlmlWK&#xA;FGklchURQSxJ6AAYq9g0u2j8heR7i7uyo1W7+L09ifWZaRxe/Dq304EPHSSSSTUnck4UtYq+hvIX&#xA;/KH6V/xgH6zkUJ9irsVdirsVdirsVdirsVSPzxK8flHVmXYm2dfoccT+BxV875JLsVdiqtZ2k95d&#xA;w2tuvOed1jiUd2Y0GKvVPM2pQeRfLVtoWksBql2pea5GzAdHl+bH4U8Ke2BDyd3d3Z3Ys7ElmJqS&#xA;TuSScKVuKuxV6v8Albrg1fTbzyzqZ9eNIiYOW5MDfA6VP8pYcfn7YCh5prGnSabqt3YSbtayvFy8&#xA;QpoG+kb4UoQEggg0I6HFUVq1m1lql5ZsKG3mkip/qMR/DFUJirsVdir0n8mtP1Rr26v1meLTI19O&#xA;SL9iWUioFD/IN6jfp74ChM9T1z8rfMF7PFqS+hcxuY0vgrJ6nE0DCSOtR4cxiqGXyD+WbD1V18+j&#xA;3/0u2oCexJTbFUTFrv5Z+Uo2fSlF/f0IV46yue3983wIPHj92KvPfNHmvU/MV99YvCFijqLe2X7E&#xA;anw8Se5wpSXFXYq+k/Llm1loGnWjCjw20SSD/KCDl+ORQmOKuxV2KuxV2KuxV2KuxVKfNtqbryxq&#xA;sCirNaylB4sqlgPvGKvnHJJdirsVZn+Util15vSRxX6pBJOo99ox/wAnMBVAfmHfSXnnDUmcmkMn&#xA;oIp7LEAu3zIJxCsbwq7FXYqzb8olc+b1K1otvKXp4bDf6SMBVK/zBdH856qybgShTTxVFVvxGFUl&#xA;0+1a7v7a1UVa4lSID3dgv8cVZf8Am1ojWPmU3yLS31FBID2EiALIP1N9OAKwjCrsVRWmaddalqEF&#xA;harzuLhwiDtv1J9gNzir3X9EaXZ6CvlK0v1srya3IjccfVeppJJxJFeRr0+jpkUPHfMvkzXPL8v+&#xA;mQ87Ymkd3HVom8AT+yfY5JKRYq7FXYq7FU88l6K2seZLKz48oQ4luPARR/E1fn9n6cVfRGRQ7FXY&#xA;q7FXYq7FXYq7FXYq0yqylWFVYUIPcHFXzb5i0l9J1u905wR9XlZUr3jO6H6VIOSSl2KuxVmH5U6i&#xA;ln5vhRzxW8ie3r7mjqPpZAMBVT/M7SJdP82XUhB9G9pcQt48tnH0ODiFYnhV2KuxV6p+XtjF5a8t&#xA;X3mjUhwaaOlsh2JjH2QPeV6U+QOBDzC6uZbq6muZjymndpZG8WclifvOFLKvyu0htQ82QSstYbEG&#xA;4kP+UNox/wAGQfowFXq/nXy0nmDQpbQUF1GfVtHPaRR0J8GGx+/Ah8+zwTQTPBMhjmiYpJGwoVZT&#xA;QgjJJU8Veu/lF5V+rWja9dJSe5BSzB/Zir8T/NyNvb54Chg3nlfMS+Y57vV4Htp5HrbkGqCNPsCN&#xA;xseI8O/XfFK288+eZL3Q20a7nWe2fjyldQZSqEMFL/MdaV98KsdxV2KuxV2KvbPyt8qNpOlNqN2n&#xA;G+1AAhSKGOHqqn3b7R+jwwFDOMCuxV2KuxV2KuxV2KuxV2KuxV5r+b/ldp7ePXrVKyW4EV4oG5jr&#xA;8L/7Emh9vlhCvJcKXYqvhmlgmjmhYpLEweN12KspqCPkcVewWd9oP5iaEljfOLbWbcchxpzV6byR&#xA;g/aRv2l/sOBDB9X/ACz826fKypaG9hr8E1t8dR7p9sfdjaUBa+R/N104SPSblSTSsqGEffJwGFWZ&#xA;6L+W+m6JENX823USxQkMtoDVOQ3Ac/tn/IUb++C0Mc89+eJvMVysFupg0q3P7iE9Xbceo4Ht0HbF&#xA;LFMKvd/y38rtoehB7hON/fUluFPVVA+BD/qg7+5wFDLMCvIPzms9Ph1aynhjCXlzG7XTDowUqsZI&#xA;8eorhCsK0CzsbzWrO1vphb2csqrPKxoAvcV7V6V7YUs7/MjzuI5bXSNAufShs+Lyz2z0HJRRI1ZT&#xA;0Udf7MAQ1on5mafqVr+ivN9sk8D/AA/WwlR85EG4P+Un3d8aVIvPXlfRdJ+rXmj36XNneE8IOau6&#xA;ACtQwPxLvTfp74pYlhV2KuxV6V+XX5dSzyxazrMXG2Wj2lo43c9ncdlHYd/l1BKHrWBXYq7FXYq7&#xA;FXYq7FXYq7FXYq7FVskccsbRyKHjcFXRhUFSKEEHscVeHefvIdxoFy15ZqZNImb4GFSYSf2H9v5W&#xA;/jhSw7CrsVXxSywyLLE7RyIao6EqwI7gjFWWad+anm+zjWNp47tV2H1lOR+llKMfpOClV7r83vN0&#xA;6lYzb2xIpyiiJI/5GNJjSsV1LV9T1Of19QupLmTsZGJAr2UdFHywqg8Vem/lr+XzySQ67q0dIVo9&#xA;jbMN2PVZXH8o/ZHfr06glD1fArsVeJ/m/dGbzaIq7W9tHHT3Ys//ABvhCWD4VdirsVdireKp7o3k&#xA;fzPq7L9WsXSE/wDHxOPSjA8at9r/AGIOKvT/ACp+VulaSyXWoEX98u6gj9zGf8lT9ojxb7sFoZvg&#xA;V2KuxV2KuxV2KuxV2KuxV2KuxV2KuxVZNDFNE8MyLJFICrxuAysD1BB64q8w81/lCxZ7vy8wod2s&#xA;JGpT/jG5/U334bV5vf6bqGnzmC+t5LaYfsSKVJ9xXqPlhShcVdirsVTHR/L2taxN6WnWkk+9GkAp&#xA;Gv8ArOaKPpOKvVPKH5VWOmsl5rDLe3i7pABWBD71+2fnt7d8FoZ/gV2KuxV4B+Y05m86am38rog/&#xA;2Ear/DCEsawq7FXYqyv8stJttT81wx3UKT28EUk0kMih0ag4DkpqD8Tg4Cr2610jSrQg2tlBbkdD&#xA;FEidP9UDAhF4q7FXYq7FXYq7FXYq7FXYq7FXYq7FXYq7FXYq7FXYqpXVnaXcRiuoI7iI9Y5VV1+5&#xA;gRirHbv8tfJlySx08ROe8LyIP+BDcfwxtUIPyl8nAg+lOfb1ThtUxsfy+8nWTBotMjdh3mLTfhIW&#xA;X8MFqn8UUUUaxxIscaiiooAUD2AxVdiqV3XmjQba/g097yNr24kWKO3jPN+TGg5Ba8f9liqaYq7F&#xA;Xzr5zfn5s1c15UupVr/qsRT6KZJKS4q7FXYq9C/JZVPmG9enxC0IB9jKlf1YCh7FgV2KuxV2KuxV&#xA;2KuxV2KuxV2KuxV2KuxV2KuxV2KuxV2KuxV2KuxVKNW83eW9JBF9fxJIP90qfUk/4BOTD6cVYTq/&#xA;50wLyTSLEyHtNcniv/ItCSf+CGGlYPrHnrzTq1Vub50hP+6IP3SU8DxoW/2ROFKl5L/5SzSP+YqL&#xA;/iQxV9FZFDsVfO3nVSvm3VgRQ/WpD9BaoySUkxV2KuxVnv5NScfNFwhJo9m4A7EiSM/qrgKHs+BX&#xA;Yq7FXYq7FXYq7FXYq7FXYq7FXYq7FXYq7FXYq7FXYq7FXYq8k/N7XNUh1uHT7e7lhtPqqPLDGxRW&#xA;dnepalK/CB1whXm2FLsVdiqeeR4y/m7SVHa5Rv8AgTy/hir6IyKHYq8B/Mm39DzrqS02do5B/s41&#xA;Y/icISxnCrsVdirK/wAsLsW/nOyB2WcSQn/ZISP+GAwFXvOBDsVdirsVdirsVdirsVdirsVdirsV&#xA;dirsVdirsVdirsVdirsVeCfmbeC5853/ABNUh9OEfNEHL/hq4Qli2FXYq7FWWfldbGbzrYt+zCss&#xA;jfRGyj/hmGAq94wIdirxn85bIxeY7e6A+C5tlqfF42YH/hSuEKwHCl2KuxVFaXfPYanaXybtazJM&#xA;AO/Bg1Pppir6YiljliSWNg0cihkYdCpFQcihdirsVdirsVdirsVdirsVdirsVdirsVdirsVdirsV&#xA;dirsVWTTRwwyTSHjHEpd28FUVJxV8z6levfajdXsn27mV5W+bsW/jkkobFXYq7FXo/5K2JfVtQvi&#xA;PhggWIH3lbl+qPAUPXcCuxV57+c2mmbRLO/UVa0mKMfBJhuf+CRcIV47hS7FXYq7FXu/5Ya0NS8q&#xA;wRM1biwP1aQV34rvGflwoPowFDLcCuxV2KuxV2KuxV2KuxV2KuxV2KuxV2KuxV2KuxV2KuxViH5o&#xA;60NO8rTQqaT6gfqyD/IO8h+XEU+nCFeFYUuxV2KuxV7b+UWmG18rG6YUe+maQHvwT92v4qx+nAUM&#xA;3wK7FUs8zaT+ltAvtPoC88TCKvT1F+KP/hwMVfN7KysVYEMDQg7EEZJLWKuxV2Ksv/LLzINH8wrD&#xA;O3Gz1ACCWpoFev7tz8jt8jgKvdcCHYq7FXYq7FXYq7FXYq7FXYq7FXYq7FXYq7FXYq7FXYq8I/Mv&#xA;zGus+YnjhblZ2AMEBHRmr+8cfNtvkBhCWJYVdirsVVrS1mu7qG1gXlNO6xRr4s54gfecVfSumWEW&#xA;n6dbWMP93bRJEvuEFK/TkUInFXYq7FXg35laEdK80XDIvG2vf9Jh8Kuf3i/Q9dvCmEJYphV2KuxV&#xA;2KvdPy283DXNJFrcvXU7JQstTvJH0WT38G9/ngKGYYFdirsVdirsVdiqhd39jZpzu7iK3TryldUH&#xA;3sRiqVP558oIxVtWtyR/K3IfetRiqvaea/LV2Qtvqls7nonqqGP+xJBxVNQQQCDUHocVdirsVdir&#xA;sVdirsVYb+Zfm4aLpJsrZ6alfKVjp1jiOzSfPsvv8sIV4bhS7FXYq7FWe/lFoBvddfU5Vrb6ctUq&#xA;NjM4IX/gVqfuwFD2fArsVdirsVYj+Zvlz9MeXXmhXleafWeGnUpT94n0qK/MYQrwnCl2KuxV2Ko7&#xA;RdYvdH1KHULN+M0JrQ/ZZT9pWHgRir6B8teY7DX9MjvrQ0J+GeEn4o3HVW/ge4yKE1xV2KuxVKvM&#xA;HmfR9AtfX1CbiWr6UC/FLIR2Vf4nbFXk/mH819f1Fmi08/o216D0zWZh7ydv9jT54aSwyeeeeVpZ&#xA;5GllbdpHYsxPuTvhVTxV2KpnpPmXXdIcNp97LAB/usHlGfnG1VP3Yq9I8sfm/b3Drba9Etu7bLeR&#xA;A+nX/LXcr8xX6MFIejxSxTRrLE6yROAySIQykHoQRscCrsVdirsVSjzP5msPL2mPe3R5Ofht7cGj&#xA;SP4D2Hc9sVfP+save6vqM2oXr855jU0+yoGwVR2AHTJJQWKuxV2Kro45JZFjjUvI5CoiipJJoABi&#xA;r6H8neX10HQLexIH1gj1Lph3lf7W/wDk/ZHsMihO8VdirsVdirsVeEfmP5VOh620kCU069JktyOi&#xA;t+3H/sSdvbCEsSwq7FXYq7FU28t+ZdR8v6it5ZNUH4Z4G+xIn8rfwPbFXv2gazBrWkW2pwI0Udwp&#xA;IjfqCpKsPfcGhyKEwxVj/nLzhZ+W9O9VwJb2aq2ttX7RH7TeCr3xV4Pquq3+q3sl7fTNNcSHdj0A&#xA;7Ko7KOwySUHirsVdirsVdirsVZZ5I8+33l64WCYmfSZG/ewHcpXq8XgfEdD+OBXudpd215bRXVtI&#xA;JbeZQ8ci7gqcCFXFUh81+cdK8uWvO5b1btxWCzQ/G/uf5V9zirwzzB5h1LXdQa9v5OTnaONdkjXs&#xA;qDwySUsxV2KuxV2KvRvyl8pm6vP09dp/o1qStmD0eXu/yT9fywFD17ArsVdirsVdirsVSrzN5ftd&#xA;e0ebT7j4S3xQS0qY5F+yw/UfbFXz1qem3mmX81jeJ6dxA3GRf1EeII3BySULirsVdirYBJAAqT0G&#xA;KvpXQdOGm6LY2NKG3gSN/dgo5H6WrkUIi9vLeytJru5cJBAjSSueyqKnFXzt5l1+613V59QuCQHP&#xA;GGKtRHGPsoP4++SSlWKuxVG2Wi6xfLysrG4uU/mhidx96g4q1eaRq1iA17ZT2qnoZonjB/4IDFUH&#xA;irsVdirsVZ/+V/naPS530rUphHpsvJ4ZXNFikAqRX+V/1/M4ChNvNP5vxqHtfL6cm3Bv5VoB7xxn&#xA;r82+7GleYXd3dXdw9zdStNPKeUkrksxPuThSo4q7FXYq7FU78peWLvzFqyWcNUgWj3U9No467/7I&#xA;9FGKvoKwsbWws4bO1jEdvAoSNB2A/j45FCvirsVdirsVdirsVdirD/zC8jpr9n9btAF1a2U+kegl&#xA;Qb+mx8f5ThCvDpYpIpHilQxyxkq6MCGVgaEEHvhSsxV2Kp35K079I+atNtSKoZlkkHbhF+8YH5ha&#xA;Yq+icih5/wDnFrLWui2+mRtR7+QtLT/fUVCR9LFfuwhXjeFLYBJAAqTsAMVep+XvJOg+XdKGuebO&#xA;BmNDHayDkiE7qpT9uQ+HQfjgQpah+dLq/p6XpqrAmyNcMakDp8CUC/8ABHGlb0/85klPo6xpim3k&#xA;+GR4Dy2PjG/2h/ssaVb5p8i6Rq+mHX/KRV1oXmtIvssBu3BeqOO6fdv1VeY4UuxVEadai71C2tC3&#xA;AXEqRc+tObBa/jiqeefPLFt5c1pLK2leaGWBJ1MlOQ5MyEEqAOqeGBWN4VdirsVdirsVR+i6LqGs&#xA;6jHYWMfOeTck7Kqjq7HsoxV795W8s2Pl7S0srYcpD8VzOR8UklNyfbwHbIoTfFXYq7FXYq7FXYq7&#xA;FXYq7FWDfmD+XsetI+pacAmqovxx7BZwvY+D+B+g+xtXi80M0ErwzI0UsZKyRuCrKw2IIPQ4UrMV&#xA;eifkxp3q6ze37Cq2sIjU/wCXM3X/AIFDgKHsGBXin5wXjTealgr8NtbxoB7sS5P3MMIVg2FLNvyo&#xA;0CPUvMLXk68rfTVEtD0MrGkdflQt9GAqlvnzzRNr2uSurn6hbMYrOOvw8QaF6eL9flQYqxvCrsVZ&#xA;d+W/miXRtdit5H/3H3zLFOh6Kx2SQeFD19sBVr8zdBj0nzNI0C8bW+X6xGB0DEkSKP8AZCv04hU4&#xA;/LXStLvfLnmA3VvHNME4hnUFlX02I4k/ZPIV2xKGE6AQNd04k0AuoSSf+Mi4Usz/ADpA/T9kabm0&#xA;AJ+Uj4Ah57hS7FXYq7FUx0LQNT1y/Wy0+LnId3c1CIv8zt2GKvd/KflHTfLliIbcepdSAfWboj4p&#xA;CP1KOwyKE8xV2KuxV2KuxV2KuxV2KuxV2KuxVinnPyBp3mKM3EdLXVFFEuQPhenRZQOo9+o/DCrx&#xA;TWNE1PR7xrTUIGhmG613Vh/MjDZh8sKXr/5Rad9W8q/WmFHvpnkB78E/dqPvUnAUM3wK8J/NX/lN&#xA;bv8A1If+TS4QliOFXqH5cH6v5D8x3sZAmVZ6Edf3VvyX8WwFDy/Cl2KuxVsEg1GxGKvdvMnlnR/M&#xA;lhpc+q3htJI4uSurInIyqhYfGD044EO8v6D5U8vWN5bQaoGjvgFmeaeHaisvwUC0+0etcVSa08g/&#xA;lzbTpMusF3jZXTndW9Kqaj7KriqZeYrL8u/MF5Fd6hrFuZIY/SVY7yFVK1J33r1Pjirzzz5o/lDT&#xA;ja/4fvRcvJy+sRpKs6qBTi3Jeh67VxSxLCrsVZT5R/L/AFbzBIsxBtdNB+O6cfaHhGp+0ffpgtXt&#xA;WhaBpeh2K2enxCOMbu53d2/mdu5wITHFXYq7FXYq7FXYq7FXYq7FXYq7FXYq7FUDrGh6XrFobXUb&#xA;dZ4j9knZlPijDdT8sVVNL06303Trewtq+hbII0LULEDuaAbnqcVRWKvGvzlsWi8xW12B8FzbgV/y&#xA;42IP/ClcIVgGFL0z8oriG7sda0KU0+sR+oo8VdTFJ91VwFDzm8tJ7O7mtLheE8DtHIvgymhwpUcV&#xA;diqK0vT59R1G2sIBWW5kWNe9ORoSfYDc4qz385byEXWl6VF0tIWkYeAkIVB9AjwBDzjCl2KuxV2K&#xA;pjo3l/WNZnEOnWrzmtGcCiL/AKzn4Rir1Pyt+UunWJS51llvrobi3WvoKfeu7/TQe2C0M/VVRQqg&#xA;KqiiqNgAOwwK3irsVdirsVdirsVdirsVdirsVdirsVdirsVdirsVdirCvzY0M6h5b+txLWfTW9bb&#xA;r6TbSD6Nm+jCFeIYUpn5b1250PWLfUYPi9I0lj6B422dfpH44q9D86eUrfzRax+ZfLZWeWVR9YgW&#xA;gMnEUqB2kXoVPX9YQ8tngnglaGeNopUNHjcFWB8CDuMKW7e2uLmZYbeJ5pnNEjjUsxPsBvir1Xyj&#xA;5YtPJ2my+ZPMDCO8CEQwVBMYb9kb0Mj9Nug+nAh5prusXOsatc6lc7SXD8uI6Ko2VR/qqAMKUBir&#xA;sVVrO0nvLuG1t15zzuscSjuzGgxV7Hof5Q6BZFZdRkfUZhvwP7uL/gVJY/S30YLQze2tba1hWC2i&#xA;SCFBRIo1CqB7AUGBVTFXYq7FXYq7FXYq7FXYq7FXYq7FXYq7FXYq7FXYq7FXYq7FWnRJEZHUMjgq&#xA;yncEHYgjFXz/AOefKk3l7WHiVSbCcl7KXr8Nd0J/mTp+OFLHMKp35Z836z5dnL2MgaCQgzWsm8b0&#xA;707H3GKs9T81PKWoxKNa0hmlA3BjiuE+gvxP4YKQ1L+a/lfT4mTRNIZXIp9iK3Tpt9jkTT5Y0rAP&#xA;MfmvWfMFyJtQlHppX0bdBxjSv8o339zvhSk+KuxV2KvUvyl8oMG/xDepQUK6ejDrXZpf4L9PtgKH&#xA;qWBXYq7FXYq7FXYq7FXYq7FXYq7FXYq7FXYq7FXYq7FXYq7FXYq7FXYqlvmDQLDXdNksL1ao28cg&#xA;pzjcdHUnvirwjzR5S1Xy7eGG7TnbuT9Xu1HwSD+DeK5JKSYq7FXYq7FXYq7FWe+Q/wAtrnVZI9R1&#xA;ZGh0wENHC1Vef+Kp79+3jgtD2aONI0WONQiIAqKooABsABgVvFXYq7FXYq7FXYq7FXYq7FXYq7FX&#xA;Yq7FXYq7FXYq7FXYq7FXYq7FXYq7FVC9sbO+tntbyFJ7eQUeOQBgfvxV5v5g/JpWZptCuQgO/wBU&#xA;uCSB7LIKn/gh9OG1YJqPkzzTp7EXOmT8R1kjX1U/4KPkMKUndHRirqVYdVIofxxVUt7O7uW428Ek&#xA;zeEas5/AHFWSaT+Wnm7UWUm0+pxHrJdH06f7DeT/AIXBavRfLP5WaHpLJcXp/SN4tCpkWkSH/Jjq&#xA;a/NsbQzXArsVdirsVdirsVdirsVdirsVdirsVdir/9k=</xmpGImg:image>
               </rdf:li>
            </rdf:Alt>
         </xmp:Thumbnails>
          <xmpTPg:MaxPageSize rdf:parseType="Resource">
            <stDim:w>100.000000</stDim:w>
              <stDim:h>100.000000</stDim:h>
              <stDim:unit>Points</stDim:unit>
         </xmpTPg:MaxPageSize>
          <xmpTPg:NPages>1</xmpTPg:NPages>
          <xmpTPg:HasVisibleTransparency>False</xmpTPg:HasVisibleTransparency>
          <xmpTPg:HasVisibleOverprint>False</xmpTPg:HasVisibleOverprint>
          <xmpTPg:PlateNames>
            <rdf:Seq>
               <rdf:li>Cyan</rdf:li>
                <rdf:li>Magenta</rdf:li>
                <rdf:li>Yellow</rdf:li>
            </rdf:Seq>
         </xmpTPg:PlateNames>
          <xmpTPg:SwatchGroups>
            <rdf:Seq>
               <rdf:li rdf:parseType="Resource">
                  <xmpG:groupName>默认色板组</xmpG:groupName>
                   <xmpG:groupType>0</xmpG:groupType>
               </rdf:li>
            </rdf:Seq>
         </xmpTPg:SwatchGroups>
          <dc:format>image/svg+xml</dc:format>
      </rdf:Description>
   </rdf:RDF>
</x:xmpmeta>


    <?xpacket end="w"?>
	</metadata>
    <path id="形状_3_拷贝_2" fill="#858387" d="M37.8,28.531c0-7.815-6.335-14.15-14.15-14.15S9.5,20.716,9.5,28.531
	c-0.057,3.644,1.347,7.158,3.9,9.759c-0.566,2.896-0.892,5.834-0.976,8.783c-0.013,12.897,6.63,24.887,17.57,31.716l2.928-11.711
	c-5.906-4.963-9.303-12.292-9.271-20.006c-0.08-1.481,0.085-2.965,0.488-4.392C31.458,42.681,37.8,36.338,37.8,28.531z M50,20.724
	c4.599,0.089,9.112,1.259,13.175,3.416c-0.558,1.571-0.887,3.215-0.976,4.88c-0.001,7.815,6.335,14.151,14.15,14.152
	s14.151-6.335,14.152-14.15c0.001-7.815-6.335-14.151-14.15-14.152c0,0-0.001,0-0.001,0c-1.824,0.088-3.629,0.416-5.367,0.976
	C64.764,11.716,57.466,9.509,50,9.5c-5.367,0-10.735,0.976-15.126,3.416l6.343,9.271C44.046,21.227,47.012,20.733,50,20.724
	L50,20.724z M76.349,48.048C75.861,57.807,70.494,66.1,62.2,70.006c-2.549-4.665-7.375-7.634-12.688-7.806
	c-7.815,0.093-14.075,6.503-13.982,14.318c0.091,7.684,6.298,13.89,13.982,13.982c5.757-0.015,10.946-3.475,13.175-8.783
	c14.871-5.294,24.825-19.347,24.885-35.132v-2.44C87.084,44.633,76.349,48.048,76.349,48.048z M47.26,69.856
	c1.79-0.029,3.505,0.721,4.7,2.055c1.099,1.218,1.779,2.756,1.94,4.389l2.3-0.054l-0.052-2.6c-0.027-0.381,0.257-0.714,0.638-0.747
	c0.176-0.002,0.345,0.071,0.465,0.2c0.127,0.141,0.199,0.323,0.2,0.513l0.049,2.601l2.41-0.056l-0.085-4.27
	c-0.027-0.381,0.257-0.714,0.638-0.747c0.177-0.004,0.347,0.069,0.466,0.2c0.127,0.141,0.199,0.323,0.2,0.513l0.085,4.27
	l2.245-0.052c0.177-0.004,0.347,0.069,0.466,0.2c0.127,0.141,0.199,0.323,0.2,0.513c0.027,0.381-0.257,0.714-0.638,0.747
	l-9.552,0.223c-0.078,1.683-0.702,3.295-1.778,4.592c-2.107,2.62-5.939,3.036-8.56,0.929c-0.269-0.216-0.518-0.454-0.746-0.713
	c-2.63-2.955-2.718-7.384-0.208-10.442C43.783,70.735,45.466,69.909,47.26,69.856z M42.131,77.362
	c0.012,1.537,0.592,3.015,1.628,4.15c1.788,2.02,4.876,2.208,6.896,0.419c0.205-0.182,0.395-0.38,0.566-0.593
	c2.012-2.452,1.941-6.002-0.166-8.372c-0.957-1.068-2.332-1.669-3.766-1.645c-1.438,0.046-2.786,0.709-3.7,1.82
	C42.602,74.322,42.083,75.824,42.131,77.362z M73.017,35.889c-1.068-1.436-1.46-3.264-1.077-5.011
	c0.343-1.604,1.192-3.056,2.421-4.143L72.974,24.9l-2.083,1.565c-0.294,0.245-0.73,0.209-0.979-0.081
	c-0.105-0.144-0.144-0.326-0.107-0.5c0.04-0.186,0.146-0.351,0.3-0.463l2.083-1.565l-1.455-1.923L67.317,24.5
	c-0.294,0.245-0.73,0.209-0.979-0.081c-0.107-0.143-0.146-0.326-0.107-0.5c0.04-0.186,0.146-0.351,0.3-0.463l3.413-2.556
	l-1.355-1.791c-0.107-0.143-0.146-0.326-0.107-0.5c0.04-0.186,0.146-0.351,0.3-0.463c0.294-0.245,0.73-0.209,0.979,0.081l5.765,7.62
	c1.411-0.921,3.084-1.357,4.765-1.242c3.357,0.181,5.932,3.05,5.751,6.408c-0.018,0.342-0.066,0.682-0.142,1.016
	c-0.86,3.861-4.402,6.522-8.35,6.273C75.762,38.188,74.11,37.309,73.017,35.889z M82.105,35.662c1.24-0.908,2.1-2.242,2.416-3.746
	c0.594-2.632-1.058-5.247-3.69-5.84c-0.266-0.06-0.537-0.098-0.81-0.113c-3.165-0.199-6.004,1.934-6.695,5.029
	c-0.307,1.401,0.009,2.867,0.866,4.017c0.878,1.138,2.203,1.843,3.637,1.935c1.533,0.11,3.052-0.346,4.271-1.282H82.105z
	 M31.72,29.069c-0.931,1.527-2.479,2.576-4.243,2.875c-1.616,0.282-3.28,0.039-4.748-0.694l-1.18,1.971l2.231,1.346
	c0.337,0.18,0.467,0.598,0.292,0.938c-0.094,0.15-0.247,0.254-0.421,0.285c-0.186,0.034-0.379-0.001-0.541-0.1l-2.231-1.346
	L19.64,36.41l3.66,2.206c0.337,0.18,0.467,0.598,0.292,0.938c-0.092,0.152-0.246,0.256-0.421,0.285
	c-0.186,0.034-0.379-0.001-0.541-0.1l-3.66-2.209l-1.153,1.927c-0.093,0.151-0.246,0.255-0.421,0.285
	c-0.186,0.034-0.379-0.001-0.541-0.1c-0.337-0.18-0.467-0.598-0.292-0.938l4.906-8.204c-1.382-0.964-2.412-2.352-2.935-3.954
	c-1.092-3.18,0.601-6.643,3.781-7.735c0.326-0.112,0.661-0.196,1.001-0.251c3.902-0.647,7.695,1.641,8.942,5.395
	C32.825,25.657,32.628,27.522,31.72,29.069z M28.108,20.727c-1.306-0.809-2.865-1.107-4.378-0.837
	c-2.663,0.436-4.468,2.947-4.032,5.61c0.044,0.269,0.11,0.533,0.198,0.79c1.001,3.009,4.042,4.843,7.17,4.325
	c1.414-0.24,2.655-1.082,3.4-2.307c0.727-1.241,0.885-2.735,0.433-4.1c-0.473-1.464-1.466-2.703-2.792-3.482L28.108,20.727z"/>
</svg>
