<?xml version="1.0" encoding="utf-8"?>
<!-- Generator: Adobe Illustrator 17.0.0, SVG Export Plug-In . SVG Version: 6.00 Build 0)  -->
<!DOCTYPE svg PUBLIC "-//W3C//DTD SVG 1.1//EN" "http://www.w3.org/Graphics/SVG/1.1/DTD/svg11.dtd">
<svg version="1.1" id="图层_1" xmlns="http://www.w3.org/2000/svg" xmlns:xlink="http://www.w3.org/1999/xlink" x="0px"
     y="0px"
     width="100px" height="100px" viewBox="0 0 100 100" enable-background="new 0 0 100 100" xml:space="preserve">
<metadata><?xpacket begin="﻿" id="W5M0MpCehiHzreSzNTczkc9d"?>
    <x:xmpmeta xmlns:x="adobe:ns:meta/" x:xmptk="Adobe XMP Core 5.5-c014 79.151739, 2013/04/03-12:12:15        ">
   <rdf:RDF xmlns:rdf="http://www.w3.org/1999/02/22-rdf-syntax-ns#">
      <rdf:Description rdf:about=""
                       xmlns:xmp="http://ns.adobe.com/xap/1.0/"
                       xmlns:xmpGImg="http://ns.adobe.com/xap/1.0/g/img/"
                       xmlns:xmpTPg="http://ns.adobe.com/xap/1.0/t/pg/"
                       xmlns:stDim="http://ns.adobe.com/xap/1.0/sType/Dimensions#"
                       xmlns:xmpG="http://ns.adobe.com/xap/1.0/g/"
                       xmlns:dc="http://purl.org/dc/elements/1.1/">
         <xmp:CreatorTool>Adobe Illustrator CC (Windows)</xmp:CreatorTool>
          <xmp:CreateDate>2018-05-07T10:52:33+08:00</xmp:CreateDate>
          <xmp:Thumbnails>
            <rdf:Alt>
               <rdf:li rdf:parseType="Resource">
                  <xmpGImg:width>256</xmpGImg:width>
                   <xmpGImg:height>256</xmpGImg:height>
                   <xmpGImg:format>JPEG</xmpGImg:format>
                   <xmpGImg:image>/9j/4AAQSkZJRgABAgEASABIAAD/7QAsUGhvdG9zaG9wIDMuMAA4QklNA+0AAAAAABAASAAAAAEA&#xA;AQBIAAAAAQAB/+4ADkFkb2JlAGTAAAAAAf/bAIQABgQEBAUEBgUFBgkGBQYJCwgGBggLDAoKCwoK&#xA;DBAMDAwMDAwQDA4PEA8ODBMTFBQTExwbGxscHx8fHx8fHx8fHwEHBwcNDA0YEBAYGhURFRofHx8f&#xA;Hx8fHx8fHx8fHx8fHx8fHx8fHx8fHx8fHx8fHx8fHx8fHx8fHx8fHx8fHx8f/8AAEQgBAAEAAwER&#xA;AAIRAQMRAf/EAaIAAAAHAQEBAQEAAAAAAAAAAAQFAwIGAQAHCAkKCwEAAgIDAQEBAQEAAAAAAAAA&#xA;AQACAwQFBgcICQoLEAACAQMDAgQCBgcDBAIGAnMBAgMRBAAFIRIxQVEGE2EicYEUMpGhBxWxQiPB&#xA;UtHhMxZi8CRygvElQzRTkqKyY3PCNUQnk6OzNhdUZHTD0uIIJoMJChgZhJRFRqS0VtNVKBry4/PE&#xA;1OT0ZXWFlaW1xdXl9WZ2hpamtsbW5vY3R1dnd4eXp7fH1+f3OEhYaHiImKi4yNjo+Ck5SVlpeYmZ&#xA;qbnJ2en5KjpKWmp6ipqqusra6voRAAICAQIDBQUEBQYECAMDbQEAAhEDBCESMUEFURNhIgZxgZEy&#xA;obHwFMHR4SNCFVJicvEzJDRDghaSUyWiY7LCB3PSNeJEgxdUkwgJChgZJjZFGidkdFU38qOzwygp&#xA;0+PzhJSktMTU5PRldYWVpbXF1eX1RlZmdoaWprbG1ub2R1dnd4eXp7fH1+f3OEhYaHiImKi4yNjo&#xA;+DlJWWl5iZmpucnZ6fkqOkpaanqKmqq6ytrq+v/aAAwDAQACEQMRAD8A9U4q7FXYq7FXYq7FXYq7&#xA;FXYq7FVK7vLSzt3ubyeO2tohWSeZljRR4szEAYq8x8zf85GeQtJZ4dPM2s3K7f6MOENfeWSlR7or&#xA;Ypp5nrf/ADk75zuyy6VZWmmRH7LMGuJR/sm4p/yTwLTC9R/Nv8ytQJNx5ivEr1Fu4th90AjxVj1z&#xA;rut3TcrrULmdvGWaRz/wxOKUFirumKphaeYdfszytNTu7c1rWKeRDXx+FhirItM/OP8AM3TiDD5g&#xA;uZQP2borcg+x9cSHFDNdF/5yh822xC6tptpqEY6tEXtpT/sv3if8JitPR/Lv/ORv5f6oViv2n0e4&#xA;bb/SU5xVPhJFz292C4Vp6Xp+padqVqt3p91FeWr/AGJ4HWRD32ZSRihEYq7FXYq7FXYq7FXYq7FX&#xA;Yq7FXYq7FXYq7FVk08MEZkmkWKNeruQqj6TiqWv5t8qJJ6b61YrJsOBuYQ2/TYtiqPtb2zu0L2s8&#xA;dwg6tE6uPvUnFVbFXYq7FXx/+dY87W3nK5sPMl/Newqxm0xm+CFrdyeDRxLRFI+y1BWo74Eh59il&#xA;2KuxV2KuxV2KuxV2KuxV2KpjonmLXdCuvrWj389hPtyaByoYDs4GzD2YYq9o8k/85OXcRS1832gn&#xA;j2H6StFCyD3kh2VvmlP9U4op7r5f8zaD5isFv9FvYr22PVoz8Sk/suhoyN7MAcKEzxV2KuxV2Kux&#xA;V2KuxV2KuxV2KsR89/mj5T8lw01O4Mt+68odNt6POw7EioCL/lMR7VxV8/ebP+ciPPWsu8WmOmh2&#xA;R2CW3xzkf5U7Ctf9QLgTTza/1PUtRm9fULua8nPWW4keV9/8pyTilDYqqQXFxbyrNbyvDKu6yRsV&#xA;YfIihxVnnlj89PzE0FkQ6gdTtFpW2v6zVHtLUSjbp8VPbFFPfPy+/PHyp5teOylJ0rWX2WynYFJG&#xA;8IZfhD/IgN7YUU9FxVgv5v8A5dRedfLLRQKq6zY8ptMlNBVqfFCxP7MgFPY0OKvjuaGaCaSGZGjm&#xA;iYpJG4KsrKaFSD0IOBksxV2KuxV2KuxV2KuxV2KuxV2KuxVMtA8ya55f1BNQ0a9ksrpP24zsw/ld&#xA;TVXX2YEYq9Ruv+cn/OklhFDb2FlBdhaT3ZWR+R/mSMsFT6eWKKYhqP5zfmdfsTNr9xED+zbcLcD2&#xA;HoqhxVKB5+89CQyjzHqnqkcS/wBduOVPCvPFKdaT+df5m6a6mPXJrhB1juwlwGHuZAz/AHNiinpv&#xA;lP8A5yijd0t/NOmCIE0N9Y1Kj3aByW+ZVz8sVp7boXmHRNe09NQ0e8ivbN9hLEa0PXiymjK3+SwB&#xA;woTDFXYq7FXlP5zfnLF5SiOjaMyTeYpkDO5oyWqN0Zx0MjD7Kn5nagKl8tX19eX93LeXs73N3Oxe&#xA;aeVizux6lmO5wJUcVTTy75W8weY74WOiWMt9cdWEY+FAe7u1EQe7EYq9R03/AJxe85TwiS+1Gxs3&#xA;YV9EGSZh7NRVX7icUW1qX/OL/nSCIvY6hY3pAqYi0kLk+C8lZfvYYrbzHzF5T8x+W7v6preny2Mx&#xA;+wZB8Dgd0kWqOP8AVOKUpVipDKaMNwR1BxV9B/kp+eM889v5Y80z83ekenarIfiLfsxTsTvXorfQ&#xA;fHFBD37Ch87/APORn5Z+hMfOelQ0glIXWYkGyyE0S4oOz/Zf3oe5wJDwbFLsVdirsVdirsVdirsV&#xA;dirsVdir078uPydtfO/lPUNRtdWEOs2krRx2BUFP7sNH6jV5KJGqA1O3fFDze9sruxvJ7K8iaC6t&#xA;naKeFxRkdDRlI9jilRxV2KuxV2Kp15T85eYfKmprqOi3TQSigliPxRSqP2JU6MPxHYg4q+tPyz/M&#xA;7R/POlGaAfVtUtgBf2DGpQno6H9qNj0P0HCxZnirFvzK87W/k3yndau9Huz+40+Fuklw4PAH2WhZ&#xA;vYYq+L9Q1C81G+nv72Zp7u5dpZ5nNWZ2NSTgZIfFU78meVL/AM1+ZLPQ7I8ZLlv3kxFViiUcpJD/&#xA;AKqjp3O2Kvf/ADr548uflHokHlbyrZxyazJGJJGfcJUU9e5IoZJH/ZXw8FoCUPBta/MPzxrNwZ9Q&#xA;1u7kJNRGkrRRKT/LFGVRfoGBKlpvnnzlpkwmsdbvYHBqQJ5Cp/1kJKt9IxV6/wCTPzt0rzVAPK35&#xA;j2lvPb3ZEcepFQkZc/ZMyigjap2kSlPbriimB/m5+Vtz5H1ZHt2e50K9JNjdPQsrDcwyEbcgNwf2&#xA;h9OKsA6YpfWP5DfmM/mny4dN1CXnrWkhUldj8U0B2jl36sPsv9B74UF6VfWNpf2c9leRLPaXMbRT&#xA;wuKq6OKMp+YOKHxv+Yv5bar5W83vo1tBNeW90TLpLxoZHliJ2Wijd0Pwtt79CMCUZov5Ffmbqqq4&#xA;0k2MLf7svXWAj5xkmX/hMVtmOn/84r+YJAP0jrlpbE9RbxST0/4P0MaW05g/5xT05ePr+YppKfb4&#xA;WypX5VkemNLa2f8A5xTsjX0PMkib/DztFeg8DSVMaW0j1H/nFnzRECdP1iyuqdpllgJ+XETD8cVt&#xA;hut/kn+ZmkKzy6LJdQr/ALts2W5r/sIyZPvXFbYTPBPbytDPG0UyGjxupVgfAg7jFKzFXYq7FXrX&#xA;/OPeheeX80R6xo6+hoqH0tTnnqIZY61aJAPtyDqKfZPXwKgs2/P38s4NasJPOWgBZr60BXVI4SGE&#xA;0UVVaQcf92Q8aN/kj/J3Kh834EuxV2KuxV2Kpv5U80ar5Y1211nS5OFzbt8SH7EkZ+3G47qw/qN8&#xA;VfanlTzNp3mby/Z63p7Vt7tORQ/ajcbPG3ujAjCxfOP/ADkn5rfU/OUehxPW00WIK6g7G4nAdz9C&#xA;cF9jXAkPIsUuxV73/wA4q6VA93r+rMAZ4Y4LWI9wspd5PvMSYhBeMeaNdude8xajrNwxaW+neX4v&#xA;2VJ+BPkqUUfLFKV4q7FXYq+ivy4uP+VlflFqnlPUm9XU9JCx2c77sPhLWjkn+VkaM/5I98UPnZ1Z&#xA;GKMCrKSGB6gjFLLvym81N5Z8+aXfs/C0lkFrfVNB6E5CsW9kNH/2OKH2lhQ7iKhqDkBQHvQ9f1Yq&#xA;7FXYq7FXYq7FXYqlOv8AlPy15gg9HWtNt75KUVpUBdf9SQUdf9iRirx3zl/zjDZSrJc+U7428vUa&#xA;feEvGfZJgOa+3IN88CbfP+qabeaXqV1pt6gjvLOV4LiMMrhZI2KsOSkqaEdjilnX5Q+UPJWtXd3q&#xA;Hm3V7eysNO4uNPkmSF7jYlieRDcFoK8NzXt3UJ/+Y356vdWp8u+SY/0VoMK+j9aiX0pZEG3GJRT0&#xA;o/8Ahj7dMVpMf+cZtd80rqd3pEdrLd+XJQZLi4O0drPSoIZtj6vQoN/2uxxUpD+ev5Wf4W1b9NaV&#xA;FTQNRkP7tRtbTncx+yNuU+7sKqh5VilfFBPLX0o2k47txBanzpiqzFXYq7FXuP8AzjF5ve21i98r&#xA;XEn+j3yG7slPaeIASKP9eMV/2GKC8j816o+reZtW1NjyN5dzzA9fheQlQPYDbFKVYq7FXu3/ADix&#xA;rUEWqa5o0hAluoobqCu1fQZkkHuf3qn6DiEF455m0SfQvMOo6POCJLG4khqf2lViFb5MtCMUpZir&#xA;sVdir3T/AJxVSY6xr8gB9BbeBXPbkzsVr70VsQgvIPNnpf4q1n0qel9eufTp04+s1KfRilKsVfdH&#xA;kvVH1XyhoupSNylu7K3llJ/340al/wDhq4WKc4q7FXYq7FXYq7FXYq7FULq2oRabpd5qM39zZQSX&#xA;En+rEhc/gMVfBt3dTXd1NdTtynuJGllbxZyWY/ecDJSxVFaT+jP0pZ/pT1P0b60f130aer6PIepw&#xA;rty41pir2Hzd+e+m2OhxeXfy4szpVisfF71kCSJyG6xLVvj/AJpGJNem/wAWKKZP+Svmo+ffKupe&#xA;S/M8El8ttAB9dcFg8DmiK8hrxljbdD1IFeqk4qhZ9I/Iz8rz6WqKfMOvpu0DolxIp6j90SsEXb7f&#xA;xeGKoZv+cpra3Kw2HlYJaoaKpuhH8PgESEqv3nFaTGy/Nz8o/PbjT/NujR2FxN8EdzdBHjFdgBdo&#xA;EkiPuQo98VYD+bv5L3HlAfpjSHe88uSsAzNQyWzOfhVyPtI37L/QexKry3FKf+QdYfRvOuiakrcV&#xA;t7yH1T/xU7BJR9KMRiqQYq7FXYqm/lLzNf8AlnzFY63Y7z2cgYxk0EiH4ZI29nUkYq9v/M/yRZfm&#xA;PoVt598m/wCk3xiC31ktPUlEY+yQD/fRfZ4/tClO1VD57kjkikaORSkiEq6MCGVgaEEHoRilbiqp&#xA;bW1xczx29tE81xKwSKKNSzsx2AVRuScVfS/l+wh/J/8AKe81HUWQeYdR+MQ7E/WXTjBACPtCIVZv&#xA;9lTthQ+ZWZmYsxLMxqzHcknucCWsVfaP5Qf+Sz8vf8wi/wDEjhYswxV2KuxV2KuxV2KuxV2KsT/N&#xA;ieSD8tvMbxmjGyljPX7Mg4N09mxV8VYGTsVdiqJ03TrvUtRttPs4zLd3cqQwRju8jBVH3nFX0H57&#xA;1y0/KPyLY+UvLjhdf1FDJc3y7OoPwyXG9fidhwj/AJQPbCh86yyySyPLK7SSyMWd2JLMxNSSTuST&#xA;gStxV2Kvof8A5x+82DzJoWp+Q9dJu4YrZjaiQksbR/3ckVT2jLLw8K+wxQXhXmXRZtD8wajo8xq9&#xA;hcSQcz+0EYhW/wBktDilLVYqQymjDcEdQcVTDzFpr6X5g1LTXXi1ldTW5H/GOQr/AAxVL8VdirsV&#xA;e5f84waNr76rqGrpdSW+gwr6M8Ap6dxcEVUEH/fSnkWG+4HQnFBT3XfNn/OP3nPVbu31yP6nfQyt&#xA;DHqwRovWCHiJFmh5BlI6eqMKoJPyd/IeQfWU84n6sN2H6RsAASRQEmPbr0O+BUbb+bfyI/LiF5fL&#xA;yLq+scSElhrPKTSlPrLj041Pf0/uOFXjHn/8w9e87asL3UmEdvDVbKxjJ9KFGO9K/aY7cmPX5UGB&#xA;LF8Vdir7m8kaY+leTtE06ReMtrY28cw/4sEa8/8Ahq4WKd4q7FXYq7FXYq7FXYq7FWOfmPYNqHkH&#xA;zBaovKR7C4aNR1LpGXUbf5S4q+IcDJ2KuxV6h/zjlpMV/wDmVFNIOX6NtZ7tAenL4YAfo9auKCk3&#xA;51atNqf5ma5JITxtpvqkSn9lLdRHt82Bb6cVDCMUuxV2KvU/+cbUlb8ykKAlUsrgy07L8I3/ANkR&#xA;igpB+c00Uv5n+YGiIKi4CGn8yRorf8MDirFtGsH1HV7HT0BZ7y4it1A6kyuEH68UvS/+cjfKr6T5&#xA;5OqxpSz1uMTKwFFE8QEcy/P7L/7LFAeU4pdiqP0HRNQ13WbPSNPj9S8vZBFEvYE9WY9lUVJPhir6&#xA;4PlrQNM8oJ+XGnawml6ldWTLDIOH1iQMaTTCMlS3qHkDQ1p06YWL5l89flh5s8mTn9J23qWDNxh1&#xA;KCrwPXoC1Kox/lantXAliWKXYq7FXYqyv8rvKz+ZvPOl6YU5WwlFxemmwgh+N69ftU4D3OKH2thQ&#xA;7FXYq7FXYq7FXYq7FXYq06I6MjgMjAqyncEHYg4q+GfOvl2Xy55r1TRZAQLOdkiJ6tC3xRN/so2U&#xA;4GSS4q7FXpf/ADjxrUWmfmVaxStxTU4JbLkenJqSoP8AZPEBigqH59eW7jRvzGv52U/VdVpe20nY&#xA;8xSUfMSBvopioed4pdirsVfQf5L6Tb+RfImrfmBrimJ7qGljE2zNADVAPeeWgHsAehxQ8D1C+udQ&#xA;v7m/um53N3K887+LyMXY/ecUvQf+cf8Ay0+s/mLZ3DJW10hWvZj25L8MIr4+owP0HFBfRX5qeRIv&#xA;OflK401eK6hCfrGmyttSdAaKT/K4JU/f2wofGV3aXNndS2t1E0NzA7RzQuCrI6mjKwPQg4GSlir6&#xA;R/5xu/L36jpz+b9Qipd3ymLTFYbpb1+OSh7yEUH+SPBsKC8l/NpPOy+d7zUfMlrLY3c0lbJgaxCG&#xA;PaIQSr8LcVpuN69aHAqzU/zf88ar5Tk8saldpd2MpT1LiWMNcssbB1Qyd/iUGpHL3xVheKXYq7FX&#xA;Yq+qf+cfvy7k8ueXn1rUYymrawqssbCjQ2o3RDXcM5+Nv9iOowoL1jFDsVdirsVdirsVdirsVdir&#xA;sVeF/wDOSvkB7uyh832EfKayUQaoijcwk/u5dv5GPFvYjsMCQ+csUuxVUtbq4tLmG6tpGiuIHWWG&#xA;VTRldDyVgfEEYq+l9M1byf8AnX5Si0nVpFsfNFmvIcaCRJAAGmgUn44np8advoVsKHk3mP8AIj8x&#xA;tGuWWLTjqlrX93c2JEnIV2rHtIp8fhp7nAtpTp/5T/mRfyrHB5dvkZjQG4iNsv0tP6YxV6f5V/I7&#xA;Q/KtuPMn5j39ulvbEOmnhuURcbhZWpWU7f3aA19+mK2wj83PzYufOt9HaWSNa+XrJj9VtjQNI4qP&#xA;WkA6Hjsq/s/Tirzvril9efkd5Ak8peUhJex+nrGqlbi9U9Y1APpRH3VWJb/KJGFiXouKvmn/AJyh&#xA;0zRrXzFpV3awiPU76GV9QddhIsZRIWI6cvtCvywJDy3ybpulan5p0yw1e6Wy024uES7uHPEKnUjk&#xA;dl5fZ5HpWuKXrv54/msILnT/AC35OvxBa6bwlnu7CQBeaDjFAjxmnGNftDpWg7YoC3yr+fGj65Yf&#xA;4e/Mqwiu7OUBf0ksfJa9mmiXdWH88W48O+K0xH83PIHlby4bHVPLOrxX2mamWMVoJVlkjAAbkrKf&#xA;ij3puKj3xV5zil2KuxV7p+SX5JXF3cW/mfzPb8LFKS6dp0oIaVgarLKp6IOqqftf6vVQS+jcKHYq&#xA;7FXYq7FXYq7FXYq7FXYq7FVk8EM8MkE6LLDKpSWJwGVlYUZWB2IIxV8nfnF+UF55Pvn1LTUaby3c&#xA;v+6cVZrZm6RSE1NP5WPXod+oS8yxS7FVS3uLi2nSe3leGeIho5Y2KOrDoVYUIOKvRdE/5yE/MrS4&#xA;Uhku4dSjTZfrsXNqe7xmJ2+bMcUUi9Q/5yT/ADJuo2SA2VgSKB7eAlh7j13mH4YrTz3XPMmva9df&#xA;WtZv57+ffi0zlgoPZF+yo9lGKUtxV7z+RX5MyzTW3m3zHDxtkIl0mwkG8jDdZ5Aeijqg79elKqC+&#xA;iMKHYq+VP+clb83P5jC3rVbKxgh49gWLyn8JBgSHlOKXYq7FXYq7rirLvLH5T+ffMjp9Q0qWK2br&#xA;e3QMEAHiGcAv/sATih75+Xf/ADj95d8uPFqGtMusauhDIGWltEw3BSM/bYfzP9ABwrb1fFDsVdir&#xA;sVdirsVdirsVdirsVdirsVdiqnc21tdW8ltcxJPbzKUlhkUMjKwoVZTsQcVeBfmH/wA41s0kuo+T&#xA;HFGJZ9HnalPaCVv+Iuf9l2wJt4brGhazot2bTVrKaxuR/uudGQkeK16j3GKUDirsVdiqdeWfJfmj&#xA;zNciDRNOmvDXi8yrxhT/AF5Woi/ScVfQn5bf8486VockWp+ZXj1TVEIaK0UVtYm8TyFZWHuAB4Hr&#xA;hRb2PFDsVdir43/O+6Nz+aWvSVrwliiH/PKCOP8A41wJDBsUuxV2KvQ/yG8uWOu/mHbQ39tHd2Vp&#xA;BPcz20yLJG4C+mvNWBBAeVTv3xQX1bYeW/LunMG0/S7SzYUANvBFERTp9hRhQmOKuxV2KuxV2Kux&#xA;V2KuxV2KuxV2KuxV2KuxV2KuxV2KobUNM03Ubc22oWkN5bt1huI1lQ/7FwRirC9S/Ir8rr9mdtFW&#xA;3kY15W0s0Q+hFfh/wuK2lq/844/lkCCbe6IB6G4ah+4YptOtJ/Jj8stLcSW+gwSyD9q6L3O/jxmZ&#xA;1+4YoZlBbwW8KQW8aQwxiiRRqFVR4BRQDFV+Ksf1Dz/5QsdXtdGl1OF9VvJkt4bKE+rJzdgo5hK8&#xA;Ov7VMVZBirsVfEv5oS+r+YvmRuXOmoXCV6/YkK0+ilMDJjGKuxV2KvZv+cW40PnPVJCPjXTmUH2a&#xA;eIn/AIiMUF9N4UOxV2KuxV2KuxV2KuxV2KuxV2KuxV2KuxV2KuxV2KuxV2KuxV2Ksa8x/mR5H8uB&#xA;hq2r28Uy1raxt609R29KPm4+kUxV5V5l/wCcpbROcXlvSGmbot1ftwX/AJExksR/sxgTTyjzN+bn&#xA;5geY+Ud9q0sVq3/Hpa/6PFTwIjozj/XJxVD/AJXf+TG8t/8AbQt/+TgxS+2cLF2Kvif800ZfzH8x&#xA;hgQfr85ofAuSPwOBkxbFXYq7FXr/APzjBME8/wB7GWIEumSgL2LCeA/qBxQX1FhQ7FXYq7FXYq7F&#xA;XYq7FXYq7FXYq7FXYq7FXYq7FXYq7FXYq7FXzh/zkp5s1+281W2i2Wo3FtpxsI5bi1hdo0eV5ZQS&#xA;/Ejl8CrsdsCQ8NxS7FXYqyz8p4TL+ZPlxAaEX0T/AEIeZ/4jih9q4UOxV8dfnnZfVPzT1xAKLK8M&#xA;ynx9WCNz/wAMTgSGB4pdirsVeh/kHqIsvzR0oMaJdrPbMfd4mK/8OoxQX19hQ7FXYq7FXYq7FXYq&#xA;7FXYq7FXYq7FXYq7FXYq7FXYq7FXYq7FXx9+fOpLffmjq/A1jtfRtlPvHEvMf8GWwJDz/FLsVdir&#xA;0T8gLE3X5p6U1KparcTv9EDqv/DOMUF9e4UOxV8v/wDOT2lm388WV+q0jvrFAW8ZIZHVv+EKYEh4&#xA;9il2KuxVH+X9Wk0fXdO1aMEvYXMVyFG1fScPx+mlMVfd9vPDcQR3EDiSGZFkicdGVhVSPmDhYr8V&#xA;dirsVdirsVdirsVdirsVdirsVdirsVdirsVdirsVdiqndXMNrbTXM7BIIEaWVz0CIOTH6AMVfCGu&#xA;apLq2tX+qTf3t9cS3Lg9jK5en0VwMkDirsVdir27/nFnSTL5i1nVitVtLVLZSf5riTlt9EH44oL6&#xA;Twodirxf/nKHRDc+VNN1dFq+nXRikI7RXK0JP+ziQfTikPmbAl2KuxV2Kvrr8g/NK65+XtpbyPyv&#xA;NHP1GcE78EFYWp4emQvzU4WJej4q7FXYq7FXYq7FXYq7FXYq7FXYq7FXYq7FXYq7FXYq7FXmv/OQ&#xA;HmldE/L65tY2peaywsogOvpsOU7fL0wV/wBkMUh8kYEuxV2KuxV9Vf8AONugnT/y/OoSLSXV7mSd&#xA;Sdj6UX7lB/wSMR88KC9XxQ7FUh8+eXR5j8natowUNLd27i3DdPWT44T9Eirir4ddGRijgq6khlIo&#xA;QR1BGBk1irsVdir0n8hvPC+WfOiW11Jw0zWAtpcEmipKW/cyn/VYlT4BicUF9cYUOxV2KuxV2Kux&#xA;V2KuxV2KuxV2KuxV2KuxV2KuxV2KuxV8i/nv53XzP51khtZOel6QDaWpBqruDWaQf6zjiPEKMCQ8&#xA;4xS7FXYqiNOsLrUdQttPtE53V3KkECeLyMFUfecVfdehaRbaNotjpNt/cWMEdvGfERqFqfc0qcLF&#xA;HYq7FXYq+QPz18ony95/vHij4WGq/wCnWpH2QZD++UU2+GXlt2BGBIee4pdirsVdir61/Iz8yF81&#xA;+XBp99KDrulIsdxyPxTQj4Y59+p/Zf8Ayt/2hhQXpmKHYq7FXYq7FXYqhNR1jSdMi9XUr23souvq&#xA;XEqRLQe7lRirHZvza/LWJyjeYrIkd0k5j/glBGKozTvzD8iaiwSz1+wlkb7MX1iNXPyRirfhirIV&#xA;YMAykFSKgjoRirsVdirsVdirsVdirzD89vzIXyt5dOl2MtNc1ZGSHifihgNVeb2J+ynvv+zikPk3&#xA;Al2KuxV2KvXv+cbfJ51XzbLr1wlbPRUrESNmuZQVT/gF5N7HjigvqPCh2KuxV2KvN/z48kf4l8lS&#xA;3NtHz1TRuV3bUFWaMD9/GP8AWQcgPFRiofI2Bk7FXYq7FU18reZtV8s65a6zpcnp3Vs1eJ+xIh2e&#xA;Nx3Vhsf64q+y/IvnbSPOOgQ6tpzcSfgurViDJBKB8SNT71Pcb4WLIcVdirsVY95z8++WvJ+n/XNa&#xA;uhGzg/V7SOjTzEdo0qPpY0Udzir5186/85Eecdbd7fRj+g9PNQPRPK5Yf5UxHw/7ACnicCaeXXV3&#xA;d3k73F3NJcXEhq80rF3Y+JZiScUqWKuxVPfLnnnzd5blV9F1We0Uf7oDc4T3+KF+UZ/4HFXuPkL/&#xA;AJyWsrySOx83wLZSsQqanbhjASf9+xksyf6wJHsBiint9vcW9zBHcW0qTQSqHimjYOjKdwVYVBBw&#xA;oVMVdirsVY35+896P5M0GTVNQbnKapZWakCSeXsq16AdWbsPegKr428zeZNV8ya3dazqknqXd03J&#xA;qVCoo2VEBrRVGwwMkrxV2KuxVfBBNPNHBCjSTSsEijUVZmY0VQB1JOKvtT8sfJkflDydZaSQPrhH&#xA;r6g4oeVxIAX3HULsgPgMLFlWKuxV2KuxVxFdj0xV8h/nf+XreUvNbz2kXHRNVLT2RA+GN61lg/2B&#xA;NV/ySPA4Eh51il2KuxV2Ksi8jeetb8m60mp6W9VNFu7RyfSnjr9lwP8AhW6jFX2N5O8z2vmjy3Y6&#xA;7axSQQ3qFhDL9pWRijjbqAymh7jfCxTnFWGfmf8AmXpnkbRfrEgFxqlzVdPsa05sBu79xGnf7sVf&#xA;IXmHzDrHmHVZtV1e5a6vJzVnY7KtahEXoqrXZRgZJdirsVdirsVdirsVeiflT+cGreS7xLO5LXnl&#xA;2Zx9YtCSWhqd5IKnY9yvRvnvih9a6dqNjqVjBf2Ey3FncoJIJ0NVZW6EYUIjFWIfmH+Z3l7yRp/q&#xA;3zi41GVSbPTY2HqyHoGbrwSvVj9FTtir5K85ec9d83ay+qavNzkPwwQrURQx1qEjXsPxPfAySLFX&#xA;Yq7FXYq9t/5xx/LltQ1I+b9Ri/0KwYppisNpLgbNJv1WLt/lf6uKC+lMKHYq7FXYq7FXYqx7z55M&#xA;0/zh5audGvKI0n7y1uKVMM614SD76HxUkYq+Lte0PUtC1e60jU4jDe2bmOZO3iGU91YEFT3GBkgM&#xA;VdirsVcqliFUVY7ADqTir7q8oaKND8raVpAADWVrFDJTvIqDmfpepwsUbqmp2Wl6bc6jfSCK0tIm&#xA;mnkPZEFT9PgMVfE/nrzjqHm7zLda1eEqJTwtYK1EMCk+nGPkOvianAySDFXYqmml+VvM2rJ6ml6R&#xA;e30daGS2t5ZVHzZFIxVZqflrzFpKh9U0q8sFbZWureWEH5GRVxVLsVdirsVdir2P8gvzUh8v3cvl&#xA;7XLpYdDuQ01rcStRLeYDkwqeiSAf8FTxOKCyL8wP+cloVWWw8mRF5DVTq9wtFHvDCwqfnIP9icVp&#xA;4FqOo3+pXst9f3El1eTtymnlYu7H3JxSh8VdirsVdirKfy58haj518xxaZbVjtI6Sahd02hhB3Ph&#xA;zbog7n2BxV9m6RpOn6RpltpmnwiCytIxFBEvZV8fEnqT3OFii8VdirsVdirsVdirsVeZ/nR+VEXn&#xA;HTBqOnKqeYrFCIDsBcRD4vRc+P8AIex9jUKXybcW89vPJb3EbQzwsUlicFWVlNGVlO4IOBKzFXYq&#xA;yr8rND/Tf5haFYFeURulmmXsY7eszg/NY6Yq+18LF41/zk35oew8q2ehQPxl1eYtOB/yz29GIP8A&#xA;rSMn3HFIfMeBLaqzMFUFmY0VRuST2GKvoHyX+VXlHyV5eXzZ+Y3ptcmjQ6fMOccRYVSMxAH1Zj3X&#xA;cD6K4oUNZ/5yllST0fL+hRpax/DFJeOalRsP3UXEJ8uZxWl2jf8AOUEVw31XzNoSNZzDhNJatzHE&#xA;7EGCWoYePx4rSz8wfyj8teY9BPnH8uTHKhDSXOnW/wDduF3b0ozvHKveLv2AP2lXguKXYqjNF08a&#xA;lrNhpxf0xe3EVuZAK8fVcJyp7VxVlf5v+QbHyR5pi0qxuJbm1ntI7uNp+PqLzd4ypKhQd4q9O+KG&#xA;EYpdirsVdirsVTbyt5X1jzPrUGj6RD6t1MaknZI0H2pJG/ZVe/3DfFX2N+X/AJE0nyXoEel2I5zN&#xA;R727IAeaam7HwUdFXsPepwsWS4q7FXYq7FXYq7FXYq7FXYq8l/Ob8l4fNMcmu6IqxeYYk/eQ7Kl2&#xA;q9Ax7SgbKx69D2IUvly6tbm0uJba6ieC5hYpNDIpR0ZTQqymhBGBKnir2r/nF3Q/rHmfVNYdapp9&#xA;qsMZPaS5fqP9hEw+nFBfS+FD5X/5yX1J7n8wo7Tl+7sLKGML4NIWlJ+ZDrgSHk2KXqv/ADjr5Ph1&#xA;zzo2pXSepZ6Gi3HEioNw5IgB+XFn+a4oKRfm95/uvOHmy4kSU/oixZoNMhB+HgpoZadOUhFa+FB2&#xA;xVg+KXYq9H/I7z/ceV/N0FnPKRo2rSLb3kZPwpIx4xTDwKsaMf5a+2KC1+fPk+Hy557mktI/TsNW&#xA;T67AoHwq7EiZB/sxyp2DDFQyb8i/L/l/VfJHnI6hZQ3VysXASSoGdEMLspjYj4TzWtV3qB7YqXlX&#xA;k9lXzbojMQqrf2pZjsABMu5xS9Q/5ylVf8Y6U1ByOnAFu5AnkoPxxQHjGKXYq7FXYqnXlHyfr3mz&#xA;V49L0e3MszbyytURQp3eVwDxX9fQb4q+uvy6/LfQ/JGki2slE1/Mo+v6gwpJMw3oOvFBX4VH01O+&#xA;Fiy3FXYq7FXYq7FXYq7FXYq7FXYq7FXnn5o/k3onnWFryArYeYEWkV8B8EvHok6j7Q7BvtD3G2Kv&#xA;lfzN5V17yzqb6brVo9rcruhO6SL/ADxuPhdfcfrwMn0r/wA42aH9Q/L36+60l1W6lmDd/TipCo/4&#xA;KNj9OFBerYofI3/OQv8A5NPUv+MVt/yYTAkPN8UvfPyQJsvyg87apAQLpEuipB+IehZc0/FzTFBe&#xA;B4pdirsVcCQQQaEbgjFX11558h+WvPGkaBd+YdSbTZ4LcvHIjxR+oZ0jZwfVDVoV2+eFi7yb5Q/L&#xA;vyXpOp2Nr5gV4dWVY7qW6uraoojJ+74qgGznrXFWL6d+T35I2N1FdJ5mMssEiSx+pqFnQMh5D7CJ&#xA;3GBKeeddK/JXzlqdvqOs+ZrJpraH0ESHUraNCnJm3+ImtW8cKvGPzf8ALP5a6K2nnybqq30s3qC8&#xA;gjuEukVRTg3qJUKTUggn7sCvOMUuxV6B+W35N+Y/OcyXTKdP0IN+81CVd3A6rAhpzPv9kePbFD6n&#xA;8peTtA8qaUmmaLbCGEbyyt8Usr/zyvtyb8B2oMKE6xV2KuxV2KuxV2KuxV2KuxV2KuxV2KuxVKfM&#xA;3lTy/wCZtNbT9as0u7c1KFtnjY/tRuPiRvliqvoGiWWhaLZaPY8vqljEsMRcguQo+0xAUcmO5oOu&#xA;Ko/FXzB/zk9pT2/nay1ED91f2Sry8ZIHZWH/AALJgSHjuKXu/wDzjZeW2o6T5o8pXDcfrsPqxjuU&#xA;lRreY0/yap9+KC8R1PTrvTNRudOvEMd3aSvBOh7PGxVvxGKUNirsVTDy/ot3ret2OkWgrcX06QJt&#xA;WnM0LH2Ubn2xV6//AM5PanbLqGgeXrcgLp1s8zqOwmKxxg+4WA/figPEMUuxV2KuxVOvLHk3zN5n&#xA;vBa6JYS3bVpJKBSKP3kkNEX6Tir6C/L/AP5xx0TSTFf+Z5E1a/WjLZqD9UQ/5VQGl/2QC/5Jwot7&#xA;JHGkaLHGoSNAFRFFAANgAB2xQ3irsVdirsVdirsVdirsVdirsVdirsVdirsVdirsVdiryz/nIrym&#xA;2s+RjqUCcrvQ5PrOwJJt3HGcfR8Ln2XFIfKOBKfeR/Nt75T8zWWt2nxG3ak8NaCWF9pIz816eBoc&#xA;Ve0fml+XFn5+0+Hz35HZLu4uIwb20SitMEFOQHaZKcWQ9fmN1D5+urS6tLh7a7hkt7iI8ZIZVKOp&#xA;HZlYAg4pbs7K8vrlLWygkubmU8Y4IUaR2PgFUEnFX0N+W/kLTvyy0O488ecmWHU1iK21oCrNCHFO&#xA;C70aeXpt0H00KHhXm3zLfeZvMV9rl7tPeSchGNwiAcY4x7IgAwJSjFXYqidN0671LUbbT7OMy3d3&#xA;KkMEY7vIwVR95xV9NeU/+ca/J+lsk+tTS61crv6bfuLYH/jGpLt9L09sKLer2NhY2FrHaWNvFa2s&#xA;QpFBCixxqP8AJVQAMUK+KuxV2KuxV2KuxV2KuxV2KuxV2KuxV2KuxV2KuxV2KuxV2KrZYoponilQ&#xA;SRSKUkRhVWVhQgg9QRir42/Nn8u7ryX5mkgRGbR7wtLpc5qR6dd4mP8APHWh8RQ98CWE4pZV5D/M&#xA;nzP5KvGl0qYPaTMDdWEwLQyU706q1P2l3+jFXr8X/OQv5ca1bovmny27TgUIaG3vYvehlKMP+BxR&#xA;TVx/zkT5A0W3kj8qeW2WVgAB6UFlEdtq+l6jGnhxGK08c87/AJh+Z/Od8tzrFwDDFX6tZRApBED1&#xA;4rU1P+UxJ98UsaxV2KuxV9Af844/lrIr/wCNNUiKijR6NE43NQVe4p4UqqfSfDFBfQOFDsVdirsV&#xA;dirsVdirsVdirsVdirsVdirsVdirsVdirsVdirsVdirsVSPzl5O0fzboU2kapHWOT4oZ1A9SGUfZ&#xA;kjJ6EfiNsVfInn/8uPMPkrUzbajGZbKRj9S1FAfSmUffxenVDuPcb4GTFcVdirsVdirsVdir1/8A&#xA;KH8jb7zBNDrXmKJ7XQVIeG2aqS3fh4FIvFurD7Pjii31BDDFDEkMKLHFGoSONQAqqooAAOgAwoXY&#xA;q7FXYq7FXYq7FXYq7FXYq7FXYq7FXYq7FXYq7FXYq7FXYq7FXYq7FXYqhNU0nTNWsZbDU7aO8s5h&#xA;SSCZQynw2Pcdjirw3zn/AM4wxySSXXlK+EQJJGm3pYqPaOcBm+QdT7tgTbyPW/yv/MDRXYX2hXYR&#xA;es0MZuIqePqQ81H0nFLGZYpYnKSo0bjqrAgj6DiqvZaZqV8/CytJrp+nGGNpD9yg+OKs48u/kT+Z&#xA;GtMpbTTplu3WfUD6FP8AnlQzf8Jii3tvkT/nH3yp5dkjvdUP6b1NCGRpl428bDeqQ1bkQe7k/IYV&#xA;t6mBTYdMUOxV2KuxV2KuxV2KuxV2KuxV2KuxV2Kv/9k=</xmpGImg:image>
               </rdf:li>
            </rdf:Alt>
         </xmp:Thumbnails>
          <xmpTPg:MaxPageSize rdf:parseType="Resource">
            <stDim:w>100.000000</stDim:w>
              <stDim:h>100.000000</stDim:h>
              <stDim:unit>Points</stDim:unit>
         </xmpTPg:MaxPageSize>
          <xmpTPg:NPages>1</xmpTPg:NPages>
          <xmpTPg:HasVisibleTransparency>False</xmpTPg:HasVisibleTransparency>
          <xmpTPg:HasVisibleOverprint>False</xmpTPg:HasVisibleOverprint>
          <xmpTPg:PlateNames>
            <rdf:Seq>
               <rdf:li>Cyan</rdf:li>
                <rdf:li>Magenta</rdf:li>
                <rdf:li>Yellow</rdf:li>
                <rdf:li>Black</rdf:li>
            </rdf:Seq>
         </xmpTPg:PlateNames>
          <xmpTPg:SwatchGroups>
            <rdf:Seq>
               <rdf:li rdf:parseType="Resource">
                  <xmpG:groupName>默认色板组</xmpG:groupName>
                   <xmpG:groupType>0</xmpG:groupType>
               </rdf:li>
            </rdf:Seq>
         </xmpTPg:SwatchGroups>
          <dc:format>image/svg+xml</dc:format>
      </rdf:Description>
   </rdf:RDF>
</x:xmpmeta>


    <?xpacket end="w"?>
	</metadata>
    <path id="形状_3_拷贝_3" fill="#403D3C" d="M37.8,28.531c0-7.815-6.335-14.15-14.15-14.15S9.5,20.716,9.5,28.531
	c-0.057,3.644,1.347,7.158,3.9,9.759c-0.566,2.896-0.892,5.834-0.976,8.783c-0.013,12.897,6.63,24.887,17.57,31.716l2.928-11.711
	c-5.906-4.963-9.303-12.292-9.271-20.006c-0.08-1.481,0.085-2.965,0.488-4.392C31.458,42.681,37.8,36.338,37.8,28.531z M50,20.724
	c4.599,0.089,9.112,1.259,13.175,3.416c-0.558,1.571-0.887,3.215-0.976,4.88c-0.001,7.815,6.335,14.151,14.15,14.152
	s14.151-6.335,14.152-14.15c0.001-7.815-6.335-14.151-14.15-14.152c0,0-0.001,0-0.001,0c-1.824,0.088-3.629,0.416-5.367,0.976
	C64.764,11.716,57.466,9.509,50,9.5c-5.367,0-10.735,0.976-15.126,3.416l6.343,9.271C44.046,21.227,47.012,20.733,50,20.724
	L50,20.724z M76.349,48.048C75.861,57.807,70.494,66.1,62.2,70.006c-2.549-4.665-7.375-7.634-12.688-7.806
	c-7.815,0.093-14.075,6.503-13.982,14.318c0.091,7.684,6.298,13.89,13.982,13.982c5.757-0.015,10.946-3.475,13.175-8.783
	c14.871-5.294,24.825-19.347,24.885-35.132v-2.44C87.084,44.633,76.349,48.048,76.349,48.048z M47.26,69.856
	c1.79-0.029,3.505,0.721,4.7,2.055c1.099,1.218,1.779,2.756,1.94,4.389l2.3-0.054l-0.052-2.6c-0.027-0.381,0.257-0.714,0.638-0.747
	c0.176-0.002,0.345,0.071,0.465,0.2c0.127,0.141,0.199,0.323,0.2,0.513l0.049,2.601l2.41-0.056l-0.085-4.27
	c-0.027-0.381,0.257-0.714,0.638-0.747c0.177-0.004,0.347,0.069,0.466,0.2c0.127,0.141,0.199,0.323,0.2,0.513l0.085,4.27
	l2.245-0.052c0.177-0.004,0.347,0.069,0.466,0.2c0.127,0.141,0.199,0.323,0.2,0.513c0.027,0.381-0.257,0.714-0.638,0.747
	l-9.552,0.223c-0.078,1.683-0.702,3.295-1.778,4.592c-2.107,2.62-5.939,3.036-8.56,0.929c-0.269-0.216-0.518-0.454-0.746-0.713
	c-2.63-2.955-2.718-7.384-0.208-10.442C43.783,70.735,45.466,69.909,47.26,69.856z M42.131,77.362
	c0.012,1.537,0.592,3.015,1.628,4.15c1.788,2.02,4.876,2.208,6.896,0.419c0.205-0.182,0.395-0.38,0.566-0.593
	c2.012-2.452,1.941-6.002-0.166-8.372c-0.957-1.068-2.332-1.669-3.766-1.645c-1.438,0.046-2.786,0.709-3.7,1.82
	C42.602,74.322,42.083,75.824,42.131,77.362z M73.017,35.889c-1.068-1.436-1.46-3.264-1.077-5.011
	c0.343-1.604,1.192-3.056,2.421-4.143L72.974,24.9l-2.083,1.565c-0.294,0.245-0.73,0.209-0.979-0.081
	c-0.105-0.144-0.144-0.326-0.107-0.5c0.04-0.186,0.146-0.351,0.3-0.463l2.083-1.565l-1.455-1.923L67.317,24.5
	c-0.294,0.245-0.73,0.209-0.979-0.081c-0.107-0.143-0.146-0.326-0.107-0.5c0.04-0.186,0.146-0.351,0.3-0.463l3.413-2.556
	l-1.355-1.791c-0.107-0.143-0.146-0.326-0.107-0.5c0.04-0.186,0.146-0.351,0.3-0.463c0.294-0.245,0.73-0.209,0.979,0.081l5.765,7.62
	c1.411-0.921,3.084-1.357,4.765-1.242c3.357,0.181,5.932,3.05,5.751,6.408c-0.018,0.342-0.066,0.682-0.142,1.016
	c-0.86,3.861-4.402,6.522-8.35,6.273C75.762,38.188,74.11,37.309,73.017,35.889z M82.105,35.662c1.24-0.908,2.1-2.242,2.416-3.746
	c0.594-2.632-1.058-5.247-3.69-5.84c-0.266-0.06-0.537-0.098-0.81-0.113c-3.165-0.199-6.004,1.934-6.695,5.029
	c-0.307,1.401,0.009,2.867,0.866,4.017c0.878,1.138,2.203,1.843,3.637,1.935c1.533,0.11,3.052-0.346,4.271-1.282H82.105z
	 M31.72,29.069c-0.931,1.527-2.479,2.576-4.243,2.875c-1.616,0.282-3.28,0.039-4.748-0.694l-1.18,1.971l2.231,1.346
	c0.337,0.18,0.467,0.598,0.292,0.938c-0.094,0.15-0.247,0.254-0.421,0.285c-0.186,0.034-0.379-0.001-0.541-0.1l-2.231-1.346
	L19.64,36.41l3.66,2.206c0.337,0.18,0.467,0.598,0.292,0.938c-0.092,0.152-0.246,0.256-0.421,0.285
	c-0.186,0.034-0.379-0.001-0.541-0.1l-3.66-2.209l-1.153,1.927c-0.093,0.151-0.246,0.255-0.421,0.285
	c-0.186,0.034-0.379-0.001-0.541-0.1c-0.337-0.18-0.467-0.598-0.292-0.938l4.906-8.204c-1.382-0.964-2.412-2.352-2.935-3.954
	c-1.092-3.18,0.601-6.643,3.781-7.735c0.326-0.112,0.661-0.196,1.001-0.251c3.902-0.647,7.695,1.641,8.942,5.395
	C32.825,25.657,32.628,27.522,31.72,29.069z M28.108,20.727c-1.306-0.809-2.865-1.107-4.378-0.837
	c-2.663,0.436-4.468,2.947-4.032,5.61c0.044,0.269,0.11,0.533,0.198,0.79c1.001,3.009,4.042,4.843,7.17,4.325
	c1.414-0.24,2.655-1.082,3.4-2.307c0.727-1.241,0.885-2.735,0.433-4.1c-0.473-1.464-1.466-2.703-2.792-3.482L28.108,20.727z"/>
</svg>
