<svg xmlns="http://www.w3.org/2000/svg" width="240" height="240" viewBox="0 0 240 240">
  <defs>
    <style>
      .cls-1 {
        fill: #3084c7;
        fill-rule: evenodd;
      }
    </style>
  </defs>
  <path id="homeBusiness-active" class="cls-1" d="M187.394,26.2a5.347,5.347,0,0,0,0,10.695,16,16,0,0,1,15.968,16.02v149.44a16,16,0,0,1-15.968,16.018H52.606a16,16,0,0,1-15.968-16.018V52.918A16,16,0,0,1,52.606,36.9a5.347,5.347,0,0,0,0-10.695A26.641,26.641,0,0,0,26,52.87V202.31A26.646,26.646,0,0,0,52.606,229H187.394A26.646,26.646,0,0,0,214,202.31V52.87A26.641,26.641,0,0,0,187.394,26.2h0Zm0,0M72.088,72.47h95.824a5.346,5.346,0,0,0,0-10.691H72.088a5.346,5.346,0,0,0,0,10.691h0Zm0,24.891h95.824a5.346,5.346,0,0,0,0-10.691H72.088a5.346,5.346,0,0,0,0,10.691h0Zm0,60.472A47.912,47.912,0,1,0,120,109.819a47.969,47.969,0,0,0-47.913,48.014h0ZM147.2,143.3a5.353,5.353,0,0,1,0,7.541L124.382,173.7a12.4,12.4,0,0,1-17.574,0l-11.67-11.693a5.326,5.326,0,1,1,7.526-7.54l11.668,11.693a1.766,1.766,0,0,0,2.5,0L139.646,143.3a5.352,5.352,0,0,1,7.549,0h0ZM88.067,47.556h63.891a17.779,17.779,0,0,0,0-35.558H88.067a17.779,17.779,0,0,0,0,35.558h0Zm0-24.889h63.891a7.111,7.111,0,0,1,0,14.223H88.067a7.111,7.111,0,0,1,0-14.223h0Zm0,0" transform="translate(0 -0.5)"/>
</svg>
