<svg xmlns="http://www.w3.org/2000/svg" width="240" height="240" viewBox="0 0 240 240">
  <defs>
    <style>
      .cls-1 {
        fill: #3084c7;
        fill-rule: evenodd;
      }
    </style>
  </defs>
  <path id="menuPicture-active" class="cls-1" d="M83.428,209l-49.862-.095a4.951,4.951,0,0,1-.571,0,25.588,25.588,0,0,1-23-25.518V57.608A25.6,25.6,0,0,1,35.54,32H200.258A25.6,25.6,0,0,1,225.8,57.615v52.628a47.706,47.706,0,0,0,3.527,19.683,5.864,5.864,0,1,1-10.412,5.4,58.447,58.447,0,0,1-4.832-25.458V57.622a13.855,13.855,0,0,0-13.815-13.858H35.54A13.855,13.855,0,0,0,21.725,57.622V183.4a13.815,13.815,0,0,0,12.158,13.754l49.553,0.1H200.258a13.846,13.846,0,0,0,13.814-13.85l-0.088-22.316a18.868,18.868,0,0,0-4.355-9.322l-5.213-6.859-27.923-37.052A26.922,26.922,0,0,0,158.77,97.462a14.686,14.686,0,0,0-1.518.081c-8.6.965-17.158,10.443-24.761,27.368a93.78,93.78,0,0,1-12.613,21.609,26.758,26.758,0,0,1-13.932,9.624,19.9,19.9,0,0,1-4.655.56c-9.071,0-16.983-6.253-25.364-12.861l-1.2-.951a15.852,15.852,0,0,0-9.533-4.565c-5.434,0-11.916,5.508-25.334,18.695a5.855,5.855,0,0,1-10.11-2.56,5.919,5.919,0,0,1,1.9-5.833L33,147.3A81.471,81.471,0,0,1,56.65,128.193a21.883,21.883,0,0,1,8.139-1.63,27.546,27.546,0,0,1,17.144,7.088l1.21,0.951a37.377,37.377,0,0,0,18.2,10.324,7.386,7.386,0,0,0,1.775-.213c3.886-.959,10.265-6,18.631-24.625,9.533-21.27,21.052-32.788,34.207-34.242a26.972,26.972,0,0,1,2.786-.154,38.176,38.176,0,0,1,27.072,15.1L213.676,137.8l5.133,6.755a28.935,28.935,0,0,1,6.805,16.32l0.095,22.5A25.6,25.6,0,0,1,200.258,209H83.428ZM71.454,102.594a19.769,19.769,0,1,0,0-.007v0.007Zm0-27.781a3.311,3.311,0,1,0,0-.037v0.037Zm0,0" transform="translate(0.016 -0.5)"/>
</svg>
