<svg xmlns="http://www.w3.org/2000/svg" width="240" height="240" viewBox="0 0 240 240">
  <defs>
    <style>
      .cls-1 {
        fill: #858387;
        fill-rule: evenodd;
      }
    </style>
  </defs>
  <path id="menuMaintenance" class="cls-1" d="M54.43,24.046H29.62A9.323,9.323,0,0,0,20,33.692V58.566a9.627,9.627,0,0,0,9.621,9.646H54.43a9.626,9.626,0,0,0,9.621-9.646V33.692a9.626,9.626,0,0,0-9.62-9.646h0Zm0,74.625H29.62A9.626,9.626,0,0,0,20,108.316v24.875a9.627,9.627,0,0,0,9.621,9.646H54.43a9.626,9.626,0,0,0,9.621-9.646V108.316a9.972,9.972,0,0,0-9.62-9.645h0Zm0,77.163H29.62A9.626,9.626,0,0,0,20,185.48v24.874A9.627,9.627,0,0,0,29.62,220H54.43a9.626,9.626,0,0,0,9.621-9.646V185.48a9.626,9.626,0,0,0-9.62-9.646h0ZM96.456,70.75H206.329a12.552,12.552,0,0,0,12.658-12.692V33.692A12.551,12.551,0,0,0,206.329,21H96.456A12.552,12.552,0,0,0,83.8,33.692V57.551c-0.507,7.615,5.569,13.2,12.658,13.2h0ZM92.911,33.692a3.466,3.466,0,0,1,3.544-3.554H206.329a3.465,3.465,0,0,1,3.544,3.554V57.551a3.466,3.466,0,0,1-3.544,3.554H96.456a3.466,3.466,0,0,1-3.544-3.554V33.692ZM210.886,98.671H91.9a9.088,9.088,0,0,0-9.114,9.138V133.7a9.088,9.088,0,0,0,9.114,9.138H210.887A9.087,9.087,0,0,0,220,133.7v-25.89c-0.506-5.077-4.557-9.138-9.113-9.138h0Zm0,77.163H91.9a9.088,9.088,0,0,0-9.114,9.138v25.891A9.088,9.088,0,0,0,91.9,220H210.887A9.087,9.087,0,0,0,220,210.863V184.972c-0.506-5.584-4.557-9.138-9.113-9.138h0Zm0,0" transform="translate(0 -0.5)"/>
</svg>
