<svg xmlns="http://www.w3.org/2000/svg" width="240" height="240" viewBox="0 0 240 240">
  <defs>
    <style>
      .cls-1 {
        fill: #3084c7;
        fill-rule: evenodd;
      }
    </style>
  </defs>
  <path id="merLink-active" class="cls-1" d="M121,151.15l15.08-15.072,12.059,12.059L133.065,163.21l15.072,15.081-17.588,17.59a60.422,60.422,0,0,1-78.977,5.606L31.049,222.012l-12.06-12.06,20.524-20.525a60.42,60.42,0,0,1,5.614-78.976L62.709,92.862l15.08,15.073L92.855,92.862l12.067,12.06L89.848,120l31.157,31.155H121ZM62.709,116.982l-5.529,5.529a43.352,43.352,0,1,0,61.309,61.309l5.53-5.529Zm138.778-65.41a60.422,60.422,0,0,1-5.614,78.977l-17.582,17.588L92.855,62.723l17.589-17.6A60.42,60.42,0,0,1,189.42,39.52l20.532-20.532,12.06,12.06Zm-84.5,11.137,61.309,61.309,5.529-5.53A43.352,43.352,0,1,0,122.511,57.18Zm0,0" transform="translate(-0.5 -0.5)"/>
</svg>
