<svg xmlns="http://www.w3.org/2000/svg" width="240" height="240" viewBox="0 0 240 240">
  <defs>
    <style>
      .cls-1 {
        fill: #3084c7;
        fill-rule: evenodd;
      }
    </style>
  </defs>
  <path id="url-active" class="cls-1" d="M74.255,153.772l79.622-79.638,10.732,10.731L84.986,164.5Zm0,0M167.841,6.806L103.336,71.159,92.712,81.935l10.624,10.776,5.463,5.313,10.625-10.776-5.312-5.313,53.729-53.729,42.953,42.953-53.729,53.729-5.313-5.464L140.977,130.2l5.312,5.312,10.776,10.776,10.776-10.776,64.353-64.354ZM130.2,140.977l-10.777,10.775,5.464,5.313L71.159,210.794,28.206,167.841l53.729-53.729,5.313,5.312L98.024,108.8l-5.313-5.463L81.935,92.712,71.159,103.336,6.806,167.841l64.353,64.353,64.354-64.353,10.776-10.776-10.776-10.776Zm0,0" transform="translate(0.5 0.5)"/>
</svg>
