<?xml version="1.0" encoding="utf-8"?>
<!-- Generator: Adobe Illustrator 21.0.0, SVG Export Plug-In . SVG Version: 6.00 Build 0)  -->
<svg version="1.1" id="图层_1" xmlns="http://www.w3.org/2000/svg" xmlns:xlink="http://www.w3.org/1999/xlink" x="0px" y="0px"
	 viewBox="0 0 1000 1000" style="enable-background:new 0 0 1000 1000;" xml:space="preserve">
<style type="text/css">
	.st0{clip-path:url(#SVGID_2_);fill:none;}
	.st1{clip-path:url(#SVGID_2_);fill:#3084c7;}
</style>
	<g>
	<defs>
		<rect id="SVGID_1_" x="119.7" y="37.8" width="770.5" height="926.2"/>
	</defs>
		<clipPath id="SVGID_2_">
		<use xlink:href="#SVGID_1_"  style="overflow:visible;"/>
	</clipPath>
		<path class="st0" d="M499.8,71.4c-18.3,0-33,14.8-33,33c0,18.3,14.8,33,33,33s33-14.8,33-33C532.8,86.1,518.1,71.4,499.8,71.4z"/>
		<path class="st0" d="M614.9,747.6c-27.7,27.7-27.7,72.4,0,100c27.7,27.7,72.4,27.7,100,0c13.2-13.2,20.7-31.3,20.7-50
		c0-18.8-7.4-36.8-20.7-50.1C687.2,719.9,642.6,719.9,614.9,747.6z"/>
		<path class="st1" d="M880.4,772.1l-35.9-7.2c-4-0.8-7.4-3.7-8.8-7.6c-1.2-3.3-2.5-6.5-4-9.6c-1.8-3.7-1.4-8.2,0.8-11.6l20.3-30.6
		c3.1-4.6,2.5-10.9-1.4-14.9l-19.7-19.6c-3.9-3.9-10.2-4.5-14.9-1.4L786.3,690c-3.4,2.3-7.8,2.6-11.6,0.8c-3.1-1.4-6.3-2.8-9.6-4
		c-3.9-1.4-6.8-4.7-7.6-8.8l-7.2-35.9c-1.1-5.5-5.9-9.5-11.6-9.5h-27.9c-5.6,0-10.4,3.9-11.6,9.5L692,678c-0.8,4-3.7,7.4-7.6,8.8
		c-3.3,1.2-6.5,2.5-9.6,4c-3.7,1.8-8.2,1.4-11.6-0.8l-30.5-20.3c-4.6-3.1-10.9-2.5-14.9,1.4l-19.7,19.7c-3.9,3.9-4.5,10.2-1.4,14.9
		l20.3,30.6c2.3,3.4,2.6,7.8,0.8,11.6c-1.4,3.1-2.8,6.3-4,9.6c-1.4,3.9-4.8,6.8-8.8,7.6l-35.9,7.2c-5.5,1.1-9.5,5.9-9.5,11.6v27.9
		c0,5.6,3.9,10.4,9.5,11.6l35.9,7.2c4,0.8,7.4,3.7,8.8,7.6c1.2,3.3,2.5,6.5,4,9.6c1.8,3.7,1.4,8.2-0.8,11.6l-20.3,30.5
		c-3.1,4.6-2.5,10.9,1.4,14.9l19.7,19.7c3.9,3.9,10.2,4.5,14.9,1.4l30.6-20.3c3.4-2.3,7.8-2.6,11.6-0.8c3.1,1.4,6.3,2.8,9.6,4
		c3.9,1.4,6.8,4.8,7.6,8.8l7.2,35.9c1.1,5.5,5.9,9.5,11.6,9.5h27.9c5.6,0,10.4-3.9,11.6-9.5l7.2-35.9c0.8-4,3.7-7.4,7.6-8.8
		c3.3-1.2,6.5-2.5,9.6-4c3.7-1.8,8.2-1.4,11.6,0.8l30.6,20.3c4.6,3.1,10.9,2.5,14.9-1.4l19.7-19.7c3.9-3.9,4.5-10.2,1.4-14.9
		l-20.3-30.6c-2.3-3.4-2.6-7.8-0.8-11.6c1.4-3.1,2.8-6.3,4-9.6c1.4-3.9,4.7-6.8,8.8-7.6l35.9-7.2c5.5-1.1,9.5-5.9,9.5-11.6v-27.9
		C889.9,778,885.9,773.2,880.4,772.1z M774.9,847.6c-27.7,27.7-72.4,27.7-100,0c-27.7-27.7-27.7-72.4,0-100
		c27.7-27.7,72.4-27.7,100,0c13.3,13.2,20.7,31.3,20.7,50.1C795.7,816.3,788.1,834.4,774.9,847.6z"/>
		<rect x="261.7" y="401.5" class="st1" width="476" height="66.1"/>
		<rect x="261.7" y="269.5" class="st1" width="476" height="66.1"/>
		<path class="st1" d="M823.8,137.4H627.7c-18.1-70.6-90-113.2-160.6-95.2c-46.8,12-83.2,48.4-95.2,95.2H185.8
		c-36.4,0.1-66,29.6-66.1,66.1v693.2c0.1,36.4,29.6,66,66.1,66.1h314v-66.1h-314V203.4h638.2v429.1H890V203.4
		C889.8,167.1,860.3,137.5,823.8,137.4z M499.8,137.4c-18.3,0-33-14.8-33-33c0-18.3,14.8-33,33-33s33,14.8,33,33
		C532.8,122.7,518.1,137.4,499.8,137.4z"/>
		<rect x="261.7" y="533.5" class="st1" width="476" height="66.1"/>
</g>
</svg>
