<?xml version="1.0" encoding="utf-8"?>
<!-- Generator: Adobe Illustrator 21.0.0, SVG Export Plug-In . SVG Version: 6.00 Build 0)  -->
<svg version="1.1" id="图层_1" xmlns="http://www.w3.org/2000/svg" xmlns:xlink="http://www.w3.org/1999/xlink" x="0px" y="0px"
	 viewBox="0 0 1000 1000" style="enable-background:new 0 0 1000 1000;" xml:space="preserve">
<style type="text/css">
	.st0{fill:#858387;}
</style>
	<g>
	<path class="st0" d="M854.9,500h-13.1V137.4c0-47.4-40.3-87.4-88-87.4H321.2c-47.8,0-88.1,40.1-88.1,87.4v9.6h-11.4
		c-47.8,0-88.1,39.9-88.1,87.4v266.3C86.9,506.2,50,546.7,50,594.3v261.3c0,52.9,41.7,94.3,95.1,94.3h709.9
		c53.3,0,95.1-41.5,95.1-94.3V594.3C950,541.5,908.3,500,854.9,500L854.9,500z M753.8,100.2c20,0,37.5,17.4,37.5,37.2v66
		L687.3,100.2H753.8L753.8,100.2z M651.8,135.4l104,103.2h-66.5c-20.4-0.5-36.9-16.8-37.5-37.2V135.4z M282,145.2
		c0-35.8,19.3-45,39.3-45h279.9v101.2c0,47.4,40.3,87.4,88.1,87.4h102V500H645.7c-12.5,0.4-23,9.5-25.1,21.8l-0.1,0.6
		c-8.7,63.2-62.7,110.4-126.5,110.4c-63.8,0-117.8-47.1-126.5-110.4l-0.1-0.6c-2.2-12.3-12.7-21.4-25.2-21.8H282V145.2z
		 M182.5,236.1c0-19.9,17.5-37.2,37.5-37.2h11.4V500h-48.9V236.1z M899.4,855.7c0.2,11.8-4.4,23.3-12.8,31.6
		c-8.4,8.3-19.9,12.9-31.7,12.6H145.1c-11.8,0.3-23.3-4.2-31.7-12.6c-8.4-8.3-13-19.8-12.8-31.6V594.3c-0.2-11.8,4.4-23.2,12.8-31.6
		c8.4-8.3,19.8-12.9,31.7-12.6h178.7c20.7,77.6,92,133.3,171.8,133.3c81.7,0,153-55.7,172-133.3h187.3c25.3,0,44.4,19,44.4,44.2
		L899.4,855.7L899.4,855.7z M899.4,855.7"/>
		<path class="st0" d="M380,200h144.4v48.8H380V200z M380,331.2h240V380H380V331.2z M380,331.2"/>
</g>
</svg>
