<?xml version="1.0" encoding="utf-8"?>
<!-- Generator: Adobe Illustrator 21.0.0, SVG Export Plug-In . SVG Version: 6.00 Build 0)  -->
<svg version="1.1" id="图层_1" xmlns="http://www.w3.org/2000/svg" xmlns:xlink="http://www.w3.org/1999/xlink" x="0px" y="0px"
	 viewBox="0 0 1000 1000" style="enable-background:new 0 0 1000 1000;" xml:space="preserve">
<style type="text/css">
	.st0{clip-path:url(#SVGID_2_);fill:#858387;}
	.st1{fill:#858387;}
</style>
	<g>
	<g>
		<defs>
			<rect id="SVGID_1_" x="119.8" y="38.2" width="760.2" height="925.6"/>
		</defs>
		<clipPath id="SVGID_2_">
			<use xlink:href="#SVGID_1_"  style="overflow:visible;"/>
		</clipPath>
		<path class="st0" d="M822.9,797.4c32.6-3.9,57.2-31.5,57.3-64.3V103.7c0-35.9-29.2-65.1-65.1-65.1H185.8
			c-35.9,0-65.1,29.2-65.1,65.1V733c0,1.7,0.4,3.3,0.5,4.9v114.6c-0.9,7.7-1.3,15.4-1.3,23.2c0,59.9,48.6,86.8,108.5,86.8h622.1
			c14.9,0,27-12.1,27-27c0-14.9-12.1-27-27-27h-67.5c-6.8-9.7-10.7-21-11.4-32.8C768.9,841.6,792.8,812.2,822.9,797.4L822.9,797.4z
			 M185.8,82h629.3c12,0,21.7,9.7,21.7,21.7V733c0,5.8-2.3,11.3-6.4,15.3c-4.1,4.1-9.6,6.4-15.3,6.4H185.8
			c-10.9-0.1-20.1-8.4-21.2-19.2V418.4h-0.5V103.7C164.1,91.8,173.8,82,185.8,82L185.8,82z M174.1,875.7c0-43.6,10.7-54.3,54.2-54.3
			h498.8c-7.9,18.4-11.2,38.4-9.7,58.4c0.8,10.4,2.7,19.9,5.4,28.5H228.3C174.1,908.3,174.1,883.8,174.1,875.7L174.1,875.7z
			 M174.1,875.7"/>
	</g>
		<path class="st1" d="M310.6,468.9h75.2l-53.2,53.2c-4.1,4.1-6.4,9.6-6.4,15.3c0,5.8,2.3,11.3,6.4,15.3l46,46
		c4.1,4.1,9.6,6.4,15.3,6.4s11.3-2.3,15.3-6.4l58.5-58.5v80.5c0,5.8,2.3,11.3,6.4,15.3c4.1,4.1,9.6,6.4,15.3,6.4h65.1
		c5.8,0,11.3-2.3,15.3-6.4c4.1-4.1,6.4-9.6,6.4-15.3V551l47.9,47.8c4.1,4.1,9.6,6.4,15.3,6.4c5.8,0,11.3-2.3,15.3-6.4l46-46
		c4.1-4.1,6.4-9.6,6.4-15.3c0-5.8-2.3-11.3-6.4-15.3l-53.2-53.2h75.2c5.8,0,11.3-2.3,15.3-6.4c4.1-4.1,6.4-9.6,6.4-15.3v-65.1
		c0-5.8-2.3-11.3-6.3-15.4c-4.1-4.1-9.6-6.4-15.4-6.4h-75.2l53.2-53.2c4.1-4.1,6.4-9.6,6.4-15.3c0-5.8-2.3-11.3-6.4-15.3l-46-46
		c-4.1-4.1-9.6-6.4-15.3-6.4c-5.8,0-11.3,2.3-15.3,6.4l-47.9,47.8v-69.9c0-5.8-2.3-11.3-6.4-15.3c-4.1-4.1-9.6-6.4-15.3-6.4h-65.1
		c-5.8,0-11.3,2.3-15.3,6.4c-4.1,4.1-6.4,9.6-6.4,15.3V289l-58.5-58.5c-4.1-4.1-9.6-6.4-15.3-6.4s-11.3,2.3-15.3,6.4l-46,46
		c-4.1,4.1-6.4,9.6-6.4,15.3c0,5.8,2.3,11.3,6.4,15.3l53.2,53.2h-75.2c-12,0-21.7,9.7-21.7,21.7v65.1c0,5.8,2.3,11.3,6.4,15.3
		C299.3,466.6,304.8,468.9,310.6,468.9L310.6,468.9z M516.7,327.8c31,0,59.7,16.5,75.2,43.4c15.5,26.9,15.5,59.9,0,86.8
		c-15.5,26.9-44.2,43.4-75.2,43.4c-47.9,0-86.8-38.9-86.8-86.8S468.8,327.8,516.7,327.8L516.7,327.8z M516.7,327.8"/>
</g>
</svg>